<svg xmlns="http://www.w3.org/2000/svg"
   xmlns:xlink="http://www.w3.org/1999/xlink"
   version="1.1"
   id="acomplamiento_sintonizado" width="100%" height="100%"  viewBox="-6 -6 1876 505">
<desc>
XCircuit Version 3.9
File "acomplamiento_sintonizado" Page 1
</desc>
<g stroke="black">
<path d="M232,373 L280,373 " fill="#000000" stroke-width="2" stroke-linejoin="bevel" stroke-linecap="round" stroke="#000000" />
<path d="M232,389 L280,389 " fill="#000000" stroke-width="2" stroke-linejoin="bevel" stroke-linecap="round" stroke="#000000" />
<path d="M256,389 L256,421 " fill="none" stroke-width="2" stroke-linejoin="bevel" stroke-linecap="round" stroke="#000000" />
<path d="M256,373 L256,341 " fill="none" stroke-width="2" stroke-linejoin="bevel" stroke-linecap="round" stroke="#000000" />
<path d="M232,389 L232,397 280,397 280,389 272,389 " fill="#000000" stroke-width="2" stroke-linejoin="bevel" stroke-linecap="round" stroke="#000000" />
<path d="M232,373 L232,365 280,365 280,373 " fill="#000000" stroke-width="2" stroke-linejoin="bevel" stroke-linecap="round" stroke="#000000" />
<path d="M352,349 C372,349 372,365 352,365 " fill="none" stroke-width="3" stroke-linejoin="bevel" stroke-linecap="round" stroke="#000000" />
<path d="M352,365 C372,365 372,381 352,381 " fill="none" stroke-width="3" stroke-linejoin="bevel" stroke-linecap="round" stroke="#000000" />
<path d="M352,381 C372,381 372,397 352,397 " fill="none" stroke-width="3" stroke-linejoin="bevel" stroke-linecap="round" stroke="#000000" />
<path d="M352,397 C372,397 372,413 352,413 " fill="none" stroke-width="3" stroke-linejoin="bevel" stroke-linecap="round" stroke="#000000" />
<path d="M352,349 L352,317 " fill="none" stroke-width="2" stroke-linejoin="bevel" stroke-linecap="round" stroke="#000000" />
<path d="M352,413 L352,445 " fill="none" stroke-width="2" stroke-linejoin="bevel" stroke-linecap="round" stroke="#000000" />
<path d="M432,413 C412,413 412,397 432,397 " fill="none" stroke-width="3" stroke-linejoin="bevel" stroke-linecap="round" stroke="#000000" />
<path d="M432,397 C412,397 412,381 432,381 " fill="none" stroke-width="3" stroke-linejoin="bevel" stroke-linecap="round" stroke="#000000" />
<path d="M432,381 C412,381 412,365 432,365 " fill="none" stroke-width="3" stroke-linejoin="bevel" stroke-linecap="round" stroke="#000000" />
<path d="M432,365 C412,365 412,349 432,349 " fill="none" stroke-width="3" stroke-linejoin="bevel" stroke-linecap="round" stroke="#000000" />
<path d="M432,413 L432,445 " fill="none" stroke-width="2" stroke-linejoin="bevel" stroke-linecap="round" stroke="#000000" />
<path d="M432,349 L432,317 " fill="none" stroke-width="2" stroke-linejoin="bevel" stroke-linecap="round" stroke="#000000" />
<path d="M488,373 L536,373 " fill="#000000" stroke-width="2" stroke-linejoin="bevel" stroke-linecap="round" stroke="#000000" />
<path d="M488,389 L536,389 " fill="#000000" stroke-width="2" stroke-linejoin="bevel" stroke-linecap="round" stroke="#000000" />
<path d="M512,389 L512,421 " fill="none" stroke-width="2" stroke-linejoin="bevel" stroke-linecap="round" stroke="#000000" />
<path d="M512,373 L512,341 " fill="none" stroke-width="2" stroke-linejoin="bevel" stroke-linecap="round" stroke="#000000" />
<path d="M488,389 L488,397 536,397 536,389 528,389 " fill="#000000" stroke-width="2" stroke-linejoin="bevel" stroke-linecap="round" stroke="#000000" />
<path d="M488,373 L488,365 536,365 536,373 " fill="#000000" stroke-width="2" stroke-linejoin="bevel" stroke-linecap="round" stroke="#000000" />
<path d="M680,245 L680,293 " fill="#000000" stroke-width="2" stroke-linejoin="bevel" stroke-linecap="round" stroke="#000000" />
<path d="M664,245 L664,293 " fill="#000000" stroke-width="2" stroke-linejoin="bevel" stroke-linecap="round" stroke="#000000" />
<path d="M664,269 L632,269 " fill="none" stroke-width="2" stroke-linejoin="bevel" stroke-linecap="round" stroke="#000000" />
<path d="M680,269 L712,269 " fill="none" stroke-width="2" stroke-linejoin="bevel" stroke-linecap="round" stroke="#000000" />
<path d="M664,245 L656,245 656,293 664,293 664,285 " fill="#000000" stroke-width="2" stroke-linejoin="bevel" stroke-linecap="round" stroke="#000000" />
<path d="M680,245 L688,245 688,293 680,293 " fill="#000000" stroke-width="2" stroke-linejoin="bevel" stroke-linecap="round" stroke="#000000" />
<path d="M776,389 L824,389 " fill="#000000" stroke-width="2" stroke-linejoin="bevel" stroke-linecap="round" stroke="#000000" />
<path d="M776,405 L824,405 " fill="#000000" stroke-width="2" stroke-linejoin="bevel" stroke-linecap="round" stroke="#000000" />
<path d="M800,405 L800,437 " fill="none" stroke-width="2" stroke-linejoin="bevel" stroke-linecap="round" stroke="#000000" />
<path d="M800,389 L800,357 " fill="none" stroke-width="2" stroke-linejoin="bevel" stroke-linecap="round" stroke="#000000" />
<path d="M776,405 L776,413 824,413 824,405 816,405 " fill="#000000" stroke-width="2" stroke-linejoin="bevel" stroke-linecap="round" stroke="#000000" />
<path d="M776,389 L776,381 824,381 824,389 " fill="#000000" stroke-width="2" stroke-linejoin="bevel" stroke-linecap="round" stroke="#000000" />
<path d="M960,45 L960,85 " fill="none" stroke-width="2" stroke-linejoin="bevel" stroke-linecap="round" stroke="#000000" />
<path d="M944,85 L976,85 976,165 944,165 944,85 " fill="none" stroke-width="2" stroke-linejoin="bevel" stroke-linecap="round" stroke="#000000" />
<path d="M960,165 L960,205 " fill="none" stroke-width="2" stroke-linejoin="bevel" stroke-linecap="round" stroke="#000000" />
<path d="M960,317 L960,357 " fill="none" stroke-width="2" stroke-linejoin="bevel" stroke-linecap="round" stroke="#000000" />
<path d="M944,357 L976,357 976,437 944,437 944,357 " fill="none" stroke-width="2" stroke-linejoin="bevel" stroke-linecap="round" stroke="#000000" />
<path d="M960,437 L960,477 " fill="none" stroke-width="2" stroke-linejoin="bevel" stroke-linecap="round" stroke="#000000" />
<path d="M256,349 L256,317 352,317 " fill="none" stroke-width="2" stroke-linejoin="bevel" stroke-linecap="round" stroke="#000000" />
<path d="M352,445 L256,445 256,413 " fill="none" stroke-width="2" stroke-linejoin="bevel" stroke-linecap="round" stroke="#000000" />
<path d="M352,317 L352,269 64,269 " fill="none" stroke-width="2" stroke-linejoin="bevel" stroke-linecap="round" stroke="#000000" />
<path d="M352,445 L352,493 64,493 " fill="none" stroke-width="2" stroke-linejoin="bevel" stroke-linecap="round" stroke="#000000" />
<path d="M432,445 L512,445 512,413 " fill="none" stroke-width="2" stroke-linejoin="bevel" stroke-linecap="round" stroke="#000000" />
<path d="M512,349 L512,301 432,301 432,333 " fill="none" stroke-width="2" stroke-linejoin="bevel" stroke-linecap="round" stroke="#000000" />
<path d="M352,493 L512,493 512,445 " fill="none" stroke-width="2" stroke-linejoin="bevel" stroke-linecap="round" stroke="#000000" />
<path d="M512,301 L512,269 624,269 " fill="none" stroke-width="2" stroke-linejoin="bevel" stroke-linecap="round" stroke="#000000" />
<path d="M640,269 L592,269 " fill="none" stroke-width="2" stroke-linejoin="bevel" stroke-linecap="round" stroke="#000000" />
<path d="M704,269 L800,269 800,365 " fill="none" stroke-width="2" stroke-linejoin="bevel" stroke-linecap="round" stroke="#000000" />
<path d="M800,429 L800,493 512,493 " fill="none" stroke-width="2" stroke-linejoin="bevel" stroke-linecap="round" stroke="#000000" />
<path d="M800,493 L960,493 960,461 " fill="none" stroke-width="2" stroke-linejoin="bevel" stroke-linecap="round" stroke="#000000" />
<path d="M960,317 L960,205 960,269 800,269 " fill="none" stroke-width="2" stroke-linejoin="bevel" stroke-linecap="round" stroke="#000000" />
<ellipse cx="64" cy="269" rx="6" ry="6" fill="#000000" stroke="none" />
<ellipse cx="64" cy="493" rx="6" ry="6" fill="#000000" stroke="none" />
<ellipse cx="352" cy="317" rx="6" ry="6" fill="#000000" stroke="none" />
<ellipse cx="352" cy="445" rx="6" ry="6" fill="#000000" stroke="none" />
<ellipse cx="352" cy="493" rx="6" ry="6" fill="#000000" stroke="none" />
<ellipse cx="512" cy="493" rx="6" ry="6" fill="#000000" stroke="none" />
<ellipse cx="512" cy="445" rx="6" ry="6" fill="#000000" stroke="none" />
<ellipse cx="512" cy="301" rx="6" ry="6" fill="#000000" stroke="none" />
<ellipse cx="800" cy="269" rx="6" ry="6" fill="#000000" stroke="none" />
<ellipse cx="800" cy="493" rx="6" ry="6" fill="#000000" stroke="none" />
<ellipse cx="960" cy="493" rx="6" ry="6" fill="#000000" stroke="none" />
<ellipse cx="960" cy="269" rx="6" ry="6" fill="#000000" stroke="none" />
<path d="M1120,245 L1120,293 " fill="none" stroke-width="4" stroke-linejoin="bevel" stroke-linecap="round" stroke="#000000" />
<path d="M1152,237 L1120,251 " fill="none" stroke-width="2" stroke-linejoin="bevel" stroke-linecap="round" stroke="#000000" />
<path d="M1152,237 L1152,205 " fill="none" stroke-width="2" stroke-linejoin="bevel" stroke-linecap="round" stroke="#000000" />
<path d="M1120,269 L1056,269 " fill="none" stroke-width="2" stroke-linejoin="bevel" stroke-linecap="round" stroke="#000000" />
<path d="M1152,301 L1120,287 " fill="none" stroke-width="2" stroke-linejoin="bevel" stroke-linecap="round" stroke="#000000" />
<path d="M1152,301 L1152,333 " fill="none" stroke-width="2" stroke-linejoin="bevel" stroke-linecap="round" stroke="#000000" />
<path d="M1133,298 C1141,298 1142,299 1152,301 C1144,295 1142,294 1138,289 C1137,293 1136,295 1133,298 " fill="#000000" stroke="none" />
<path d="M1088,269 L960,269 " fill="none" stroke-width="2" stroke-linejoin="bevel" stroke-linecap="round" stroke="#000000" />
<path d="M1400,229 L1400,181 " fill="#000000" stroke-width="2" stroke-linejoin="bevel" stroke-linecap="round" stroke="#000000" />
<path d="M1416,229 L1416,181 " fill="#000000" stroke-width="2" stroke-linejoin="bevel" stroke-linecap="round" stroke="#000000" />
<path d="M1416,205 L1448,205 " fill="none" stroke-width="2" stroke-linejoin="bevel" stroke-linecap="round" stroke="#000000" />
<path d="M1400,205 L1368,205 " fill="none" stroke-width="2" stroke-linejoin="bevel" stroke-linecap="round" stroke="#000000" />
<path d="M1416,229 L1424,229 1424,181 1416,181 1416,189 " fill="#000000" stroke-width="2" stroke-linejoin="bevel" stroke-linecap="round" stroke="#000000" />
<path d="M1400,229 L1392,229 1392,181 1400,181 " fill="#000000" stroke-width="2" stroke-linejoin="bevel" stroke-linecap="round" stroke="#000000" />
<path d="M1152,333 L1152,373 " fill="none" stroke-width="2" stroke-linejoin="bevel" stroke-linecap="round" stroke="#000000" />
<path d="M1136,373 L1168,373 1168,453 1136,453 1136,373 " fill="none" stroke-width="2" stroke-linejoin="bevel" stroke-linecap="round" stroke="#000000" />
<path d="M1152,453 L1152,493 " fill="none" stroke-width="2" stroke-linejoin="bevel" stroke-linecap="round" stroke="#000000" />
<path d="M1288,421 L1336,421 " fill="#000000" stroke-width="2" stroke-linejoin="bevel" stroke-linecap="round" stroke="#000000" />
<path d="M1288,437 L1336,437 " fill="#000000" stroke-width="2" stroke-linejoin="bevel" stroke-linecap="round" stroke="#000000" />
<path d="M1312,437 L1312,469 " fill="none" stroke-width="2" stroke-linejoin="bevel" stroke-linecap="round" stroke="#000000" />
<path d="M1312,421 L1312,389 " fill="none" stroke-width="2" stroke-linejoin="bevel" stroke-linecap="round" stroke="#000000" />
<path d="M1288,437 L1288,445 1336,445 1336,437 1328,437 " fill="#000000" stroke-width="2" stroke-linejoin="bevel" stroke-linecap="round" stroke="#000000" />
<path d="M1288,421 L1288,413 1336,413 1336,421 " fill="#000000" stroke-width="2" stroke-linejoin="bevel" stroke-linecap="round" stroke="#000000" />
<path d="M1480,325 L1528,325 " fill="#000000" stroke-width="2" stroke-linejoin="bevel" stroke-linecap="round" stroke="#000000" />
<path d="M1480,341 L1528,341 " fill="#000000" stroke-width="2" stroke-linejoin="bevel" stroke-linecap="round" stroke="#000000" />
<path d="M1504,341 L1504,373 " fill="none" stroke-width="2" stroke-linejoin="bevel" stroke-linecap="round" stroke="#000000" />
<path d="M1504,325 L1504,293 " fill="none" stroke-width="2" stroke-linejoin="bevel" stroke-linecap="round" stroke="#000000" />
<path d="M1480,341 L1480,349 1528,349 1528,341 1520,341 " fill="#000000" stroke-width="2" stroke-linejoin="bevel" stroke-linecap="round" stroke="#000000" />
<path d="M1480,325 L1480,317 1528,317 1528,325 " fill="#000000" stroke-width="2" stroke-linejoin="bevel" stroke-linecap="round" stroke="#000000" />
<path d="M1152,77 C1172,77 1172,93 1152,93 " fill="none" stroke-width="3" stroke-linejoin="bevel" stroke-linecap="round" stroke="#000000" />
<path d="M1152,93 C1172,93 1172,109 1152,109 " fill="none" stroke-width="3" stroke-linejoin="bevel" stroke-linecap="round" stroke="#000000" />
<path d="M1152,109 C1172,109 1172,125 1152,125 " fill="none" stroke-width="3" stroke-linejoin="bevel" stroke-linecap="round" stroke="#000000" />
<path d="M1152,125 C1172,125 1172,141 1152,141 " fill="none" stroke-width="3" stroke-linejoin="bevel" stroke-linecap="round" stroke="#000000" />
<path d="M1152,77 L1152,45 " fill="none" stroke-width="2" stroke-linejoin="bevel" stroke-linecap="round" stroke="#000000" />
<path d="M1152,141 L1152,173 " fill="none" stroke-width="2" stroke-linejoin="bevel" stroke-linecap="round" stroke="#000000" />
<path d="M1216,77 L1120,141 " fill="none" stroke-width="2" stroke-linejoin="bevel" stroke-linecap="round" stroke="#000000" />
<path d="M960,45 L1664,45 " fill="none" stroke-width="2" stroke-linejoin="bevel" stroke-linecap="round" stroke="#000000" />
<path d="M1152,221 L1152,173 " fill="none" stroke-width="2" stroke-linejoin="bevel" stroke-linecap="round" stroke="#000000" />
<path d="M1152,205 L1376,205 " fill="none" stroke-width="2" stroke-linejoin="bevel" stroke-linecap="round" stroke="#000000" />
<path d="M1440,205 L1504,205 1504,301 " fill="none" stroke-width="2" stroke-linejoin="bevel" stroke-linecap="round" stroke="#000000" />
<path d="M1504,365 L1504,493 960,493 " fill="none" stroke-width="2" stroke-linejoin="bevel" stroke-linecap="round" stroke="#000000" />
<path d="M1312,397 L1312,365 1152,365 " fill="none" stroke-width="2" stroke-linejoin="bevel" stroke-linecap="round" stroke="#000000" />
<path d="M1312,461 L1312,493 " fill="none" stroke-width="2" stroke-linejoin="bevel" stroke-linecap="round" stroke="#000000" />
<path d="M1504,493 L1664,493 " fill="none" stroke-width="2" stroke-linejoin="bevel" stroke-linecap="round" stroke="#000000" />
<path d="M1504,205 L1664,205 " fill="none" stroke-width="2" stroke-linejoin="bevel" stroke-linecap="round" stroke="#000000" />
<ellipse cx="1152" cy="205" rx="6" ry="6" fill="#000000" stroke="none" />
<ellipse cx="1664" cy="45" rx="6" ry="6" fill="#000000" stroke="none" />
<ellipse cx="1664" cy="205" rx="6" ry="6" fill="#000000" stroke="none" />
<ellipse cx="1664" cy="493" rx="6" ry="6" fill="#000000" stroke="none" />
<ellipse cx="1504" cy="493" rx="6" ry="6" fill="#000000" stroke="none" />
<ellipse cx="1312" cy="493" rx="6" ry="6" fill="#000000" stroke="none" />
<ellipse cx="1152" cy="493" rx="6" ry="6" fill="#000000" stroke="none" />
<g transform="matrix( 0.8    0   -0  0.8 208 349)" fill="#000000" >
<text stroke="none" font-family="Times" font-size="40" ><tspan x="0" y="0">C1</tspan>
</text></g>
<g transform="matrix( 0.8    0   -0  0.8 320 381)" fill="#000000" >
<text stroke="none" font-family="Times" font-size="40" ><tspan x="0" y="0">L1</tspan>
</text></g>
<g transform="matrix( 0.8    0   -0  0.8 448 381)" fill="#000000" >
<text stroke="none" font-family="Times" font-size="40" ><tspan x="0" y="0">L2</tspan>
</text></g>
<g transform="matrix( 0.8    0   -0  0.8 560 349)" fill="#000000" >
<text stroke="none" font-family="Times" font-size="40" ><tspan x="0" y="0">C2</tspan>
</text></g>
<g transform="matrix( 0.8    0   -0  0.8 704 221)" fill="#000000" >
<text stroke="none" font-family="Times" font-size="40" ><tspan x="0" y="0">C3</tspan>
</text></g>
<g transform="matrix( 0.8    0   -0  0.8 992 141)" fill="#000000" >
<text stroke="none" font-family="Times" font-size="40" ><tspan x="0" y="0">R1</tspan>
</text></g>
<g transform="matrix( 0.8    0   -0  0.8 992 381)" fill="#000000" >
<text stroke="none" font-family="Times" font-size="40" ><tspan x="0" y="0">R2</tspan>
</text></g>
<g transform="matrix( 0.8    0   -0  0.8 1184 413)" fill="#000000" >
<text stroke="none" font-family="Times" font-size="40" ><tspan x="0" y="0">R3</tspan>
</text></g>
<g transform="matrix( 0.8    0   -0  0.8 1344 397)" fill="#000000" >
<text stroke="none" font-family="Times" font-size="40" ><tspan x="0" y="0">C5</tspan>
</text></g>
<g transform="matrix( 0.8    0   -0  0.8 1552 317)" fill="#000000" >
<text stroke="none" font-family="Times" font-size="40" ><tspan x="0" y="0">C7</tspan>
</text></g>
<g transform="matrix( 0.8    0   -0  0.8 1440 173)" fill="#000000" >
<text stroke="none" font-family="Times" font-size="40" ><tspan x="0" y="0">C6</tspan>
</text></g>
<g transform="matrix( 0.8    0   -0  0.8 1696  29)" fill="#000000" >
<text stroke="none" font-family="Times" font-size="40" ><tspan x="0" y="0"><tspan dy="-18" font-size="26.8">AT</tspan></tspan>
</text></g>
<g transform="matrix( 0.8    0   -0  0.8 1184 125)" fill="#000000" >
<text stroke="none" font-family="Times" font-size="40" ><tspan x="0" y="0">L3</tspan>
</text></g>
<g transform="matrix( 0.8    0   -0  0.8 1712 189)" fill="#000000" >
<text stroke="none" font-family="Times" font-size="40" ><tspan x="0" y="0">salida</tspan>
</text></g>
<g transform="matrix( 0.8    0   -0  0.8 1792 189)" fill="#000000" >
<text stroke="none" font-family="Times" font-size="40" ><tspan x="0" y="0">de f.i.</tspan>
</text></g>
<g transform="matrix( 0.8    0   -0  0.8 1696 477)" fill="#000000" >
<text stroke="none" font-family="Times" font-size="40" ><tspan x="0" y="0">0V</tspan>
</text></g>
<g transform="matrix( 0.8    0   -0  0.8   0 397)" fill="#000000" >
<text stroke="none" font-family="Times" font-size="40" ><tspan x="0" y="0">entrada de f.i.</tspan>
</text></g>
</g>
</svg>
