<svg xmlns="http://www.w3.org/2000/svg"
   xmlns:xlink="http://www.w3.org/1999/xlink"
   version="1.1"
   id="amplificador_basecomun" width="100%" height="100%"  viewBox="-6 -6 983 727">
<desc>
XCircuit Version 3.9
File "amplificador_basecomun" Page 1
</desc>
<g stroke="black">
<ellipse cx="432" cy="53" rx="6" ry="6" fill="#000000" stroke="none" />
<path d="M432,69 L432,109 " fill="none" stroke-width="2" stroke-linejoin="bevel" stroke-linecap="round" stroke="#000000" />
<path d="M416,109 L448,109 448,189 416,189 416,109 " fill="none" stroke-width="2" stroke-linejoin="bevel" stroke-linecap="round" stroke="#000000" />
<path d="M432,189 L432,229 " fill="none" stroke-width="2" stroke-linejoin="bevel" stroke-linecap="round" stroke="#000000" />
<path d="M736,69 L736,109 " fill="none" stroke-width="2" stroke-linejoin="bevel" stroke-linecap="round" stroke="#000000" />
<path d="M720,109 L752,109 752,189 720,189 720,109 " fill="none" stroke-width="2" stroke-linejoin="bevel" stroke-linecap="round" stroke="#000000" />
<path d="M736,189 L736,229 " fill="none" stroke-width="2" stroke-linejoin="bevel" stroke-linecap="round" stroke="#000000" />
<ellipse cx="736" cy="229" rx="6" ry="6" fill="#000000" stroke="none" />
<ellipse cx="896" cy="229" rx="6" ry="6" fill="#000000" stroke="none" />
<path d="M736,229 L896,229 " fill="none" stroke-width="2" stroke-linejoin="bevel" stroke-linecap="round" stroke="#000000" />
<path d="M640,389 L640,357 " fill="none" stroke-width="2" stroke-linejoin="bevel" stroke-linecap="round" stroke="#000000" />
<path d="M576,357 L704,357 " fill="none" stroke-width="3" stroke-linejoin="bevel" stroke-linecap="round" stroke="#000000" />
<ellipse cx="640" cy="357" rx="6" ry="6" fill="#000000" stroke="none" />
<path d="M640,357 L736,229 " fill="none" stroke-width="2" stroke-linejoin="bevel" stroke-linecap="round" stroke="#000000" />
<path d="M640,357 L576,229 " fill="none" stroke-width="2" stroke-linejoin="bevel" stroke-linecap="round" stroke="#000000" />
<path d="M613,281 C604,275 602,272 592,261 C597,275 598,278 599,289 C603,285 607,283 613,281 " fill="#000000" stroke="none" />
<ellipse cx="640" cy="357" rx="128" ry="128" fill="none" stroke-width="2" stroke-linejoin="bevel" stroke-linecap="round" stroke="#000000" />
<path d="M640,357 L640,501 " fill="none" stroke-width="2" stroke-linejoin="bevel" stroke-linecap="round" stroke="#000000" />
<ellipse cx="640" cy="501" rx="6" ry="6" fill="#000000" stroke="none" />
<path d="M442,229 A10,10 0 0,0 422,229 " fill="none" stroke-width="2" stroke-linejoin="bevel" stroke-linecap="round" stroke="#000000" />
<path d="M422,229 L416,229 " fill="none" stroke-width="2" stroke-linejoin="bevel" stroke-linecap="round" stroke="#000000" />
<path d="M442,229 L448,229 " fill="none" stroke-width="2" stroke-linejoin="bevel" stroke-linecap="round" stroke="#000000" />
<path d="M304,53 L432,53 432,85 432,53 736,53 736,69 " fill="none" stroke-width="2" stroke-linejoin="bevel" stroke-linecap="round" stroke="#000000" />
<path d="M432,197 L432,229 " fill="none" stroke-width="2" stroke-linejoin="bevel" stroke-linecap="round" stroke="#000000" />
<path d="M432,197 L432,229 " fill="none" stroke-width="2" stroke-linejoin="bevel" stroke-linecap="round" stroke="#000000" />
<path d="M448,229 L576,229 " fill="none" stroke-width="2" stroke-linejoin="bevel" stroke-linecap="round" stroke="#000000" />
<path d="M216,253 L216,205 " fill="#000000" stroke-width="2" stroke-linejoin="bevel" stroke-linecap="round" stroke="#000000" />
<path d="M232,253 L232,205 " fill="#000000" stroke-width="2" stroke-linejoin="bevel" stroke-linecap="round" stroke="#000000" />
<path d="M232,229 L264,229 " fill="none" stroke-width="2" stroke-linejoin="bevel" stroke-linecap="round" stroke="#000000" />
<path d="M216,229 L184,229 " fill="none" stroke-width="2" stroke-linejoin="bevel" stroke-linecap="round" stroke="#000000" />
<path d="M232,253 L240,253 240,205 232,205 232,213 " fill="#000000" stroke-width="2" stroke-linejoin="bevel" stroke-linecap="round" stroke="#000000" />
<path d="M216,253 L208,253 208,205 216,205 " fill="#000000" stroke-width="2" stroke-linejoin="bevel" stroke-linecap="round" stroke="#000000" />
<ellipse cx="304" cy="53" rx="6" ry="6" fill="#000000" stroke="none" />
<path d="M256,229 L416,229 400,229 " fill="none" stroke-width="2" stroke-linejoin="bevel" stroke-linecap="round" stroke="#000000" />
<ellipse cx="320" cy="229" rx="6" ry="6" fill="#000000" stroke="none" />
<path d="M320,501 L320,541 " fill="none" stroke-width="2" stroke-linejoin="bevel" stroke-linecap="round" stroke="#000000" />
<path d="M304,541 L336,541 336,621 304,621 304,541 " fill="none" stroke-width="2" stroke-linejoin="bevel" stroke-linecap="round" stroke="#000000" />
<path d="M320,621 L320,661 " fill="none" stroke-width="2" stroke-linejoin="bevel" stroke-linecap="round" stroke="#000000" />
<path d="M320,229 L320,469 " fill="none" stroke-width="2" stroke-linejoin="bevel" stroke-linecap="round" stroke="#000000" />
<ellipse cx="96" cy="533" rx="35" ry="35" fill="none" stroke-width="2" stroke-linejoin="bevel" stroke-linecap="round" stroke="#000000" />
<path d="M192,229 L96,229 96,501 " fill="none" stroke-width="2" stroke-linejoin="bevel" stroke-linecap="round" stroke="#000000" />
<path d="M96,565 L96,629 " fill="none" stroke-width="2" stroke-linejoin="bevel" stroke-linecap="round" stroke="#000000" />
<path d="M640,501 L640,541 " fill="none" stroke-width="2" stroke-linejoin="bevel" stroke-linecap="round" stroke="#000000" />
<path d="M624,541 L656,541 656,621 624,621 624,541 " fill="none" stroke-width="2" stroke-linejoin="bevel" stroke-linecap="round" stroke="#000000" />
<path d="M640,621 L640,661 " fill="none" stroke-width="2" stroke-linejoin="bevel" stroke-linecap="round" stroke="#000000" />
<path d="M320,453 L320,533 " fill="none" stroke-width="2" stroke-linejoin="bevel" stroke-linecap="round" stroke="#000000" />
<path d="M640,661 L640,693 " fill="none" stroke-width="2" stroke-linejoin="bevel" stroke-linecap="round" stroke="#000000" />
<path d="M608,693 L672,693 " fill="none" stroke-width="3" stroke-linejoin="bevel" stroke-linecap="round" stroke="#000000" />
<path d="M622,707 L658,707 " fill="none" stroke-width="3" stroke-linejoin="bevel" stroke-linecap="round" stroke="#000000" />
<path d="M636,721 L644,721 " fill="none" stroke-width="3" stroke-linejoin="bevel" stroke-linecap="round" stroke="#000000" />
<path d="M320,661 L320,693 " fill="none" stroke-width="2" stroke-linejoin="bevel" stroke-linecap="round" stroke="#000000" />
<path d="M288,693 L352,693 " fill="none" stroke-width="3" stroke-linejoin="bevel" stroke-linecap="round" stroke="#000000" />
<path d="M302,707 L338,707 " fill="none" stroke-width="3" stroke-linejoin="bevel" stroke-linecap="round" stroke="#000000" />
<path d="M316,721 L324,721 " fill="none" stroke-width="3" stroke-linejoin="bevel" stroke-linecap="round" stroke="#000000" />
<path d="M96,661 L96,693 " fill="none" stroke-width="2" stroke-linejoin="bevel" stroke-linecap="round" stroke="#000000" />
<path d="M64,693 L128,693 " fill="none" stroke-width="3" stroke-linejoin="bevel" stroke-linecap="round" stroke="#000000" />
<path d="M78,707 L114,707 " fill="none" stroke-width="3" stroke-linejoin="bevel" stroke-linecap="round" stroke="#000000" />
<path d="M92,721 L100,721 " fill="none" stroke-width="3" stroke-linejoin="bevel" stroke-linecap="round" stroke="#000000" />
<path d="M96,613 L96,693 " fill="none" stroke-width="2" stroke-linejoin="bevel" stroke-linecap="round" stroke="#000000" />
<path d="M432,213 L432,501 640,501 " fill="none" stroke-width="2" stroke-linejoin="bevel" stroke-linecap="round" stroke="#000000" />
<path d="M488,589 L536,589 " fill="#000000" stroke-width="2" stroke-linejoin="bevel" stroke-linecap="round" stroke="#000000" />
<path d="M488,605 L536,605 " fill="#000000" stroke-width="2" stroke-linejoin="bevel" stroke-linecap="round" stroke="#000000" />
<path d="M512,605 L512,637 " fill="none" stroke-width="2" stroke-linejoin="bevel" stroke-linecap="round" stroke="#000000" />
<path d="M512,589 L512,557 " fill="none" stroke-width="2" stroke-linejoin="bevel" stroke-linecap="round" stroke="#000000" />
<path d="M488,605 L488,613 536,613 536,605 528,605 " fill="#000000" stroke-width="2" stroke-linejoin="bevel" stroke-linecap="round" stroke="#000000" />
<path d="M488,589 L488,581 536,581 536,589 " fill="#000000" stroke-width="2" stroke-linejoin="bevel" stroke-linecap="round" stroke="#000000" />
<ellipse cx="512" cy="501" rx="6" ry="6" fill="#000000" stroke="none" />
<path d="M512,501 L512,565 " fill="none" stroke-width="2" stroke-linejoin="bevel" stroke-linecap="round" stroke="#000000" />
<path d="M512,661 L512,693 " fill="none" stroke-width="2" stroke-linejoin="bevel" stroke-linecap="round" stroke="#000000" />
<path d="M480,693 L544,693 " fill="none" stroke-width="3" stroke-linejoin="bevel" stroke-linecap="round" stroke="#000000" />
<path d="M494,707 L530,707 " fill="none" stroke-width="3" stroke-linejoin="bevel" stroke-linecap="round" stroke="#000000" />
<path d="M508,721 L516,721 " fill="none" stroke-width="3" stroke-linejoin="bevel" stroke-linecap="round" stroke="#000000" />
<path d="M512,661 L512,629 " fill="none" stroke-width="2" stroke-linejoin="bevel" stroke-linecap="round" stroke="#000000" />
<g transform="matrix( 0.8    0   -0  0.8 288  21)" fill="#000000" >
<text stroke="none" font-family="Times" font-size="40" ><tspan x="0" y="0">Vcc</tspan>
</text></g>
<g transform="matrix( 0.8    0   -0  0.8 368 149)" fill="#000000" >
<text stroke="none" font-family="Times" font-size="40" ><tspan x="0" y="0">R1</tspan>
</text></g>
<g transform="matrix( 0.8    0   -0  0.8 768 149)" fill="#000000" >
<text stroke="none" font-family="Times" font-size="40" ><tspan x="0" y="0">Rc</tspan>
</text></g>
<g transform="matrix( 0.8    0   -0  0.8 912 277)" fill="#000000" >
<text stroke="none" font-family="Times" font-size="40" ><tspan x="0" y="0">Vout</tspan>
</text></g>
<g transform="matrix( 0.8    0   -0  0.8 688 581)" fill="#000000" >
<text stroke="none" font-family="Times" font-size="40" ><tspan x="0" y="0">R2</tspan>
</text></g>
<g transform="matrix( 0.8    0   -0  0.8 448 645)" fill="#000000" >
<text stroke="none" font-family="Times" font-size="40" ><tspan x="0" y="0">Cb</tspan>
</text></g>
<g transform="matrix( 0.8    0   -0  0.8 256 581)" fill="#000000" >
<text stroke="none" font-family="Times" font-size="40" ><tspan x="0" y="0">Re</tspan>
</text></g>
<g transform="matrix( 0.8    0   -0  0.8 224 181)" fill="#000000" >
<text stroke="none" font-family="Times" font-size="40" ><tspan x="0" y="0">C1</tspan>
</text></g>
<g transform="matrix( 0.8    0   -0  0.8   0 485)" fill="#000000" >
<text stroke="none" font-family="Times" font-size="40" ><tspan x="0" y="0">Vin</tspan>
</text></g>
<g transform="matrix( 0.8    0   -0  0.8  80 549)" fill="#000000" >
<text stroke="none" font-family="Times" font-size="40" ><tspan x="0" y="0">G</tspan>
</text></g>
</g>
</svg>
