<svg xmlns="http://www.w3.org/2000/svg"
   xmlns:xlink="http://www.w3.org/1999/xlink"
   version="1.1"
   id="amplificador_emisorcomun" width="100%" height="100%"  viewBox="-6 -6 759 583">
<desc>
XCircuit Version 3.9
File "amplificador_emisorcomun" Page 1
</desc>
<g stroke="black">
<ellipse cx="256" cy="37" rx="6" ry="6" fill="#000000" stroke="none" />
<ellipse cx="448" cy="37" rx="6" ry="6" fill="#000000" stroke="none" />
<path d="M256,69 L256,109 " fill="none" stroke-width="2" stroke-linejoin="bevel" stroke-linecap="round" stroke="#000000" />
<path d="M240,109 L272,109 272,189 240,189 240,109 " fill="none" stroke-width="2" stroke-linejoin="bevel" stroke-linecap="round" stroke="#000000" />
<path d="M256,189 L256,229 " fill="none" stroke-width="2" stroke-linejoin="bevel" stroke-linecap="round" stroke="#000000" />
<path d="M448,69 L448,109 " fill="none" stroke-width="2" stroke-linejoin="bevel" stroke-linecap="round" stroke="#000000" />
<path d="M432,109 L464,109 464,189 432,189 432,109 " fill="none" stroke-width="2" stroke-linejoin="bevel" stroke-linecap="round" stroke="#000000" />
<path d="M448,189 L448,229 " fill="none" stroke-width="2" stroke-linejoin="bevel" stroke-linecap="round" stroke="#000000" />
<ellipse cx="448" cy="229" rx="6" ry="6" fill="#000000" stroke="none" />
<ellipse cx="672" cy="229" rx="6" ry="6" fill="#000000" stroke="none" />
<path d="M104,237 L104,285 " fill="#000000" stroke-width="2" stroke-linejoin="bevel" stroke-linecap="round" stroke="#000000" />
<path d="M88,237 L88,285 " fill="#000000" stroke-width="2" stroke-linejoin="bevel" stroke-linecap="round" stroke="#000000" />
<path d="M88,261 L56,261 " fill="none" stroke-width="2" stroke-linejoin="bevel" stroke-linecap="round" stroke="#000000" />
<path d="M104,261 L136,261 " fill="none" stroke-width="2" stroke-linejoin="bevel" stroke-linecap="round" stroke="#000000" />
<path d="M88,237 L80,237 80,285 88,285 88,277 " fill="#000000" stroke-width="2" stroke-linejoin="bevel" stroke-linecap="round" stroke="#000000" />
<path d="M104,237 L112,237 112,285 104,285 " fill="#000000" stroke-width="2" stroke-linejoin="bevel" stroke-linecap="round" stroke="#000000" />
<ellipse cx="32" cy="485" rx="32" ry="32" fill="none" stroke-width="2" stroke-linejoin="bevel" stroke-linecap="round" stroke="#000000" />
<g transform="matrix( 0.8    0   -0  0.8  16 485)" fill="#000000" >
<text stroke="none" font-family="Times" font-size="40" ><tspan x="0" y="0">G</tspan>
</text></g>
<path d="M32,517 L32,549 " fill="none" stroke-width="2" stroke-linejoin="bevel" stroke-linecap="round" stroke="#000000" />
<path d="M0,549 L64,549 " fill="none" stroke-width="3" stroke-linejoin="bevel" stroke-linecap="round" stroke="#000000" />
<path d="M14,563 L50,563 " fill="none" stroke-width="3" stroke-linejoin="bevel" stroke-linecap="round" stroke="#000000" />
<path d="M28,577 L36,577 " fill="none" stroke-width="3" stroke-linejoin="bevel" stroke-linecap="round" stroke="#000000" />
<path d="M256,517 L256,549 " fill="none" stroke-width="2" stroke-linejoin="bevel" stroke-linecap="round" stroke="#000000" />
<path d="M224,549 L288,549 " fill="none" stroke-width="3" stroke-linejoin="bevel" stroke-linecap="round" stroke="#000000" />
<path d="M238,563 L274,563 " fill="none" stroke-width="3" stroke-linejoin="bevel" stroke-linecap="round" stroke="#000000" />
<path d="M252,577 L260,577 " fill="none" stroke-width="3" stroke-linejoin="bevel" stroke-linecap="round" stroke="#000000" />
<path d="M448,485 L448,517 " fill="none" stroke-width="2" stroke-linejoin="bevel" stroke-linecap="round" stroke="#000000" />
<path d="M416,517 L480,517 " fill="none" stroke-width="3" stroke-linejoin="bevel" stroke-linecap="round" stroke="#000000" />
<path d="M430,531 L466,531 " fill="none" stroke-width="3" stroke-linejoin="bevel" stroke-linecap="round" stroke="#000000" />
<path d="M444,545 L452,545 " fill="none" stroke-width="3" stroke-linejoin="bevel" stroke-linecap="round" stroke="#000000" />
<path d="M576,485 L576,517 " fill="none" stroke-width="2" stroke-linejoin="bevel" stroke-linecap="round" stroke="#000000" />
<path d="M544,517 L608,517 " fill="none" stroke-width="3" stroke-linejoin="bevel" stroke-linecap="round" stroke="#000000" />
<path d="M558,531 L594,531 " fill="none" stroke-width="3" stroke-linejoin="bevel" stroke-linecap="round" stroke="#000000" />
<path d="M572,545 L580,545 " fill="none" stroke-width="3" stroke-linejoin="bevel" stroke-linecap="round" stroke="#000000" />
<ellipse cx="96" cy="37" rx="6" ry="6" fill="#000000" stroke="none" />
<path d="M96,37 L448,37 448,85 " fill="none" stroke-width="2" stroke-linejoin="bevel" stroke-linecap="round" stroke="#000000" />
<path d="M256,325 L256,365 " fill="none" stroke-width="2" stroke-linejoin="bevel" stroke-linecap="round" stroke="#000000" />
<path d="M240,365 L272,365 272,445 240,445 240,365 " fill="none" stroke-width="2" stroke-linejoin="bevel" stroke-linecap="round" stroke="#000000" />
<path d="M256,445 L256,485 " fill="none" stroke-width="2" stroke-linejoin="bevel" stroke-linecap="round" stroke="#000000" />
<path d="M448,293 L448,333 " fill="none" stroke-width="2" stroke-linejoin="bevel" stroke-linecap="round" stroke="#000000" />
<path d="M432,333 L464,333 464,413 432,413 432,333 " fill="none" stroke-width="2" stroke-linejoin="bevel" stroke-linecap="round" stroke="#000000" />
<path d="M448,413 L448,453 " fill="none" stroke-width="2" stroke-linejoin="bevel" stroke-linecap="round" stroke="#000000" />
<path d="M552,365 L600,365 " fill="#000000" stroke-width="2" stroke-linejoin="bevel" stroke-linecap="round" stroke="#000000" />
<path d="M552,381 L600,381 " fill="#000000" stroke-width="2" stroke-linejoin="bevel" stroke-linecap="round" stroke="#000000" />
<path d="M576,381 L576,413 " fill="none" stroke-width="2" stroke-linejoin="bevel" stroke-linecap="round" stroke="#000000" />
<path d="M576,365 L576,333 " fill="none" stroke-width="2" stroke-linejoin="bevel" stroke-linecap="round" stroke="#000000" />
<path d="M552,381 L552,389 600,389 600,381 592,381 " fill="#000000" stroke-width="2" stroke-linejoin="bevel" stroke-linecap="round" stroke="#000000" />
<path d="M552,365 L552,357 600,357 600,365 " fill="#000000" stroke-width="2" stroke-linejoin="bevel" stroke-linecap="round" stroke="#000000" />
<path d="M32,453 L32,261 64,261 " fill="none" stroke-width="2" stroke-linejoin="bevel" stroke-linecap="round" stroke="#000000" />
<path d="M256,469 L256,533 " fill="none" stroke-width="2" stroke-linejoin="bevel" stroke-linecap="round" stroke="#000000" />
<path d="M256,101 L256,37 " fill="none" stroke-width="2" stroke-linejoin="bevel" stroke-linecap="round" stroke="#000000" />
<path d="M416,237 L416,285 " fill="none" stroke-width="4" stroke-linejoin="bevel" stroke-linecap="round" stroke="#000000" />
<path d="M448,229 L416,243 " fill="none" stroke-width="2" stroke-linejoin="bevel" stroke-linecap="round" stroke="#000000" />
<path d="M448,229 L448,197 " fill="none" stroke-width="2" stroke-linejoin="bevel" stroke-linecap="round" stroke="#000000" />
<path d="M416,261 L352,261 " fill="none" stroke-width="2" stroke-linejoin="bevel" stroke-linecap="round" stroke="#000000" />
<path d="M448,293 L416,279 " fill="none" stroke-width="2" stroke-linejoin="bevel" stroke-linecap="round" stroke="#000000" />
<path d="M448,293 L448,325 " fill="none" stroke-width="2" stroke-linejoin="bevel" stroke-linecap="round" stroke="#000000" />
<path d="M429,290 C437,290 438,291 448,293 C440,287 438,286 434,281 C433,285 432,287 429,290 " fill="#000000" stroke="none" />
<ellipse cx="430" cy="261" rx="44" ry="44" fill="none" stroke-width="2" stroke-linejoin="bevel" stroke-linecap="round" stroke="#000000" />
<ellipse cx="256" cy="261" rx="6" ry="6" fill="#000000" stroke="none" />
<path d="M128,261 L256,261 256,341 256,213 256,261 " fill="none" stroke-width="2" stroke-linejoin="bevel" stroke-linecap="round" stroke="#000000" />
<path d="M256,261 L368,261 " fill="none" stroke-width="2" stroke-linejoin="bevel" stroke-linecap="round" stroke="#000000" />
<path d="M464,229 L672,229 " fill="none" stroke-width="2" stroke-linejoin="bevel" stroke-linecap="round" stroke="#000000" />
<ellipse cx="448" cy="309" rx="6" ry="6" fill="#000000" stroke="none" />
<path d="M448,309 L576,309 576,341 " fill="none" stroke-width="2" stroke-linejoin="bevel" stroke-linecap="round" stroke="#000000" />
<path d="M576,405 L576,501 " fill="none" stroke-width="2" stroke-linejoin="bevel" stroke-linecap="round" stroke="#000000" />
<path d="M448,437 L448,501 " fill="none" stroke-width="2" stroke-linejoin="bevel" stroke-linecap="round" stroke="#000000" />
<g transform="matrix( 0.8    0   -0  0.8  64  21)" fill="#000000" >
<text stroke="none" font-family="Times" font-size="40" ><tspan x="0" y="0">Vcc</tspan>
</text></g>
<g transform="matrix( 0.8    0   -0  0.8 192 149)" fill="#000000" >
<text stroke="none" font-family="Times" font-size="40" ><tspan x="0" y="0">R1</tspan>
</text></g>
<g transform="matrix( 0.8    0   -0  0.8 480 149)" fill="#000000" >
<text stroke="none" font-family="Times" font-size="40" ><tspan x="0" y="0">Rc</tspan>
</text></g>
<g transform="matrix( 0.8    0   -0  0.8 688 261)" fill="#000000" >
<text stroke="none" font-family="Times" font-size="40" ><tspan x="0" y="0">Vout</tspan>
</text></g>
<g transform="matrix( 0.8    0   -0  0.8 640 373)" fill="#000000" >
<text stroke="none" font-family="Times" font-size="40" ><tspan x="0" y="0">Ce</tspan>
</text></g>
<g transform="matrix( 0.8    0   -0  0.8 384 389)" fill="#000000" >
<text stroke="none" font-family="Times" font-size="40" ><tspan x="0" y="0">Re</tspan>
</text></g>
<g transform="matrix( 0.8    0   -0  0.8 192 421)" fill="#000000" >
<text stroke="none" font-family="Times" font-size="40" ><tspan x="0" y="0">R2</tspan>
</text></g>
</g>
</svg>
