<svg xmlns="http://www.w3.org/2000/svg"
   xmlns:xlink="http://www.w3.org/1999/xlink"
   version="1.1"
   id="diodo_zener" width="100%" height="100%"  viewBox="-6 -6 715 503">
<desc>
XCircuit Version 3.9
File "diodo_zener" Page 1
</desc>
<g stroke="black">
<ellipse cx="8" cy="53" rx="6" ry="6" fill="#000000" stroke="none" />
<path d="M312,53 L272,53 " fill="none" stroke-width="2" stroke-linejoin="bevel" stroke-linecap="round" stroke="#000000" />
<path d="M272,37 L272,69 192,69 192,37 272,37 " fill="none" stroke-width="2" stroke-linejoin="bevel" stroke-linecap="round" stroke="#000000" />
<path d="M192,53 L152,53 " fill="none" stroke-width="2" stroke-linejoin="bevel" stroke-linecap="round" stroke="#000000" />
<ellipse cx="424" cy="53" rx="6" ry="6" fill="#000000" stroke="none" />
<ellipse cx="424" cy="437" rx="6" ry="6" fill="#000000" stroke="none" />
<ellipse cx="104" cy="437" rx="6" ry="6" fill="#000000" stroke="none" />
<path d="M104,437 L104,469 " fill="none" stroke-width="2" stroke-linejoin="bevel" stroke-linecap="round" stroke="#000000" />
<path d="M72,469 L136,469 " fill="none" stroke-width="3" stroke-linejoin="bevel" stroke-linecap="round" stroke="#000000" />
<path d="M86,483 L122,483 " fill="none" stroke-width="3" stroke-linejoin="bevel" stroke-linecap="round" stroke="#000000" />
<path d="M100,497 L108,497 " fill="none" stroke-width="3" stroke-linejoin="bevel" stroke-linecap="round" stroke="#000000" />
<ellipse cx="8" cy="437" rx="6" ry="6" fill="#000000" stroke="none" />
<path d="M406,261 L424,229 442,261 z" fill="none" stroke-width="3" stroke-linejoin="bevel" stroke-linecap="round" stroke="#000000" />
<path d="M406,237 L410,229 438,229 442,221 " fill="none" stroke-width="3" stroke-linejoin="bevel" stroke-linecap="round" stroke="#000000" />
<path d="M424,293 L424,261 " fill="none" stroke-width="2" stroke-linejoin="bevel" stroke-linecap="round" stroke="#000000" />
<path d="M424,197 L424,229 " fill="none" stroke-width="2" stroke-linejoin="bevel" stroke-linecap="round" stroke="#000000" />
<path d="M8,53 L168,53 " fill="none" stroke-width="2" stroke-linejoin="bevel" stroke-linecap="round" stroke="#000000" />
<path d="M296,53 L648,53 648,165 " fill="none" stroke-width="2" stroke-linejoin="bevel" stroke-linecap="round" stroke="#000000" />
<path d="M648,293 L648,437 8,437 " fill="none" stroke-width="2" stroke-linejoin="bevel" stroke-linecap="round" stroke="#000000" />
<path d="M424,437 L424,277 " fill="none" stroke-width="2" stroke-linejoin="bevel" stroke-linecap="round" stroke="#000000" />
<path d="M424,213 L424,53 " fill="none" stroke-width="2" stroke-linejoin="bevel" stroke-linecap="round" stroke="#000000" />
<path d="M184,101 L272,101 " fill="none" stroke-width="1.6" stroke-linejoin="bevel" stroke-linecap="round" stroke="#000000" />
<path d="M268,109 C278,104 281,104 296,101 C281,98 278,98 268,93 C270,99 270,103 268,109 " fill="#000000" stroke="none" />
<path d="M472,293 L472,205 " fill="none" stroke-width="1.6" stroke-linejoin="bevel" stroke-linecap="round" stroke="#000000" />
<path d="M480,209 C475,199 475,196 472,181 C469,196 469,199 464,209 C470,207 474,207 480,209 " fill="#000000" stroke="none" />
<path d="M360,181 L360,269 " fill="none" stroke-width="1.6" stroke-linejoin="bevel" stroke-linecap="round" stroke="#000000" />
<path d="M352,265 C357,275 357,278 360,293 C363,278 363,275 368,265 C362,267 358,267 352,265 " fill="#000000" stroke="none" />
<path d="M648,149 L648,189 " fill="none" stroke-width="2" stroke-linejoin="bevel" stroke-linecap="round" stroke="#000000" />
<path d="M632,189 L664,189 664,269 632,269 632,189 " fill="none" stroke-width="2" stroke-linejoin="bevel" stroke-linecap="round" stroke="#000000" />
<path d="M648,269 L648,309 " fill="none" stroke-width="2" stroke-linejoin="bevel" stroke-linecap="round" stroke="#000000" />
<path d="M600,181 L600,269 " fill="none" stroke-width="1.6" stroke-linejoin="bevel" stroke-linecap="round" stroke="#000000" />
<path d="M592,265 C597,275 597,278 600,293 C603,278 603,275 608,265 C602,267 598,267 592,265 " fill="#000000" stroke="none" />
<path d="M8,181 L8,93 " fill="none" stroke-width="1.6" stroke-linejoin="bevel" stroke-linecap="round" stroke="#000000" />
<path d="M16,97 C11,87 11,84 8,69 C5,84 5,87 0,97 C6,95 10,95 16,97 " fill="#000000" stroke="none" />
<path d="M8,309 L8,397 " fill="none" stroke-width="1.6" stroke-linejoin="bevel" stroke-linecap="round" stroke="#000000" />
<path d="M0,393 C5,403 5,406 8,421 C11,406 11,403 16,393 C10,395 6,395 0,393 " fill="#000000" stroke="none" />
<path d="M8,325 L8,165 " fill="none" stroke-width="2" stroke-linejoin="bevel" stroke-linecap="round" stroke="#000000" />
<g transform="matrix( 0.8    0   -0  0.8 216  21)" fill="#000000" >
<text stroke="none" font-family="Times" font-size="40" ><tspan x="0" y="0">R</tspan>
</text></g>
<g transform="matrix( 0.8    0   -0  0.8 216 133)" fill="#000000" >
<text stroke="none" font-family="Times" font-size="40" ><tspan x="0" y="0">Ir</tspan>
</text></g>
<g transform="matrix( 0.8    0   -0  0.8 312 245)" fill="#000000" >
<text stroke="none" font-family="Times" font-size="40" ><tspan x="0" y="0">Iz</tspan>
</text></g>
<g transform="matrix( 0.8    0   -0  0.8 488 245)" fill="#000000" >
<text stroke="none" font-family="Times" font-size="40" ><tspan x="0" y="0">Vz</tspan>
</text></g>
<g transform="matrix( 0.8    0   -0  0.8 568 245)" fill="#000000" >
<text stroke="none" font-family="Times" font-size="40" ><tspan x="0" y="0">Il</tspan>
</text></g>
<g transform="matrix( 0.8    0   -0  0.8 680 245)" fill="#000000" >
<text stroke="none" font-family="Times" font-size="40" ><tspan x="0" y="0">Rl</tspan>
</text></g>
<g transform="matrix( 0.8    0   -0  0.8  40 245)" fill="#000000" >
<text stroke="none" font-family="Times" font-size="40" ><tspan x="0" y="0">Vs</tspan>
</text></g>
<g transform="matrix( 0.8    0   -0  0.8   8 485)" fill="#000000" >
<text stroke="none" font-family="Times" font-size="40" ><tspan x="0" y="0">A</tspan>
</text></g>
</g>
</svg>
