<svg xmlns="http://www.w3.org/2000/svg"
   xmlns:xlink="http://www.w3.org/1999/xlink"
   version="1.1"
   id="valvulas_impedancias" width="100%" height="100%"  viewBox="-6 -6 1350 679">
<desc>
XCircuit Version 3.9
File "valvulas_impedancias" Page 1
</desc>
<g stroke="black">
<path d="M336,213 A48,48 0 0,0 240,213 " fill="none" stroke-width="2" stroke-linejoin="bevel" stroke-linecap="round" stroke="#000000" />
<path d="M240,293 A48,48 0 0,0 336,293 " fill="none" stroke-width="2" stroke-linejoin="bevel" stroke-linecap="round" stroke="#000000" />
<path d="M240,213 L240,293 " fill="none" stroke-width="2" stroke-linejoin="bevel" stroke-linecap="round" stroke="#000000" />
<path d="M336,293 L336,213 " fill="none" stroke-width="2" stroke-linejoin="bevel" stroke-linecap="round" stroke="#000000" />
<path d="M304,313 A16,16 0 0,0 272,313 " fill="none" stroke-width="2" stroke-linejoin="bevel" stroke-linecap="round" stroke="#000000" />
<path d="M272,309 L272,357 256,365 256,373 " fill="none" stroke-width="2" stroke-linejoin="bevel" stroke-linecap="round" stroke="#000000" />
<path d="M304,309 L304,357 320,365 320,373 " fill="none" stroke-width="2" stroke-linejoin="bevel" stroke-linecap="round" stroke="#000000" />
<path d="M312,309 L384,309 " fill="none" stroke-width="2" stroke-linejoin="bevel" stroke-linecap="round" stroke="#000000" />
<path d="M288,197 L288,149 " fill="none" stroke-width="2" stroke-linejoin="bevel" stroke-linecap="round" stroke="#000000" />
<path d="M272,245 L304,245 " fill="none" style="stroke-dasharray:8,8" stroke-width="2" stroke-linecap="butt" stroke-linejoin="bevel" stroke="#000000" />
<path d="M264,269 L312,269 " fill="none" style="stroke-dasharray:8,8" stroke-width="2" stroke-linecap="butt" stroke-linejoin="bevel" stroke="#000000" />
<path d="M264,221 L312,221 " fill="none" style="stroke-dasharray:8,8" stroke-width="2" stroke-linecap="butt" stroke-linejoin="bevel" stroke="#000000" />
<path d="M312,309 A24,24 0 0,0 264,309 " fill="none" stroke-width="4" stroke-linejoin="bevel" stroke-linecap="round" stroke="#000000" />
<path d="M272,197 L304,197 " fill="none" stroke-width="4" stroke-linejoin="bevel" stroke-linecap="round" stroke="#000000" />
<path d="M264,237 L272,245 " fill="none" stroke-width="2" stroke-linejoin="bevel" stroke-linecap="round" stroke="#000000" />
<path d="M304,245 L312,237 " fill="none" stroke-width="2" stroke-linejoin="bevel" stroke-linecap="round" stroke="#000000" />
<path d="M312,213 L312,221 " fill="none" stroke-width="2" stroke-linejoin="bevel" stroke-linecap="round" stroke="#000000" />
<path d="M264,213 L264,221 " fill="none" stroke-width="2" stroke-linejoin="bevel" stroke-linecap="round" stroke="#000000" />
<path d="M312,221 L360,221 368,213 384,213 " fill="none" stroke-width="2" stroke-linejoin="bevel" stroke-linecap="round" stroke="#000000" />
<path d="M272,245 L192,245 " fill="none" stroke-width="2" stroke-linejoin="bevel" stroke-linecap="round" stroke="#000000" />
<path d="M312,269 L360,269 368,277 384,277 " fill="none" stroke-width="2" stroke-linejoin="bevel" stroke-linecap="round" stroke="#000000" />
<path d="M256,613 L256,645 " fill="none" stroke-width="2" stroke-linejoin="bevel" stroke-linecap="round" stroke="#000000" />
<path d="M224,645 L288,645 " fill="none" stroke-width="3" stroke-linejoin="bevel" stroke-linecap="round" stroke="#000000" />
<path d="M238,659 L274,659 " fill="none" stroke-width="3" stroke-linejoin="bevel" stroke-linecap="round" stroke="#000000" />
<path d="M252,673 L260,673 " fill="none" stroke-width="3" stroke-linejoin="bevel" stroke-linecap="round" stroke="#000000" />
<path d="M224,245 L0,245 " fill="none" stroke-width="2" stroke-linejoin="bevel" stroke-linecap="round" stroke="#000000" />
<path d="M256,373 L256,629 " fill="none" stroke-width="2" stroke-linejoin="bevel" stroke-linecap="round" stroke="#000000" />
<path d="M384,213 L480,213 480,645 " fill="none" stroke-width="2" stroke-linejoin="bevel" stroke-linecap="round" stroke="#000000" />
<path d="M608,107 C628,111 628,127 608,131 " fill="none" stroke-width="3" stroke-linejoin="bevel" stroke-linecap="round" stroke="#000000" />
<path d="M608,127 C628,131 628,147 608,151 " fill="none" stroke-width="3" stroke-linejoin="bevel" stroke-linecap="round" stroke="#000000" />
<path d="M608,147 C628,151 628,167 608,171 " fill="none" stroke-width="3" stroke-linejoin="bevel" stroke-linecap="round" stroke="#000000" />
<path d="M608,167 C628,171 628,187 608,191 " fill="none" stroke-width="3" stroke-linejoin="bevel" stroke-linecap="round" stroke="#000000" />
<path d="M608,167 C588,163 588,175 608,171 " fill="none" stroke-width="3" stroke-linejoin="bevel" stroke-linecap="round" stroke="#000000" />
<path d="M608,127 C588,123 588,135 608,131 " fill="none" stroke-width="3" stroke-linejoin="bevel" stroke-linecap="round" stroke="#000000" />
<path d="M608,147 C588,143 588,155 608,151 " fill="none" stroke-width="3" stroke-linejoin="bevel" stroke-linecap="round" stroke="#000000" />
<path d="M608,191 L608,213 " fill="none" stroke-width="2" stroke-linejoin="bevel" stroke-linecap="round" stroke="#000000" />
<path d="M608,107 L608,85 " fill="none" stroke-width="2" stroke-linejoin="bevel" stroke-linecap="round" stroke="#000000" />
<path d="M288,149 L288,53 608,53 608,85 608,101 " fill="none" stroke-width="2" stroke-linejoin="bevel" stroke-linecap="round" stroke="#000000" />
<path d="M608,213 L608,645 " fill="none" stroke-width="2" stroke-linejoin="bevel" stroke-linecap="round" stroke="#000000" />
<path d="M746,85 L746,21 " fill="none" stroke-width="3" stroke-linejoin="bevel" stroke-linecap="round" stroke="#000000" />
<path d="M758,85 L758,21 " fill="none" stroke-width="3" stroke-linejoin="bevel" stroke-linecap="round" stroke="#000000" />
<path d="M816,53 L758,53 " fill="none" stroke-width="2" stroke-linejoin="bevel" stroke-linecap="round" stroke="#000000" />
<path d="M688,53 L746,53 " fill="none" stroke-width="2" stroke-linejoin="bevel" stroke-linecap="round" stroke="#000000" />
<path d="M608,53 L704,53 " fill="none" stroke-width="2" stroke-linejoin="bevel" stroke-linecap="round" stroke="#000000" />
<path d="M816,181 L816,85 " fill="none" stroke-width="2" stroke-linejoin="bevel" stroke-linecap="round" stroke="#000000" />
<path d="M808,137 L824,137 " fill="none" stroke-width="2" stroke-linejoin="bevel" stroke-linecap="round" stroke="#000000" />
<path d="M808,129 L824,129 " fill="none" stroke-width="2" stroke-linejoin="bevel" stroke-linecap="round" stroke="#000000" />
<path d="M816,53 L816,101 " fill="none" stroke-width="2" stroke-linejoin="bevel" stroke-linecap="round" stroke="#000000" />
<path d="M788,161 L830,119 " fill="none" stroke-width="1.6" stroke-linejoin="bevel" stroke-linecap="round" stroke="#000000" />
<path d="M830,130 C834,120 836,117 844,105 C832,113 829,115 819,119 C824,122 827,125 830,130 " fill="#000000" stroke="none" />
<path d="M816,357 L816,389 " fill="none" stroke-width="2" stroke-linejoin="bevel" stroke-linecap="round" stroke="#000000" />
<path d="M784,389 L848,389 " fill="none" stroke-width="3" stroke-linejoin="bevel" stroke-linecap="round" stroke="#000000" />
<path d="M798,403 L834,403 " fill="none" stroke-width="3" stroke-linejoin="bevel" stroke-linecap="round" stroke="#000000" />
<path d="M812,417 L820,417 " fill="none" stroke-width="3" stroke-linejoin="bevel" stroke-linecap="round" stroke="#000000" />
<path d="M816,165 L816,373 " fill="none" stroke-width="2" stroke-linejoin="bevel" stroke-linecap="round" stroke="#000000" />
<path d="M896,53 C896,33 912,33 912,53 " fill="none" stroke-width="3" stroke-linejoin="bevel" stroke-linecap="round" stroke="#000000" />
<path d="M912,53 C912,33 928,33 928,53 " fill="none" stroke-width="3" stroke-linejoin="bevel" stroke-linecap="round" stroke="#000000" />
<path d="M928,53 C928,33 944,33 944,53 " fill="none" stroke-width="3" stroke-linejoin="bevel" stroke-linecap="round" stroke="#000000" />
<path d="M944,53 C944,33 960,33 960,53 " fill="none" stroke-width="3" stroke-linejoin="bevel" stroke-linecap="round" stroke="#000000" />
<path d="M896,53 L864,53 " fill="none" stroke-width="2" stroke-linejoin="bevel" stroke-linecap="round" stroke="#000000" />
<path d="M960,53 L992,53 " fill="none" stroke-width="2" stroke-linejoin="bevel" stroke-linecap="round" stroke="#000000" />
<path d="M816,53 L880,53 " fill="none" stroke-width="2" stroke-linejoin="bevel" stroke-linecap="round" stroke="#000000" />
<path d="M992,53 L1024,53 1024,117 928,117 928,85 " fill="none" stroke-width="2" stroke-linejoin="bevel" stroke-linecap="round" stroke="#000000" />
<path d="M928,109 L928,65 " fill="none" stroke-width="1.6" stroke-linejoin="bevel" stroke-linecap="round" stroke="#000000" />
<path d="M936,75 C931,65 931,62 928,47 C925,62 925,65 920,75 C926,73 930,73 936,75 " fill="#000000" stroke="none" />
<path d="M1316,61 C1326,56 1329,56 1344,53 C1329,50 1326,50 1316,45 C1318,51 1318,55 1316,61 " fill="#000000" stroke="none" />
<path d="M1024,53 L1296,53 " fill="none" stroke-width="2" stroke-linejoin="bevel" stroke-linecap="round" stroke="#000000" />
<path d="M1312,53 L1280,53 " fill="none" stroke-width="2" stroke-linejoin="bevel" stroke-linecap="round" stroke="#000000" />
<path d="M1120,53 L1120,357 1120,341 " fill="none" stroke-width="2" stroke-linejoin="bevel" stroke-linecap="round" stroke="#000000" />
<path d="M1120,357 L1120,389 " fill="none" stroke-width="2" stroke-linejoin="bevel" stroke-linecap="round" stroke="#000000" />
<path d="M1088,389 L1152,389 " fill="none" stroke-width="3" stroke-linejoin="bevel" stroke-linecap="round" stroke="#000000" />
<path d="M1102,403 L1138,403 " fill="none" stroke-width="3" stroke-linejoin="bevel" stroke-linecap="round" stroke="#000000" />
<path d="M1116,417 L1124,417 " fill="none" stroke-width="3" stroke-linejoin="bevel" stroke-linecap="round" stroke="#000000" />
<path d="M1120,85 L1120,181 " fill="none" stroke-width="2" stroke-linejoin="bevel" stroke-linecap="round" stroke="#000000" />
<path d="M1128,129 L1112,129 " fill="none" stroke-width="2" stroke-linejoin="bevel" stroke-linecap="round" stroke="#000000" />
<path d="M1128,137 L1112,137 " fill="none" stroke-width="2" stroke-linejoin="bevel" stroke-linecap="round" stroke="#000000" />
<path d="M1092,161 L1134,119 " fill="none" stroke-width="1.6" stroke-linejoin="bevel" stroke-linecap="round" stroke="#000000" />
<path d="M1134,130 C1138,120 1140,117 1148,105 C1136,113 1133,115 1123,119 C1128,122 1131,125 1134,130 " fill="#000000" stroke="none" />
<path d="M1248,101 C1268,101 1268,117 1248,117 " fill="none" stroke-width="3" stroke-linejoin="bevel" stroke-linecap="round" stroke="#000000" />
<path d="M1248,117 C1268,117 1268,133 1248,133 " fill="none" stroke-width="3" stroke-linejoin="bevel" stroke-linecap="round" stroke="#000000" />
<path d="M1248,133 C1268,133 1268,149 1248,149 " fill="none" stroke-width="3" stroke-linejoin="bevel" stroke-linecap="round" stroke="#000000" />
<path d="M1248,149 C1268,149 1268,165 1248,165 " fill="none" stroke-width="3" stroke-linejoin="bevel" stroke-linecap="round" stroke="#000000" />
<path d="M1248,101 L1248,69 " fill="none" stroke-width="2" stroke-linejoin="bevel" stroke-linecap="round" stroke="#000000" />
<path d="M1248,165 L1248,197 " fill="none" stroke-width="2" stroke-linejoin="bevel" stroke-linecap="round" stroke="#000000" />
<path d="M1248,53 L1248,101 " fill="none" stroke-width="2" stroke-linejoin="bevel" stroke-linecap="round" stroke="#000000" />
<path d="M1248,197 L1248,373 " fill="none" stroke-width="2" stroke-linejoin="bevel" stroke-linecap="round" stroke="#000000" />
<path d="M1248,357 L1248,389 " fill="none" stroke-width="2" stroke-linejoin="bevel" stroke-linecap="round" stroke="#000000" />
<path d="M1216,389 L1280,389 " fill="none" stroke-width="3" stroke-linejoin="bevel" stroke-linecap="round" stroke="#000000" />
<path d="M1230,403 L1266,403 " fill="none" stroke-width="3" stroke-linejoin="bevel" stroke-linecap="round" stroke="#000000" />
<path d="M1244,417 L1252,417 " fill="none" stroke-width="3" stroke-linejoin="bevel" stroke-linecap="round" stroke="#000000" />
<g transform="matrix( 0.8    0   -0  0.8 512 149)" fill="#000000" >
<text stroke="none" font-family="Times" font-size="40" ><tspan x="0" y="0">RFC1</tspan>
</text></g>
<g transform="matrix( 0.8    0   -0  0.8 720 197)" fill="#000000" >
<text stroke="none" font-family="Times" font-size="40" ><tspan x="0" y="0">Placa</tspan>
</text></g>
<g transform="matrix( 0.8    0   -0  0.8 992 197)" fill="#000000" >
<text stroke="none" font-family="Times" font-size="40" ><tspan x="0" y="0">Sintonia</tspan>
</text></g>
<g transform="matrix( 0.8    0   -0  0.8 1168 149)" fill="#000000" >
<text stroke="none" font-family="Times" font-size="40" ><tspan x="0" y="0">RFC2</tspan>
</text></g>
<g transform="matrix( 0.8    0   -0  0.8 1264  21)" fill="#000000" >
<text stroke="none" font-family="Times" font-size="40" ><tspan x="0" y="0">Salida</tspan>
</text></g>
<g transform="matrix( 0.8    0   -0  0.8 464 661)" fill="#000000" >
<text stroke="none" font-family="Times" font-size="40" ><tspan x="0" y="0">+ Vrp</tspan>
</text></g>
<g transform="matrix( 0.8    0   -0  0.8 608 661)" fill="#000000" >
<text stroke="none" font-family="Times" font-size="40" ><tspan x="0" y="0">+ At</tspan>
</text></g>
</g>
</svg>
