<svg xmlns="http://www.w3.org/2000/svg"
   xmlns:xlink="http://www.w3.org/1999/xlink"
   version="1.1"
   id="XC12548.lGbu0g" width="100%" height="100%"  viewBox="-6 -6 710 350">
<desc>
XCircuit Version 3.9
File "XC12548.lGbu0g" Page 1
</desc>
<g stroke="black">
<g transform="matrix( 0.3    0   -0  0.3  96 344)" fill="#000000" >
<text stroke="none" font-family="Helvetica" font-size="40" ><tspan x="0" y="0">0.1</tspan>
</text></g>
<g transform="matrix( 0.3    0   -0  0.3 128 344)" fill="#000000" >
<text stroke="none" font-family="Helvetica" font-size="40" ><tspan x="0" y="0">0.2</tspan>
</text></g>
<g transform="matrix( 0.3    0   -0  0.3 160 344)" fill="#000000" >
<text stroke="none" font-family="Helvetica" font-size="40" ><tspan x="0" y="0">0.3</tspan>
</text></g>
<g transform="matrix( 0.3    0   -0  0.3 192 344)" fill="#000000" >
<text stroke="none" font-family="Helvetica" font-size="40" ><tspan x="0" y="0">0.4</tspan>
</text></g>
<g transform="matrix( 0.3    0   -0  0.3 224 344)" fill="#000000" >
<text stroke="none" font-family="Helvetica" font-size="40" ><tspan x="0" y="0">0.5</tspan>
</text></g>
<g transform="matrix( 0.3    0   -0  0.3 256 344)" fill="#000000" >
<text stroke="none" font-family="Helvetica" font-size="40" ><tspan x="0" y="0">0.6</tspan>
</text></g>
<g transform="matrix( 0.3    0   -0  0.3 288 344)" fill="#000000" >
<text stroke="none" font-family="Helvetica" font-size="40" ><tspan x="0" y="0">0.7</tspan>
</text></g>
<g transform="matrix( 0.3    0   -0  0.3 320 344)" fill="#000000" >
<text stroke="none" font-family="Helvetica" font-size="40" ><tspan x="0" y="0">0.8</tspan>
</text></g>
<g transform="matrix( 0.3    0   -0  0.3 352 344)" fill="#000000" >
<text stroke="none" font-family="Helvetica" font-size="40" ><tspan x="0" y="0">0.9</tspan>
</text></g>
<g transform="matrix( 0.3    0   -0  0.3 416 344)" fill="#000000" >
<text stroke="none" font-family="Helvetica" font-size="40" ><tspan x="0" y="0">1.1</tspan>
</text></g>
<g transform="matrix( 0.3    0   -0  0.3 448 344)" fill="#000000" >
<text stroke="none" font-family="Helvetica" font-size="40" ><tspan x="0" y="0">1.2</tspan>
</text></g>
<g transform="matrix( 0.3    0   -0  0.3 480 344)" fill="#000000" >
<text stroke="none" font-family="Helvetica" font-size="40" ><tspan x="0" y="0">1.3</tspan>
</text></g>
<g transform="matrix( 0.3    0   -0  0.3 512 344)" fill="#000000" >
<text stroke="none" font-family="Helvetica" font-size="40" ><tspan x="0" y="0">1.4</tspan>
</text></g>
<g transform="matrix( 0.3    0   -0  0.3 544 344)" fill="#000000" >
<text stroke="none" font-family="Helvetica" font-size="40" ><tspan x="0" y="0">1.5</tspan>
</text></g>
<g transform="matrix( 0.3    0   -0  0.3 576 344)" fill="#000000" >
<text stroke="none" font-family="Helvetica" font-size="40" ><tspan x="0" y="0">1.6</tspan>
</text></g>
<g transform="matrix( 0.3    0   -0  0.3 608 344)" fill="#000000" >
<text stroke="none" font-family="Helvetica" font-size="40" ><tspan x="0" y="0">1.7</tspan>
</text></g>
<g transform="matrix( 0.3    0   -0  0.3 640 344)" fill="#000000" >
<text stroke="none" font-family="Helvetica" font-size="40" ><tspan x="0" y="0">1.8</tspan>
</text></g>
<g transform="matrix( 0.3    0   -0  0.3 672 344)" fill="#000000" >
<text stroke="none" font-family="Helvetica" font-size="40" ><tspan x="0" y="0">1.9</tspan>
</text></g>
<g transform="matrix( 0.3    0   -0  0.3  16 264)" fill="#000000" >
<text stroke="none" font-family="Helvetica" font-size="40" ><tspan x="0" y="0">0.2</tspan>
</text></g>
<g transform="matrix( 0.3    0   -0  0.3  16 200)" fill="#000000" >
<text stroke="none" font-family="Helvetica" font-size="40" ><tspan x="0" y="0">0.4</tspan>
</text></g>
<g transform="matrix( 0.3    0   -0  0.3  16 136)" fill="#000000" >
<text stroke="none" font-family="Helvetica" font-size="40" ><tspan x="0" y="0">0.6</tspan>
</text></g>
<g transform="matrix( 0.3    0   -0  0.3  16  72)" fill="#000000" >
<text stroke="none" font-family="Helvetica" font-size="40" ><tspan x="0" y="0">0.8</tspan>
</text></g>
<g transform="matrix( 0.3    0   -0  0.3  16   8)" fill="#000000" >
<text stroke="none" font-family="Helvetica" font-size="40" ><tspan x="0" y="0">1</tspan>
</text></g>
<g transform="matrix( 0.3    0   -0  0.3  32  24)" fill="#000000" >
<text stroke="none" font-family="Helvetica" font-size="40" ><tspan x="0" y="0">S</tspan>
</text></g>
<g transform="matrix( 0.3    0   -0  0.3  48   8)" fill="#000000" >
<text stroke="none" font-family="Helvetica" font-size="40" ><tspan x="0" y="0">H</tspan>
</text></g>
<g transform="matrix( 0.3    0   -0  0.3  48  40)" fill="#000000" >
<text stroke="none" font-family="Helvetica" font-size="40" ><tspan x="0" y="0">Q1</tspan>
</text></g>
<g transform="matrix( 0.3    0   -0  0.3 352 296)" fill="#000000" >
<text stroke="none" font-family="Helvetica" font-size="40" ><tspan x="0" y="0">Qp=10</tspan>
</text></g>
<g transform="matrix( 0.3    0   -0  0.3 432 232)" fill="#000000" >
<text stroke="none" font-family="Helvetica" font-size="40" ><tspan x="0" y="0">Qp=6</tspan>
</text></g>
<g transform="matrix( 0.3    0   -0  0.3 480 168)" fill="#000000" >
<text stroke="none" font-family="Helvetica" font-size="40" ><tspan x="0" y="0">Qp=2</tspan>
</text></g>
<path d="M384,8 C304,104 320,328 128,328 " fill="none" stroke-width="2" stroke-linejoin="bevel" stroke-linecap="round" stroke="#000000" />
<path d="M384,8 C416,8 480,296 704,296 " fill="none" stroke-width="2" stroke-linejoin="bevel" stroke-linecap="round" stroke="#000000" />
<path d="M384,8 C336,72 416,328 192,328 " fill="none" stroke-width="2" stroke-linejoin="bevel" stroke-linecap="round" stroke="#000000" />
<path d="M384,8 C432,72 320,328 624,328 " fill="none" stroke-width="2" stroke-linejoin="bevel" stroke-linecap="round" stroke="#000000" />
<path d="M384,8 C368,8 432,328 256,328 " fill="none" stroke-width="2" stroke-linejoin="bevel" stroke-linecap="round" stroke="#000000" />
<path d="M384,8 C448,40 304,328 672,328 " fill="none" stroke-width="2" stroke-linejoin="bevel" stroke-linecap="round" stroke="#000000" />
<path d="M256,328 L0,328 64,328 " fill="none" stroke-width="2" stroke-linejoin="bevel" stroke-linecap="round" stroke="#000000" />
<path d="M624,328 L704,328 " fill="none" stroke-width="2" stroke-linejoin="bevel" stroke-linecap="round" stroke="#000000" />
</g>
</svg>
