<?xml version="1.0" encoding="utf-8"?>
<!-- Generator: Adobe Illustrator 17.0.0, SVG Export Plug-In . SVG Version: 6.00 Build 0)  -->
<!DOCTYPE svg PUBLIC "-//W3C//DTD SVG 1.1//EN" "http://www.w3.org/Graphics/SVG/1.1/DTD/svg11.dtd">
<svg version="1.1" id="Layer_1" xmlns="http://www.w3.org/2000/svg" xmlns:xlink="http://www.w3.org/1999/xlink" x="0px" y="0px"
	 width="463px" height="543px" viewBox="0 0 463 543" style="enable-background:new 0 0 463 543;" xml:space="preserve">
<style type="text/css">
	.st0{fill:none;}
	.st1{opacity:0.7;fill:url(#SVGID_1_);}
	.st2{opacity:0.7;fill:url(#SVGID_2_);}
	.st3{opacity:0.7;fill:url(#SVGID_3_);}
	.st4{opacity:0.7;fill:url(#SVGID_4_);}
	.st5{opacity:0.7;fill:url(#SVGID_5_);}
	.st6{opacity:0.7;fill:url(#SVGID_6_);}
	.st7{opacity:0.7;fill:url(#SVGID_7_);}
	.st8{opacity:0.7;fill:url(#SVGID_8_);}
	.st9{opacity:0.7;fill:url(#SVGID_9_);}
	.st10{opacity:0.7;fill:url(#SVGID_10_);}
	.st11{opacity:0.7;fill:url(#SVGID_11_);}
	.st12{opacity:0.7;fill:url(#SVGID_12_);}
	.st13{opacity:0.7;fill:url(#SVGID_13_);}
	.st14{opacity:0.7;fill:url(#SVGID_14_);}
	.st15{opacity:0.7;fill:url(#SVGID_15_);}
	.st16{opacity:0.7;fill:url(#SVGID_16_);}
	.st17{opacity:0.7;fill:url(#SVGID_17_);}
	.st18{opacity:0.7;fill:url(#SVGID_18_);}
	.st19{opacity:0.7;fill:url(#SVGID_19_);}
	.st20{opacity:0.7;fill:url(#SVGID_20_);}
	.st21{opacity:0.7;fill:url(#SVGID_21_);}
	.st22{opacity:0.7;fill:url(#SVGID_22_);}
	.st23{opacity:0.7;fill:url(#SVGID_23_);}
	.st24{opacity:0.7;fill:url(#SVGID_24_);}
	.st25{opacity:0.7;fill:url(#SVGID_25_);}
	.st26{opacity:0.7;fill:url(#SVGID_26_);}
	.st27{opacity:0.7;fill:url(#SVGID_27_);}
	.st28{opacity:0.7;fill:url(#SVGID_28_);}
	.st29{opacity:0.7;fill:url(#SVGID_29_);}
	.st30{opacity:0.7;fill:url(#SVGID_30_);}
	.st31{fill:url(#SVGID_31_);stroke:#000000;stroke-width:0.9921;stroke-miterlimit:10;}
	.st32{fill:url(#SVGID_32_);stroke:#000000;stroke-width:0.9921;stroke-miterlimit:10;}
	.st33{fill:#BBFBFF;}
	.st34{fill:none;stroke:#000000;stroke-width:0.7087;stroke-miterlimit:10;}
	.st35{fill:url(#SVGID_33_);}
	.st36{fill:none;stroke:#000000;stroke-width:1.4173;stroke-miterlimit:10;}
	.st37{fill:#FFFFFF;stroke:#000000;stroke-miterlimit:10;}
	.st38{fill:url(#SVGID_34_);}
	.st39{fill:#C6ACAC;stroke:#000000;stroke-miterlimit:10;}
	.st40{fill:url(#New_Pattern_2);}
	.st41{fill:url(#SVGID_35_);}
	.st42{fill:url(#SVGID_36_);}
	.st43{fill:none;stroke:#000000;stroke-miterlimit:10;}
	.st44{fill:url(#SVGID_37_);}
	.st45{fill:url(#SVGID_38_);}
	.st46{fill:url(#SVGID_39_);}
	.st47{fill:url(#SVGID_40_);}
	.st48{fill:url(#SVGID_41_);}
	.st49{fill:url(#SVGID_42_);}
	.st50{fill:url(#SVGID_43_);}
	.st51{fill:url(#SVGID_44_);}
	.st52{fill:url(#SVGID_45_);}
	.st53{fill:url(#SVGID_46_);}
	.st54{fill:url(#SVGID_47_);}
	.st55{fill:url(#SVGID_48_);}
	.st56{fill:#FF0000;}
	.st57{fill:none;stroke:#FF0000;stroke-miterlimit:10;}
	.st58{fill:none;stroke:#0013FF;stroke-width:0.9921;stroke-miterlimit:10;}
	.st59{fill:none;stroke:#000000;stroke-width:0.9921;stroke-miterlimit:10;}
	.st60{fill:none;stroke:#1800FF;stroke-miterlimit:10;}
	.st61{fill:url(#SVGID_49_);}
	.st62{fill:url(#SVGID_50_);}
	.st63{fill:url(#SVGID_51_);}
	.st64{fill:url(#SVGID_52_);}
	.st65{fill:url(#SVGID_53_);}
	.st66{fill:url(#SVGID_54_);}
	.st67{fill:url(#SVGID_55_);}
	.st68{fill:url(#SVGID_56_);}
	.st69{font-family:'DejaVuSans';}
	.st70{font-size:8.5039;}
	.st71{opacity:0.3;fill:#C6ACAC;stroke:#000000;stroke-miterlimit:10;}
</style>
<pattern  x="-224" y="560" width="9.791" height="8.119" patternUnits="userSpaceOnUse" id="New_Pattern_2" viewBox="5.333 -12.931 9.791 8.119" style="overflow:visible;">
	<g>
		<polygon class="st0" points="5.333,-12.931 15.124,-12.931 15.124,-4.813 5.333,-4.813 		"/>
		<g>
			
				<radialGradient id="SVGID_1_" cx="-54.3965" cy="-16909.4473" r="2.3787" gradientTransform="matrix(1 0 0 -1 65.6875 -16923.3125)" gradientUnits="userSpaceOnUse">
				<stop  offset="0" style="stop-color:#FFFFFF"/>
				<stop  offset="0.0859" style="stop-color:#F7F7F7"/>
				<stop  offset="0.218" style="stop-color:#E2E2E2"/>
				<stop  offset="0.3799" style="stop-color:#BEBEBE"/>
				<stop  offset="0.5653" style="stop-color:#8E8E8E"/>
				<stop  offset="0.7705" style="stop-color:#4F4F4F"/>
				<stop  offset="0.9894" style="stop-color:#040404"/>
				<stop  offset="1" style="stop-color:#000000"/>
			</radialGradient>
			<path class="st1" d="M14.041-13.866c0-1.07-1.231-1.938-2.75-1.938s-2.75,0.867-2.75,1.938s1.231,1.938,2.75,1.938
				S14.041-12.796,14.041-13.866z"/>
			
				<radialGradient id="SVGID_2_" cx="-59.0215" cy="-16908.5723" r="2.6579" gradientTransform="matrix(1 0 0 -1 65.6875 -16923.3125)" gradientUnits="userSpaceOnUse">
				<stop  offset="0" style="stop-color:#FFFFFF"/>
				<stop  offset="0.0859" style="stop-color:#F7F7F7"/>
				<stop  offset="0.218" style="stop-color:#E2E2E2"/>
				<stop  offset="0.3799" style="stop-color:#BEBEBE"/>
				<stop  offset="0.5653" style="stop-color:#8E8E8E"/>
				<stop  offset="0.7705" style="stop-color:#4F4F4F"/>
				<stop  offset="0.9894" style="stop-color:#040404"/>
				<stop  offset="1" style="stop-color:#000000"/>
			</radialGradient>
			<path class="st2" d="M9.416-14.741c0,1.415-1.231,2.563-2.75,2.563s-2.75-1.147-2.75-2.563s1.231-2.563,2.75-2.563
				S9.416-16.156,9.416-14.741z"/>
		</g>
		<g>
			
				<radialGradient id="SVGID_3_" cx="-49.2307" cy="-16908.5723" r="2.6579" gradientTransform="matrix(1 0 0 -1 65.6875 -16923.3125)" gradientUnits="userSpaceOnUse">
				<stop  offset="0" style="stop-color:#FFFFFF"/>
				<stop  offset="0.0859" style="stop-color:#F7F7F7"/>
				<stop  offset="0.218" style="stop-color:#E2E2E2"/>
				<stop  offset="0.3799" style="stop-color:#BEBEBE"/>
				<stop  offset="0.5653" style="stop-color:#8E8E8E"/>
				<stop  offset="0.7705" style="stop-color:#4F4F4F"/>
				<stop  offset="0.9894" style="stop-color:#040404"/>
				<stop  offset="1" style="stop-color:#000000"/>
			</radialGradient>
			<path class="st3" d="M19.207-14.741c0,1.415-1.231,2.563-2.75,2.563s-2.75-1.147-2.75-2.563s1.231-2.563,2.75-2.563
				S19.207-16.156,19.207-14.741z"/>
		</g>
		<g>
			
				<radialGradient id="SVGID_4_" cx="-59.0419" cy="-16908.1934" r="2.875" gradientTransform="matrix(1 0 0 -1 65.6875 -16923.3125)" gradientUnits="userSpaceOnUse">
				<stop  offset="0" style="stop-color:#FFFFFF"/>
				<stop  offset="0.0859" style="stop-color:#F7F7F7"/>
				<stop  offset="0.218" style="stop-color:#E2E2E2"/>
				<stop  offset="0.3799" style="stop-color:#BEBEBE"/>
				<stop  offset="0.5653" style="stop-color:#8E8E8E"/>
				<stop  offset="0.7705" style="stop-color:#4F4F4F"/>
				<stop  offset="0.9894" style="stop-color:#040404"/>
				<stop  offset="1" style="stop-color:#000000"/>
			</radialGradient>
			<path class="st4" d="M9.521-15.119c0-1.588-1.287-2.875-2.875-2.875s-2.875,1.287-2.875,2.875s1.287,2.875,2.875,2.875
				S9.521-13.531,9.521-15.119z"/>
			
				<radialGradient id="SVGID_5_" cx="-57.4169" cy="-16910.6934" r="3.0233" gradientTransform="matrix(1 0 0 -1 65.6875 -16923.3125)" gradientUnits="userSpaceOnUse">
				<stop  offset="0" style="stop-color:#FFFFFF"/>
				<stop  offset="0.0859" style="stop-color:#F7F7F7"/>
				<stop  offset="0.218" style="stop-color:#E2E2E2"/>
				<stop  offset="0.3799" style="stop-color:#BEBEBE"/>
				<stop  offset="0.5653" style="stop-color:#8E8E8E"/>
				<stop  offset="0.7705" style="stop-color:#4F4F4F"/>
				<stop  offset="0.9894" style="stop-color:#040404"/>
				<stop  offset="1" style="stop-color:#000000"/>
			</radialGradient>
			<path class="st5" d="M11.646-12.619c0-1.45-1.511-2.625-3.375-2.625s-3.375,1.175-3.375,2.625s1.511,2.625,3.375,2.625
				S11.646-11.169,11.646-12.619z"/>
			
				<radialGradient id="SVGID_6_" cx="-59.2919" cy="-16913.5059" r="2.3787" gradientTransform="matrix(1 0 0 -1 65.6875 -16923.3125)" gradientUnits="userSpaceOnUse">
				<stop  offset="0" style="stop-color:#FFFFFF"/>
				<stop  offset="0.0859" style="stop-color:#F7F7F7"/>
				<stop  offset="0.218" style="stop-color:#E2E2E2"/>
				<stop  offset="0.3799" style="stop-color:#BEBEBE"/>
				<stop  offset="0.5653" style="stop-color:#8E8E8E"/>
				<stop  offset="0.7705" style="stop-color:#4F4F4F"/>
				<stop  offset="0.9894" style="stop-color:#040404"/>
				<stop  offset="1" style="stop-color:#000000"/>
			</radialGradient>
			<path class="st6" d="M9.146-9.806c0-1.07-1.231-1.938-2.75-1.938s-2.75,0.867-2.75,1.938s1.231,1.938,2.75,1.938
				S9.146-8.736,9.146-9.806z"/>
		</g>
		<g>
			
				<radialGradient id="SVGID_7_" cx="-49.2511" cy="-16908.1934" r="2.875" gradientTransform="matrix(1 0 0 -1 65.6875 -16923.3125)" gradientUnits="userSpaceOnUse">
				<stop  offset="0" style="stop-color:#FFFFFF"/>
				<stop  offset="0.0859" style="stop-color:#F7F7F7"/>
				<stop  offset="0.218" style="stop-color:#E2E2E2"/>
				<stop  offset="0.3799" style="stop-color:#BEBEBE"/>
				<stop  offset="0.5653" style="stop-color:#8E8E8E"/>
				<stop  offset="0.7705" style="stop-color:#4F4F4F"/>
				<stop  offset="0.9894" style="stop-color:#040404"/>
				<stop  offset="1" style="stop-color:#000000"/>
			</radialGradient>
			<path class="st7" d="M19.311-15.119c0-1.588-1.287-2.875-2.875-2.875c-1.588,0-2.875,1.287-2.875,2.875s1.287,2.875,2.875,2.875
				C18.024-12.244,19.311-13.531,19.311-15.119z"/>
			
				<radialGradient id="SVGID_8_" cx="-47.6261" cy="-16910.6934" r="3.0233" gradientTransform="matrix(1 0 0 -1 65.6875 -16923.3125)" gradientUnits="userSpaceOnUse">
				<stop  offset="0" style="stop-color:#FFFFFF"/>
				<stop  offset="0.0859" style="stop-color:#F7F7F7"/>
				<stop  offset="0.218" style="stop-color:#E2E2E2"/>
				<stop  offset="0.3799" style="stop-color:#BEBEBE"/>
				<stop  offset="0.5653" style="stop-color:#8E8E8E"/>
				<stop  offset="0.7705" style="stop-color:#4F4F4F"/>
				<stop  offset="0.9894" style="stop-color:#040404"/>
				<stop  offset="1" style="stop-color:#000000"/>
			</radialGradient>
			<path class="st8" d="M21.436-12.619c0-1.45-1.511-2.625-3.375-2.625c-1.864,0-3.375,1.175-3.375,2.625s1.511,2.625,3.375,2.625
				C19.925-9.994,21.436-11.169,21.436-12.619z"/>
			
				<radialGradient id="SVGID_9_" cx="-49.5011" cy="-16913.5059" r="2.3787" gradientTransform="matrix(1 0 0 -1 65.6875 -16923.3125)" gradientUnits="userSpaceOnUse">
				<stop  offset="0" style="stop-color:#FFFFFF"/>
				<stop  offset="0.0859" style="stop-color:#F7F7F7"/>
				<stop  offset="0.218" style="stop-color:#E2E2E2"/>
				<stop  offset="0.3799" style="stop-color:#BEBEBE"/>
				<stop  offset="0.5653" style="stop-color:#8E8E8E"/>
				<stop  offset="0.7705" style="stop-color:#4F4F4F"/>
				<stop  offset="0.9894" style="stop-color:#040404"/>
				<stop  offset="1" style="stop-color:#000000"/>
			</radialGradient>
			<path class="st9" d="M18.936-9.806c0-1.07-1.231-1.938-2.75-1.938c-1.519,0-2.75,0.867-2.75,1.938s1.231,1.938,2.75,1.938
				C17.705-7.869,18.936-8.736,18.936-9.806z"/>
			
				<radialGradient id="SVGID_10_" cx="-54.1261" cy="-16912.6309" r="2.6579" gradientTransform="matrix(1 0 0 -1 65.6875 -16923.3125)" gradientUnits="userSpaceOnUse">
				<stop  offset="0" style="stop-color:#FFFFFF"/>
				<stop  offset="0.0859" style="stop-color:#F7F7F7"/>
				<stop  offset="0.218" style="stop-color:#E2E2E2"/>
				<stop  offset="0.3799" style="stop-color:#BEBEBE"/>
				<stop  offset="0.5653" style="stop-color:#8E8E8E"/>
				<stop  offset="0.7705" style="stop-color:#4F4F4F"/>
				<stop  offset="0.9894" style="stop-color:#040404"/>
				<stop  offset="1" style="stop-color:#000000"/>
			</radialGradient>
			<path class="st10" d="M14.311-10.681c0,1.415-1.231,2.563-2.75,2.563s-2.75-1.147-2.75-2.563s1.231-2.563,2.75-2.563
				S14.311-12.097,14.311-10.681z"/>
			
				<radialGradient id="SVGID_11_" cx="-53.2511" cy="-16910.1309" r="2.5361" gradientTransform="matrix(1 0 0 -1 65.6875 -16923.3125)" gradientUnits="userSpaceOnUse">
				<stop  offset="0" style="stop-color:#FFFFFF"/>
				<stop  offset="0.0859" style="stop-color:#F7F7F7"/>
				<stop  offset="0.218" style="stop-color:#E2E2E2"/>
				<stop  offset="0.3799" style="stop-color:#BEBEBE"/>
				<stop  offset="0.5653" style="stop-color:#8E8E8E"/>
				<stop  offset="0.7705" style="stop-color:#4F4F4F"/>
				<stop  offset="0.9894" style="stop-color:#040404"/>
				<stop  offset="1" style="stop-color:#000000"/>
			</radialGradient>
			<path class="st11" d="M14.811-13.181c0,1.484-1.063,2.688-2.375,2.688s-2.375-1.203-2.375-2.688s1.063-2.688,2.375-2.688
				S14.811-14.666,14.811-13.181z"/>
		</g>
		<g>
			
				<radialGradient id="SVGID_12_" cx="-62.3123" cy="-16914.7539" r="3.0233" gradientTransform="matrix(1 0 0 -1 65.6875 -16923.3125)" gradientUnits="userSpaceOnUse">
				<stop  offset="0" style="stop-color:#FFFFFF"/>
				<stop  offset="0.0859" style="stop-color:#F7F7F7"/>
				<stop  offset="0.218" style="stop-color:#E2E2E2"/>
				<stop  offset="0.3799" style="stop-color:#BEBEBE"/>
				<stop  offset="0.5653" style="stop-color:#8E8E8E"/>
				<stop  offset="0.7705" style="stop-color:#4F4F4F"/>
				<stop  offset="0.9894" style="stop-color:#040404"/>
				<stop  offset="1" style="stop-color:#000000"/>
			</radialGradient>
			<path class="st12" d="M6.75-8.56c0-1.45-1.511-2.625-3.375-2.625S0-10.009,0-8.56s1.511,2.625,3.375,2.625S6.75-7.11,6.75-8.56z"
				/>
		</g>
		<g>
			
				<radialGradient id="SVGID_13_" cx="-54.1465" cy="-16912.2539" r="2.875" gradientTransform="matrix(1 0 0 -1 65.6875 -16923.3125)" gradientUnits="userSpaceOnUse">
				<stop  offset="0" style="stop-color:#FFFFFF"/>
				<stop  offset="0.0859" style="stop-color:#F7F7F7"/>
				<stop  offset="0.218" style="stop-color:#E2E2E2"/>
				<stop  offset="0.3799" style="stop-color:#BEBEBE"/>
				<stop  offset="0.5653" style="stop-color:#8E8E8E"/>
				<stop  offset="0.7705" style="stop-color:#4F4F4F"/>
				<stop  offset="0.9894" style="stop-color:#040404"/>
				<stop  offset="1" style="stop-color:#000000"/>
			</radialGradient>
			<path class="st13" d="M14.416-11.06c0-1.588-1.287-2.875-2.875-2.875s-2.875,1.287-2.875,2.875s1.287,2.875,2.875,2.875
				S14.416-9.472,14.416-11.06z"/>
			
				<radialGradient id="SVGID_14_" cx="-52.5215" cy="-16914.7539" r="3.0233" gradientTransform="matrix(1 0 0 -1 65.6875 -16923.3125)" gradientUnits="userSpaceOnUse">
				<stop  offset="0" style="stop-color:#FFFFFF"/>
				<stop  offset="0.0859" style="stop-color:#F7F7F7"/>
				<stop  offset="0.218" style="stop-color:#E2E2E2"/>
				<stop  offset="0.3799" style="stop-color:#BEBEBE"/>
				<stop  offset="0.5653" style="stop-color:#8E8E8E"/>
				<stop  offset="0.7705" style="stop-color:#4F4F4F"/>
				<stop  offset="0.9894" style="stop-color:#040404"/>
				<stop  offset="1" style="stop-color:#000000"/>
			</radialGradient>
			<path class="st14" d="M16.541-8.56c0-1.45-1.511-2.625-3.375-2.625S9.791-10.009,9.791-8.56s1.511,2.625,3.375,2.625
				S16.541-7.11,16.541-8.56z"/>
			
				<radialGradient id="SVGID_15_" cx="-54.3965" cy="-16917.5664" r="2.3787" gradientTransform="matrix(1 0 0 -1 65.6875 -16923.3125)" gradientUnits="userSpaceOnUse">
				<stop  offset="0" style="stop-color:#FFFFFF"/>
				<stop  offset="0.0859" style="stop-color:#F7F7F7"/>
				<stop  offset="0.218" style="stop-color:#E2E2E2"/>
				<stop  offset="0.3799" style="stop-color:#BEBEBE"/>
				<stop  offset="0.5653" style="stop-color:#8E8E8E"/>
				<stop  offset="0.7705" style="stop-color:#4F4F4F"/>
				<stop  offset="0.9894" style="stop-color:#040404"/>
				<stop  offset="1" style="stop-color:#000000"/>
			</radialGradient>
			<path class="st15" d="M14.041-5.747c0-1.07-1.231-1.938-2.75-1.938s-2.75,0.867-2.75,1.938s1.231,1.938,2.75,1.938
				S14.041-4.677,14.041-5.747z"/>
			
				<radialGradient id="SVGID_16_" cx="-56.834" cy="-16911.3789" r="1.6565" gradientTransform="matrix(1 0 0 -1 65.6875 -16923.3125)" gradientUnits="userSpaceOnUse">
				<stop  offset="0" style="stop-color:#FFFFFF"/>
				<stop  offset="0.0859" style="stop-color:#F7F7F7"/>
				<stop  offset="0.218" style="stop-color:#E2E2E2"/>
				<stop  offset="0.3799" style="stop-color:#BEBEBE"/>
				<stop  offset="0.5653" style="stop-color:#8E8E8E"/>
				<stop  offset="0.7705" style="stop-color:#4F4F4F"/>
				<stop  offset="0.9894" style="stop-color:#040404"/>
				<stop  offset="1" style="stop-color:#000000"/>
			</radialGradient>
			<path class="st16" d="M10.541-11.935c0,0.897-0.756,1.625-1.688,1.625s-1.688-0.728-1.688-1.625s0.756-1.625,1.688-1.625
				S10.541-12.832,10.541-11.935z"/>
			
				<radialGradient id="SVGID_17_" cx="-59.0215" cy="-16916.6914" r="2.6579" gradientTransform="matrix(1 0 0 -1 65.6875 -16923.3125)" gradientUnits="userSpaceOnUse">
				<stop  offset="0" style="stop-color:#FFFFFF"/>
				<stop  offset="0.0859" style="stop-color:#F7F7F7"/>
				<stop  offset="0.218" style="stop-color:#E2E2E2"/>
				<stop  offset="0.3799" style="stop-color:#BEBEBE"/>
				<stop  offset="0.5653" style="stop-color:#8E8E8E"/>
				<stop  offset="0.7705" style="stop-color:#4F4F4F"/>
				<stop  offset="0.9894" style="stop-color:#040404"/>
				<stop  offset="1" style="stop-color:#000000"/>
			</radialGradient>
			<path class="st17" d="M9.416-6.622c0,1.415-1.231,2.563-2.75,2.563s-2.75-1.147-2.75-2.563s1.231-2.563,2.75-2.563
				S9.416-8.037,9.416-6.622z"/>
			
				<radialGradient id="SVGID_18_" cx="-58.1465" cy="-16914.1914" r="2.5361" gradientTransform="matrix(1 0 0 -1 65.6875 -16923.3125)" gradientUnits="userSpaceOnUse">
				<stop  offset="0" style="stop-color:#FFFFFF"/>
				<stop  offset="0.0859" style="stop-color:#F7F7F7"/>
				<stop  offset="0.218" style="stop-color:#E2E2E2"/>
				<stop  offset="0.3799" style="stop-color:#BEBEBE"/>
				<stop  offset="0.5653" style="stop-color:#8E8E8E"/>
				<stop  offset="0.7705" style="stop-color:#4F4F4F"/>
				<stop  offset="0.9894" style="stop-color:#040404"/>
				<stop  offset="1" style="stop-color:#000000"/>
			</radialGradient>
			<path class="st18" d="M9.916-9.122c0,1.484-1.063,2.688-2.375,2.688S5.166-7.638,5.166-9.122s1.063-2.688,2.375-2.688
				S9.916-10.606,9.916-9.122z"/>
		</g>
		<g>
			
				<radialGradient id="SVGID_19_" cx="-49.2307" cy="-16916.6914" r="2.6579" gradientTransform="matrix(1 0 0 -1 65.6875 -16923.3125)" gradientUnits="userSpaceOnUse">
				<stop  offset="0" style="stop-color:#FFFFFF"/>
				<stop  offset="0.0859" style="stop-color:#F7F7F7"/>
				<stop  offset="0.218" style="stop-color:#E2E2E2"/>
				<stop  offset="0.3799" style="stop-color:#BEBEBE"/>
				<stop  offset="0.5653" style="stop-color:#8E8E8E"/>
				<stop  offset="0.7705" style="stop-color:#4F4F4F"/>
				<stop  offset="0.9894" style="stop-color:#040404"/>
				<stop  offset="1" style="stop-color:#000000"/>
			</radialGradient>
			<path class="st19" d="M19.207-6.622c0,1.415-1.231,2.563-2.75,2.563s-2.75-1.147-2.75-2.563s1.231-2.563,2.75-2.563
				S19.207-8.037,19.207-6.622z"/>
			
				<radialGradient id="SVGID_20_" cx="-48.3557" cy="-16914.1914" r="2.5361" gradientTransform="matrix(1 0 0 -1 65.6875 -16923.3125)" gradientUnits="userSpaceOnUse">
				<stop  offset="0" style="stop-color:#FFFFFF"/>
				<stop  offset="0.0859" style="stop-color:#F7F7F7"/>
				<stop  offset="0.218" style="stop-color:#E2E2E2"/>
				<stop  offset="0.3799" style="stop-color:#BEBEBE"/>
				<stop  offset="0.5653" style="stop-color:#8E8E8E"/>
				<stop  offset="0.7705" style="stop-color:#4F4F4F"/>
				<stop  offset="0.9894" style="stop-color:#040404"/>
				<stop  offset="1" style="stop-color:#000000"/>
			</radialGradient>
			<path class="st20" d="M19.707-9.122c0,1.484-1.063,2.688-2.375,2.688s-2.375-1.203-2.375-2.688s1.063-2.688,2.375-2.688
				S19.707-10.606,19.707-9.122z"/>
		</g>
		<g>
			
				<radialGradient id="SVGID_21_" cx="-59.0419" cy="-16916.3125" r="2.875" gradientTransform="matrix(1 0 0 -1 65.6875 -16923.3125)" gradientUnits="userSpaceOnUse">
				<stop  offset="0" style="stop-color:#FFFFFF"/>
				<stop  offset="0.0859" style="stop-color:#F7F7F7"/>
				<stop  offset="0.218" style="stop-color:#E2E2E2"/>
				<stop  offset="0.3799" style="stop-color:#BEBEBE"/>
				<stop  offset="0.5653" style="stop-color:#8E8E8E"/>
				<stop  offset="0.7705" style="stop-color:#4F4F4F"/>
				<stop  offset="0.9894" style="stop-color:#040404"/>
				<stop  offset="1" style="stop-color:#000000"/>
			</radialGradient>
			<path class="st21" d="M9.521-7c0-1.588-1.287-2.875-2.875-2.875S3.771-8.588,3.771-7s1.287,2.875,2.875,2.875
				S9.521-5.412,9.521-7z"/>
			
				<radialGradient id="SVGID_22_" cx="-57.4169" cy="-16918.8125" r="3.0233" gradientTransform="matrix(1 0 0 -1 65.6875 -16923.3125)" gradientUnits="userSpaceOnUse">
				<stop  offset="0" style="stop-color:#FFFFFF"/>
				<stop  offset="0.0859" style="stop-color:#F7F7F7"/>
				<stop  offset="0.218" style="stop-color:#E2E2E2"/>
				<stop  offset="0.3799" style="stop-color:#BEBEBE"/>
				<stop  offset="0.5653" style="stop-color:#8E8E8E"/>
				<stop  offset="0.7705" style="stop-color:#4F4F4F"/>
				<stop  offset="0.9894" style="stop-color:#040404"/>
				<stop  offset="1" style="stop-color:#000000"/>
			</radialGradient>
			<path class="st22" d="M11.646-4.5c0-1.45-1.511-2.625-3.375-2.625S4.896-5.95,4.896-4.5s1.511,2.625,3.375,2.625
				S11.646-3.05,11.646-4.5z"/>
			
				<radialGradient id="SVGID_23_" cx="-61.7294" cy="-16915.4375" r="1.6565" gradientTransform="matrix(1 0 0 -1 65.6875 -16923.3125)" gradientUnits="userSpaceOnUse">
				<stop  offset="0" style="stop-color:#FFFFFF"/>
				<stop  offset="0.0859" style="stop-color:#F7F7F7"/>
				<stop  offset="0.218" style="stop-color:#E2E2E2"/>
				<stop  offset="0.3799" style="stop-color:#BEBEBE"/>
				<stop  offset="0.5653" style="stop-color:#8E8E8E"/>
				<stop  offset="0.7705" style="stop-color:#4F4F4F"/>
				<stop  offset="0.9894" style="stop-color:#040404"/>
				<stop  offset="1" style="stop-color:#000000"/>
			</radialGradient>
			<path class="st23" d="M5.646-7.875c0,0.897-0.756,1.625-1.688,1.625S2.271-6.978,2.271-7.875S3.026-9.5,3.958-9.5
				S5.646-8.773,5.646-7.875z"/>
		</g>
		<g>
			
				<radialGradient id="SVGID_24_" cx="-49.2511" cy="-16916.3125" r="2.875" gradientTransform="matrix(1 0 0 -1 65.6875 -16923.3125)" gradientUnits="userSpaceOnUse">
				<stop  offset="0" style="stop-color:#FFFFFF"/>
				<stop  offset="0.0859" style="stop-color:#F7F7F7"/>
				<stop  offset="0.218" style="stop-color:#E2E2E2"/>
				<stop  offset="0.3799" style="stop-color:#BEBEBE"/>
				<stop  offset="0.5653" style="stop-color:#8E8E8E"/>
				<stop  offset="0.7705" style="stop-color:#4F4F4F"/>
				<stop  offset="0.9894" style="stop-color:#040404"/>
				<stop  offset="1" style="stop-color:#000000"/>
			</radialGradient>
			<path class="st24" d="M19.311-7c0-1.588-1.287-2.875-2.875-2.875c-1.588,0-2.875,1.287-2.875,2.875s1.287,2.875,2.875,2.875
				C18.024-4.125,19.311-5.412,19.311-7z"/>
			
				<radialGradient id="SVGID_25_" cx="-47.6261" cy="-16918.8125" r="3.0233" gradientTransform="matrix(1 0 0 -1 65.6875 -16923.3125)" gradientUnits="userSpaceOnUse">
				<stop  offset="0" style="stop-color:#FFFFFF"/>
				<stop  offset="0.0859" style="stop-color:#F7F7F7"/>
				<stop  offset="0.218" style="stop-color:#E2E2E2"/>
				<stop  offset="0.3799" style="stop-color:#BEBEBE"/>
				<stop  offset="0.5653" style="stop-color:#8E8E8E"/>
				<stop  offset="0.7705" style="stop-color:#4F4F4F"/>
				<stop  offset="0.9894" style="stop-color:#040404"/>
				<stop  offset="1" style="stop-color:#000000"/>
			</radialGradient>
			<path class="st25" d="M21.436-4.5c0-1.45-1.511-2.625-3.375-2.625c-1.864,0-3.375,1.175-3.375,2.625s1.511,2.625,3.375,2.625
				C19.925-1.875,21.436-3.05,21.436-4.5z"/>
			
				<radialGradient id="SVGID_26_" cx="-51.9386" cy="-16915.4375" r="1.6565" gradientTransform="matrix(1 0 0 -1 65.6875 -16923.3125)" gradientUnits="userSpaceOnUse">
				<stop  offset="0" style="stop-color:#FFFFFF"/>
				<stop  offset="0.0859" style="stop-color:#F7F7F7"/>
				<stop  offset="0.218" style="stop-color:#E2E2E2"/>
				<stop  offset="0.3799" style="stop-color:#BEBEBE"/>
				<stop  offset="0.5653" style="stop-color:#8E8E8E"/>
				<stop  offset="0.7705" style="stop-color:#4F4F4F"/>
				<stop  offset="0.9894" style="stop-color:#040404"/>
				<stop  offset="1" style="stop-color:#000000"/>
			</radialGradient>
			<path class="st26" d="M15.436-7.875c0,0.897-0.756,1.625-1.688,1.625s-1.688-0.728-1.688-1.625S12.817-9.5,13.749-9.5
				S15.436-8.773,15.436-7.875z"/>
			
				<radialGradient id="SVGID_27_" cx="-54.1261" cy="-16920.75" r="2.6579" gradientTransform="matrix(1 0 0 -1 65.6875 -16923.3125)" gradientUnits="userSpaceOnUse">
				<stop  offset="0" style="stop-color:#FFFFFF"/>
				<stop  offset="0.0859" style="stop-color:#F7F7F7"/>
				<stop  offset="0.218" style="stop-color:#E2E2E2"/>
				<stop  offset="0.3799" style="stop-color:#BEBEBE"/>
				<stop  offset="0.5653" style="stop-color:#8E8E8E"/>
				<stop  offset="0.7705" style="stop-color:#4F4F4F"/>
				<stop  offset="0.9894" style="stop-color:#040404"/>
				<stop  offset="1" style="stop-color:#000000"/>
			</radialGradient>
			<path class="st27" d="M14.311-2.563C14.311-1.147,13.08,0,11.561,0s-2.75-1.147-2.75-2.563s1.231-2.562,2.75-2.562
				S14.311-3.978,14.311-2.563z"/>
			
				<radialGradient id="SVGID_28_" cx="-53.2511" cy="-16918.25" r="2.5361" gradientTransform="matrix(1 0 0 -1 65.6875 -16923.3125)" gradientUnits="userSpaceOnUse">
				<stop  offset="0" style="stop-color:#FFFFFF"/>
				<stop  offset="0.0859" style="stop-color:#F7F7F7"/>
				<stop  offset="0.218" style="stop-color:#E2E2E2"/>
				<stop  offset="0.3799" style="stop-color:#BEBEBE"/>
				<stop  offset="0.5653" style="stop-color:#8E8E8E"/>
				<stop  offset="0.7705" style="stop-color:#4F4F4F"/>
				<stop  offset="0.9894" style="stop-color:#040404"/>
				<stop  offset="1" style="stop-color:#000000"/>
			</radialGradient>
			<path class="st28" d="M14.811-5.063c0,1.484-1.063,2.687-2.375,2.687s-2.375-1.203-2.375-2.687s1.063-2.688,2.375-2.688
				S14.811-6.547,14.811-5.063z"/>
		</g>
		<g>
			
				<radialGradient id="SVGID_29_" cx="-54.1465" cy="-16920.3711" r="2.875" gradientTransform="matrix(1 0 0 -1 65.6875 -16923.3125)" gradientUnits="userSpaceOnUse">
				<stop  offset="0" style="stop-color:#FFFFFF"/>
				<stop  offset="0.0859" style="stop-color:#F7F7F7"/>
				<stop  offset="0.218" style="stop-color:#E2E2E2"/>
				<stop  offset="0.3799" style="stop-color:#BEBEBE"/>
				<stop  offset="0.5653" style="stop-color:#8E8E8E"/>
				<stop  offset="0.7705" style="stop-color:#4F4F4F"/>
				<stop  offset="0.9894" style="stop-color:#040404"/>
				<stop  offset="1" style="stop-color:#000000"/>
			</radialGradient>
			<path class="st29" d="M14.416-2.941c0-1.588-1.287-2.875-2.875-2.875S8.666-4.529,8.666-2.941s1.287,2.875,2.875,2.875
				S14.416-1.353,14.416-2.941z"/>
			
				<radialGradient id="SVGID_30_" cx="-56.834" cy="-16919.4961" r="1.6565" gradientTransform="matrix(1 0 0 -1 65.6875 -16923.3125)" gradientUnits="userSpaceOnUse">
				<stop  offset="0" style="stop-color:#FFFFFF"/>
				<stop  offset="0.0859" style="stop-color:#F7F7F7"/>
				<stop  offset="0.218" style="stop-color:#E2E2E2"/>
				<stop  offset="0.3799" style="stop-color:#BEBEBE"/>
				<stop  offset="0.5653" style="stop-color:#8E8E8E"/>
				<stop  offset="0.7705" style="stop-color:#4F4F4F"/>
				<stop  offset="0.9894" style="stop-color:#040404"/>
				<stop  offset="1" style="stop-color:#000000"/>
			</radialGradient>
			<path class="st30" d="M10.541-3.816c0,0.897-0.756,1.625-1.688,1.625S7.166-2.918,7.166-3.816s0.756-1.625,1.688-1.625
				S10.541-4.713,10.541-3.816z"/>
		</g>
	</g>
</pattern>
<radialGradient id="SVGID_31_" cx="153.2247" cy="134.4997" r="7.2879" gradientUnits="userSpaceOnUse">
	<stop  offset="0" style="stop-color:#000000;stop-opacity:0"/>
	<stop  offset="0.9018" style="stop-color:#000000;stop-opacity:0.9018"/>
	<stop  offset="1" style="stop-color:#000000"/>
</radialGradient>
<path class="st31" d="M158.674,128.894c-1.992-0.707-4.739-0.591-7.467,0.5c-4.024,1.61-6.619,4.783-6.3,7.456
	c0.083,0.12,0.171,0.238,0.279,0.366c0.528,0.625,1.083,1.224,1.652,1.812c0.35,0.363,0.699,0.728,1.044,1.097
	c1.987,0.685,4.708,0.563,7.411-0.518c3.49-1.396,5.902-3.969,6.276-6.37C160.391,131.949,159.351,130.461,158.674,128.894z"/>
<radialGradient id="SVGID_32_" cx="231.2247" cy="132.9997" r="7.2879" gradientTransform="matrix(-1 0 0 1 462.4494 0)" gradientUnits="userSpaceOnUse">
	<stop  offset="0" style="stop-color:#000000;stop-opacity:0"/>
	<stop  offset="0.9018" style="stop-color:#000000;stop-opacity:0.9018"/>
	<stop  offset="1" style="stop-color:#000000"/>
</radialGradient>
<path class="st32" d="M225.776,127.394c1.992-0.707,4.739-0.591,7.467,0.5c4.024,1.61,6.619,4.783,6.3,7.456
	c-0.083,0.12-0.171,0.238-0.279,0.366c-0.528,0.625-1.083,1.224-1.652,1.812c-0.35,0.363-0.699,0.728-1.044,1.097
	c-1.987,0.685-4.708,0.563-7.411-0.518c-3.49-1.396-5.902-3.969-6.276-6.37C224.059,130.449,225.099,128.961,225.776,127.394z"/>
<g>
	<g>
		<ellipse class="st33" cx="137" cy="53.333" rx="15" ry="14.667"/>
		<ellipse class="st34" cx="137" cy="53.333" rx="15" ry="14.667"/>
	</g>
	<g>
		<radialGradient id="SVGID_33_" cx="138.6667" cy="68.3333" r="25.3333" gradientUnits="userSpaceOnUse">
			<stop  offset="0" style="stop-color:#FFFFFF"/>
			<stop  offset="0.1485" style="stop-color:#FCFCFC"/>
			<stop  offset="0.2772" style="stop-color:#F1F1F1"/>
			<stop  offset="0.3985" style="stop-color:#DFDFDF"/>
			<stop  offset="0.5153" style="stop-color:#C6C6C6"/>
			<stop  offset="0.629" style="stop-color:#A6A6A6"/>
			<stop  offset="0.7403" style="stop-color:#7E7E7E"/>
			<stop  offset="0.8496" style="stop-color:#4F4F4F"/>
			<stop  offset="0.9547" style="stop-color:#191919"/>
			<stop  offset="1" style="stop-color:#000000"/>
		</radialGradient>
		<circle class="st35" cx="138.667" cy="68.333" r="25.333"/>
		<circle class="st36" cx="138.667" cy="68.333" r="25.333"/>
	</g>
	<g>
		<path class="st37" d="M158.586,61.491c0.74,2.149,1.162,4.445,1.162,6.842c0,11.624-9.457,21.081-21.081,21.081
			s-21.081-9.457-21.081-21.081c0-1.919,0.28-3.77,0.763-5.538c-1.323-0.085-2.693-0.43-4.128-1.107
			c-0.575,2.118-0.887,4.345-0.887,6.645c0,13.991,11.342,25.333,25.333,25.333S164,82.325,164,68.333
			c0-2.837-0.473-5.562-1.334-8.109C161.52,61.058,160.073,61.48,158.586,61.491z"/>
	</g>
</g>
<g>
	<g>
		<ellipse class="st33" cx="244.583" cy="53.583" rx="15" ry="14.667"/>
		<ellipse class="st34" cx="244.583" cy="53.583" rx="15" ry="14.667"/>
	</g>
	<g>
		<radialGradient id="SVGID_34_" cx="242.9167" cy="68.5833" r="25.3333" gradientUnits="userSpaceOnUse">
			<stop  offset="0" style="stop-color:#FFFFFF"/>
			<stop  offset="0.1485" style="stop-color:#FCFCFC"/>
			<stop  offset="0.2772" style="stop-color:#F1F1F1"/>
			<stop  offset="0.3985" style="stop-color:#DFDFDF"/>
			<stop  offset="0.5153" style="stop-color:#C6C6C6"/>
			<stop  offset="0.629" style="stop-color:#A6A6A6"/>
			<stop  offset="0.7403" style="stop-color:#7E7E7E"/>
			<stop  offset="0.8496" style="stop-color:#4F4F4F"/>
			<stop  offset="0.9547" style="stop-color:#191919"/>
			<stop  offset="1" style="stop-color:#000000"/>
		</radialGradient>
		<circle class="st38" cx="242.917" cy="68.583" r="25.333"/>
		<circle class="st36" cx="242.917" cy="68.583" r="25.333"/>
	</g>
	<g>
		<path class="st37" d="M222.997,61.741c-0.74,2.149-1.162,4.445-1.162,6.842c0,11.624,9.457,21.081,21.081,21.081
			s21.081-9.457,21.081-21.081c0-1.919-0.28-3.77-0.763-5.538c1.323-0.085,2.693-0.43,4.128-1.107
			c0.575,2.118,0.887,4.345,0.887,6.645c0,13.991-11.342,25.333-25.333,25.333c-13.991,0-25.333-11.342-25.333-25.333
			c0-2.837,0.473-5.562,1.334-8.109C220.063,61.308,221.511,61.73,222.997,61.741z"/>
	</g>
</g>
<path class="st39" d="M216.13,176.401c2.782-8.922,22.823-41.04,22.814-41.344c-2.688,0.689-5.467,0.597-8.332-1.075
	c-2.109-1.231-5.052-5.315-5.157-5.566c-0.927,0.983-24.238,37.393-26.893,38.641c-5.877,2.763-11.13,0.067-15.266-4.381
	c-4.953-5.327-20.685-28.468-24.751-33.864c-1.646,2.46-2.522,4.694-4.962,5.938c-4.083,2.083-8.036,1.872-8,1.917
	c6.279,7.878,15.678,24.09,15.678,24.09s11.427,17.513,7.585,27.39c-3.358,8.632-24.53,31.469-22.976,34.149
	c0.945,1.629,1.001,3.909,2.518,4.704c7.945,4.167,12.023,0,12.023,0c1.203-6.541,26.295-32.492,26.607-32.888
	c2.57-3.745,7.695-4.537,11.017-1.225c3.645,3.635,25.965,29.446,31.131,36.279c0,0,3.596,0.99,8-1.833
	c6.5-4.167,3.725-4.48,4-4.667C240.717,222.162,213.343,185.34,216.13,176.401z"/>
<g>
	<path class="st40" d="M258.993,288.7c3.328-3.044,4.239-7.466,2.034-9.877c-2.205-2.411-6.691-1.899-10.02,1.145
		c-3.328,3.044-4.239,7.466-2.034,9.878C251.179,292.256,255.664,291.743,258.993,288.7z"/>
	
		<ellipse transform="matrix(0.6748 0.738 -0.738 0.6748 292.7411 -95.7272)" class="st34" cx="255" cy="284.333" rx="5.917" ry="8.167"/>
	
		<radialGradient id="SVGID_35_" cx="218.7313" cy="379.3141" r="7.131" gradientTransform="matrix(-0.6748 -0.738 -0.738 0.6748 682.5282 189.7701)" gradientUnits="userSpaceOnUse">
		<stop  offset="0" style="stop-color:#000000;stop-opacity:0"/>
		<stop  offset="0.9018" style="stop-color:#000000;stop-opacity:0.9018"/>
		<stop  offset="1" style="stop-color:#000000"/>
	</radialGradient>
	<path class="st41" d="M258.993,288.7c3.328-3.044,4.239-7.466,2.034-9.877c-2.205-2.411-6.691-1.899-10.02,1.145
		c-3.328,3.044-4.239,7.466-2.034,9.878C251.179,292.256,255.664,291.743,258.993,288.7z"/>
</g>
<g>
	<path class="st40" d="M127.757,290.533c-3.328-3.044-4.239-7.466-2.034-9.878c2.205-2.411,6.691-1.899,10.02,1.145
		c3.328,3.044,4.239,7.466,2.034,9.877C135.571,294.089,131.086,293.577,127.757,290.533z"/>
	
		<ellipse transform="matrix(-0.6748 0.738 -0.738 -0.6748 431.8403 382.0585)" class="st34" cx="131.75" cy="286.167" rx="5.917" ry="8.167"/>
	
		<radialGradient id="SVGID_36_" cx="134.2037" cy="289.5977" r="7.131" gradientTransform="matrix(0.6748 -0.738 0.738 0.6748 -172.5282 189.7701)" gradientUnits="userSpaceOnUse">
		<stop  offset="0" style="stop-color:#000000;stop-opacity:0"/>
		<stop  offset="0.9018" style="stop-color:#000000;stop-opacity:0.9018"/>
		<stop  offset="1" style="stop-color:#000000"/>
	</radialGradient>
	<path class="st42" d="M127.757,290.533c-3.328-3.044-4.239-7.466-2.034-9.878c2.205-2.411,6.691-1.899,10.02,1.145
		c3.328,3.044,4.239,7.466,2.034,9.877C135.571,294.089,131.086,293.577,127.757,290.533z"/>
</g>
<g>
	<path class="st40" d="M157.5,273.25c-3.5,11.25-13.607,13.64-20.5,11.25s-9.5-13-4.25-21.5"/>
	<path class="st43" d="M157.5,273.25c-3.5,11.25-13.607,13.64-20.5,11.25s-9.5-13-4.25-21.5"/>
	<linearGradient id="SVGID_37_" gradientUnits="userSpaceOnUse" x1="136.1471" y1="284.1883" x2="146.2218" y2="266.7385">
		<stop  offset="0" style="stop-color:#000000;stop-opacity:0"/>
		<stop  offset="0.1101" style="stop-color:#050505;stop-opacity:0.1101"/>
		<stop  offset="0.234" style="stop-color:#121212;stop-opacity:0.234"/>
		<stop  offset="0.3647" style="stop-color:#292929;stop-opacity:0.3647"/>
		<stop  offset="0.4999" style="stop-color:#484848;stop-opacity:0.4999"/>
		<stop  offset="0.6389" style="stop-color:#717171;stop-opacity:0.6389"/>
		<stop  offset="0.7809" style="stop-color:#A3A3A3;stop-opacity:0.7809"/>
		<stop  offset="0.9227" style="stop-color:#DCDCDC;stop-opacity:0.9227"/>
		<stop  offset="1" style="stop-color:#FFFFFF"/>
	</linearGradient>
	<path class="st44" d="M157.5,273.25c-3.5,11.25-13.607,13.64-20.5,11.25s-9.5-13-4.25-21.5"/>
</g>
<g>
	<path class="st40" d="M229.718,270.75c3.5,11.25,13.607,13.64,20.5,11.25c6.893-2.39,9.5-13,4.25-21.5"/>
	<path class="st43" d="M229.718,270.75c3.5,11.25,13.607,13.64,20.5,11.25c6.893-2.39,9.5-13,4.25-21.5"/>
	
		<linearGradient id="SVGID_38_" gradientUnits="userSpaceOnUse" x1="46.3971" y1="281.6883" x2="56.4718" y2="264.2385" gradientTransform="matrix(-1 0 0 1 297.4679 0)">
		<stop  offset="0" style="stop-color:#000000;stop-opacity:0"/>
		<stop  offset="0.1101" style="stop-color:#050505;stop-opacity:0.1101"/>
		<stop  offset="0.234" style="stop-color:#121212;stop-opacity:0.234"/>
		<stop  offset="0.3647" style="stop-color:#292929;stop-opacity:0.3647"/>
		<stop  offset="0.4999" style="stop-color:#484848;stop-opacity:0.4999"/>
		<stop  offset="0.6389" style="stop-color:#717171;stop-opacity:0.6389"/>
		<stop  offset="0.7809" style="stop-color:#A3A3A3;stop-opacity:0.7809"/>
		<stop  offset="0.9227" style="stop-color:#DCDCDC;stop-opacity:0.9227"/>
		<stop  offset="1" style="stop-color:#FFFFFF"/>
	</linearGradient>
	<path class="st45" d="M229.718,270.75c3.5,11.25,13.607,13.64,20.5,11.25c6.893-2.39,9.5-13,4.25-21.5"/>
</g>
<g>
	<line class="st40" x1="193.421" y1="419.031" x2="193.011" y2="419.084"/>
	<linearGradient id="SVGID_39_" gradientUnits="userSpaceOnUse" x1="193.2078" y1="419.0286" x2="193.2239" y2="419.0863">
		<stop  offset="0" style="stop-color:#FFFFFF"/>
		<stop  offset="0.1688" style="stop-color:#FCFCFC;stop-opacity:0.8312"/>
		<stop  offset="0.3" style="stop-color:#F2F2F2;stop-opacity:0.7"/>
		<stop  offset="0.4186" style="stop-color:#E2E2E2;stop-opacity:0.5814"/>
		<stop  offset="0.5298" style="stop-color:#CACACA;stop-opacity:0.4702"/>
		<stop  offset="0.6358" style="stop-color:#ACACAC;stop-opacity:0.3642"/>
		<stop  offset="0.7379" style="stop-color:#878787;stop-opacity:0.2621"/>
		<stop  offset="0.8368" style="stop-color:#5B5B5B;stop-opacity:0.1632"/>
		<stop  offset="0.9309" style="stop-color:#292929;stop-opacity:0.0691"/>
		<stop  offset="1" style="stop-color:#000000;stop-opacity:0"/>
	</linearGradient>
	<line class="st46" x1="193.421" y1="419.031" x2="193.011" y2="419.084"/>
	
		<radialGradient id="SVGID_40_" cx="193.2074" cy="419.0462" r="0.1282" gradientTransform="matrix(0.7245 0.6892 -0.52 0.5467 271.127 56.8063)" gradientUnits="userSpaceOnUse">
		<stop  offset="0" style="stop-color:#FFFFFF"/>
		<stop  offset="0.9018" style="stop-color:#FFFFFF;stop-opacity:0.0982"/>
		<stop  offset="1" style="stop-color:#FFFFFF;stop-opacity:0"/>
	</radialGradient>
	<line class="st47" x1="193.421" y1="419.031" x2="193.011" y2="419.084"/>
	<line class="st34" x1="193.421" y1="419.031" x2="193.011" y2="419.084"/>
</g>
<g>
	<path class="st40" d="M84.576,432.769c-0.051,0.215-0.1,0.429-0.152,0.644c0.852,0.387,1.68,1.027,2.445,1.975
		c2.738,3.394,4.313,7.182,6.613,10.827c2.201,3.486,5.625,5.831,8.555,8.66c0.941,0.908,1.829,1.865,2.694,2.842
		c1.065-0.253,2.158-0.686,2.764-1.639c0.795-1.25,0.57-2.609,0.028-3.91c-0.401-0.961-0.919-1.888-1.21-2.892
		c-0.312-1.076-0.198-2.053,0.119-3.121c0.122-0.409,0.317-1.225,0.847-1.3c0.405-0.057,0.747,0.47,0.932,0.751
		c0.473,0.717,0.839,1.501,1.237,2.261c0.224,0.428,0.451,0.857,0.706,1.268c0.159,0.258,0.396,0.461,0.552,0.725
		c0.156,0.265,0.291,0.539,0.414,0.822c0.527,1.22,1.141,2.37,2.517,2.724c0.933,0.24,1.923,0.341,2.566,1.142
		c0.022,0.028,0.016,0.075-0.023,0.083c-1.305,0.276-2.65,0.16-3.973,0.151c-1.296-0.008-2.781,0.018-3.874,0.817
		c-3.29,2.405,0.06,6.773,1.87,8.949c0.03,0.036-0.001,0.067-0.036,0.071c2.647,3.672,5.169,7.451,7.962,10.963
		c0.32,0.403,0.647,0.811,0.977,1.223c2.284,1.802,4.362,3.863,6.607,5.768c2.866,2.432,5.862,4.697,8.53,7.339
		c0.287,0.111,0.572,0.227,0.864,0.324c3.101,1.03,6.434,1.491,9.808,1.76c0.156-0.133,0.348-0.234,0.603-0.245
		c0.195-0.008,0.346-0.075,0.459-0.185c-0.092-0.878-0.288-1.741-0.4-2.616c-0.089-0.697-0.175-1.478,0.072-2.154
		c0.197-0.54,0.752-1.284,1.366-1.37c1.204-0.167,1.2,2.202,1.187,2.92c-0.017,0.895-0.194,1.826-0.03,2.716
		c0.09,0.491,0.317,0.869,0.621,1.182c2.313,0.117,4.613,0.209,6.836,0.388c1.131,0.091,2.288,0.174,3.441,0.257
		c0.571-0.099,1.145-0.18,1.722-0.241c0.171-0.187,0.364-0.352,0.611-0.452c0.652-0.264,1.26-0.656,1.873-1.042
		c1.06-0.76,1.813-1.701,2.226-2.906v-1.134c-0.173-0.458-0.337-0.919-0.45-1.395c-0.163-0.689-0.322-1.551,0.016-2.217
		c0.322-0.634,1.027-0.922,1.718-0.828c1.339,0.183,0.943,2.28,0.809,3.148c-0.14,0.903-0.24,1.718-0.018,2.63
		c0.157,0.643,0.417,1.24,0.758,1.785c0.239,0.098,0.477,0.218,0.716,0.361c0.796,0.479,1.191,0.412,2.119,0.527
		c0.167,0.021,0.326,0.063,0.484,0.106c1.271-0.751,2.726-1.22,4.136-1.629c0.987-0.286,1.996-0.553,2.988-0.866
		c0.93-0.775,1.909-1.485,2.941-2.066c0.114-0.291,0.289-0.576,0.545-0.845c0.279-0.565,0.558-1.131,0.838-1.696
		c-0.016-0.542-0.002-1.063,0.15-1.552c-0.578-0.915-1.229-1.782-1.885-2.642c-0.642-0.842-1.339-1.694-1.798-2.654
		c-0.267-0.558-0.505-1.253-0.11-1.809c0.022-0.031,0.066-0.032,0.086,0.002c1.128,1.827,1.891,4.017,4.286,4.428
		c1.998,0.343,3.655-0.68,5.392-1.463c0.204-0.455,0.462-0.874,0.764-1.263c0.593-1.164,1.151-2.346,1.675-3.544
		c0.109-0.397,0.218-0.793,0.325-1.2c1.381-5.24,1.8-10.151,0.343-15.435c-0.032-0.116-0.042-0.226-0.057-0.338
		c-0.251-0.354-0.502-0.708-0.766-1.05c-0.415-0.54-0.852-1.08-1.309-1.606c-0.019-0.012-0.038-0.019-0.056-0.03
		c-1.726-1.099-3.065-2.698-4.792-3.806c-0.046-0.029-0.014-0.113,0.04-0.091c1.901,0.791,3.498,2.262,4.863,3.836
		c0.529,0.325,1.093,0.59,1.707,0.704c0.341,0.063,0.679,0.081,1.016,0.073c0.318-0.313,0.714-0.565,1.151-0.736
		c1.573-0.615,1.75-4.914,1.571-8.994c-0.098-0.253-0.196-0.505-0.295-0.758c-0.461-0.848-0.97-1.67-1.557-2.422
		c-1.245-1.594-2.908-3.203-4.971-3.595c-0.228-0.043-0.46-0.064-0.692-0.079c-0.556,0.077-1.121,0.132-1.685,0.193
		c-0.058,0.006-0.064-0.083-0.012-0.098c0.542-0.156,1.073-0.196,1.595-0.173c1.058-0.126,2.14-0.323,3.027-0.935
		c1.198-0.826,1.849-2.082,2.315-3.425c0.12-0.346,0.238-0.693,0.361-1.038c-0.005-0.049-0.025-0.092-0.015-0.147
		c0.055-0.316,0.113-0.629,0.167-0.943c0.033-0.265,0.057-0.53,0.063-0.8c0.003-0.026,0.018-0.043,0.024-0.067
		c-0.221-4.52-0.212-11.542,0.142-12.425l-0.246,0.031"/>
	<linearGradient id="SVGID_41_" gradientUnits="userSpaceOnUse" x1="137.1352" y1="418.0943" x2="158.5741" y2="494.8829">
		<stop  offset="0" style="stop-color:#FFFFFF"/>
		<stop  offset="0.1688" style="stop-color:#FCFCFC;stop-opacity:0.8312"/>
		<stop  offset="0.3" style="stop-color:#F2F2F2;stop-opacity:0.7"/>
		<stop  offset="0.4186" style="stop-color:#E2E2E2;stop-opacity:0.5814"/>
		<stop  offset="0.5298" style="stop-color:#CACACA;stop-opacity:0.4702"/>
		<stop  offset="0.6358" style="stop-color:#ACACAC;stop-opacity:0.3642"/>
		<stop  offset="0.7379" style="stop-color:#878787;stop-opacity:0.2621"/>
		<stop  offset="0.8368" style="stop-color:#5B5B5B;stop-opacity:0.1632"/>
		<stop  offset="0.9309" style="stop-color:#292929;stop-opacity:0.0691"/>
		<stop  offset="1" style="stop-color:#000000;stop-opacity:0"/>
	</linearGradient>
	<path class="st48" d="M84.576,432.769c-0.051,0.215-0.1,0.429-0.152,0.644c0.852,0.387,1.68,1.027,2.445,1.975
		c2.738,3.394,4.313,7.182,6.613,10.827c2.201,3.486,5.625,5.831,8.555,8.66c0.941,0.908,1.829,1.865,2.694,2.842
		c1.065-0.253,2.158-0.686,2.764-1.639c0.795-1.25,0.57-2.609,0.028-3.91c-0.401-0.961-0.919-1.888-1.21-2.892
		c-0.312-1.076-0.198-2.053,0.119-3.121c0.122-0.409,0.317-1.225,0.847-1.3c0.405-0.057,0.747,0.47,0.932,0.751
		c0.473,0.717,0.839,1.501,1.237,2.261c0.224,0.428,0.451,0.857,0.706,1.268c0.159,0.258,0.396,0.461,0.552,0.725
		c0.156,0.265,0.291,0.539,0.414,0.822c0.527,1.22,1.141,2.37,2.517,2.724c0.933,0.24,1.923,0.341,2.566,1.142
		c0.022,0.028,0.016,0.075-0.023,0.083c-1.305,0.276-2.65,0.16-3.973,0.151c-1.296-0.008-2.781,0.018-3.874,0.817
		c-3.29,2.405,0.06,6.773,1.87,8.949c0.03,0.036-0.001,0.067-0.036,0.071c2.647,3.672,5.169,7.451,7.962,10.963
		c0.32,0.403,0.647,0.811,0.977,1.223c2.284,1.802,4.362,3.863,6.607,5.768c2.866,2.432,5.862,4.697,8.53,7.339
		c0.287,0.111,0.572,0.227,0.864,0.324c3.101,1.03,6.434,1.491,9.808,1.76c0.156-0.133,0.348-0.234,0.603-0.245
		c0.195-0.008,0.346-0.075,0.459-0.185c-0.092-0.878-0.288-1.741-0.4-2.616c-0.089-0.697-0.175-1.478,0.072-2.154
		c0.197-0.54,0.752-1.284,1.366-1.37c1.204-0.167,1.2,2.202,1.187,2.92c-0.017,0.895-0.194,1.826-0.03,2.716
		c0.09,0.491,0.317,0.869,0.621,1.182c2.313,0.117,4.613,0.209,6.836,0.388c1.131,0.091,2.288,0.174,3.441,0.257
		c0.571-0.099,1.145-0.18,1.722-0.241c0.171-0.187,0.364-0.352,0.611-0.452c0.652-0.264,1.26-0.656,1.873-1.042
		c1.06-0.76,1.813-1.701,2.226-2.906v-1.134c-0.173-0.458-0.337-0.919-0.45-1.395c-0.163-0.689-0.322-1.551,0.016-2.217
		c0.322-0.634,1.027-0.922,1.718-0.828c1.339,0.183,0.943,2.28,0.809,3.148c-0.14,0.903-0.24,1.718-0.018,2.63
		c0.157,0.643,0.417,1.24,0.758,1.785c0.239,0.098,0.477,0.218,0.716,0.361c0.796,0.479,1.191,0.412,2.119,0.527
		c0.167,0.021,0.326,0.063,0.484,0.106c1.271-0.751,2.726-1.22,4.136-1.629c0.987-0.286,1.996-0.553,2.988-0.866
		c0.93-0.775,1.909-1.485,2.941-2.066c0.114-0.291,0.289-0.576,0.545-0.845c0.279-0.565,0.558-1.131,0.838-1.696
		c-0.016-0.542-0.002-1.063,0.15-1.552c-0.578-0.915-1.229-1.782-1.885-2.642c-0.642-0.842-1.339-1.694-1.798-2.654
		c-0.267-0.558-0.505-1.253-0.11-1.809c0.022-0.031,0.066-0.032,0.086,0.002c1.128,1.827,1.891,4.017,4.286,4.428
		c1.998,0.343,3.655-0.68,5.392-1.463c0.204-0.455,0.462-0.874,0.764-1.263c0.593-1.164,1.151-2.346,1.675-3.544
		c0.109-0.397,0.218-0.793,0.325-1.2c1.381-5.24,1.8-10.151,0.343-15.435c-0.032-0.116-0.042-0.226-0.057-0.338
		c-0.251-0.354-0.502-0.708-0.766-1.05c-0.415-0.54-0.852-1.08-1.309-1.606c-0.019-0.012-0.038-0.019-0.056-0.03
		c-1.726-1.099-3.065-2.698-4.792-3.806c-0.046-0.029-0.014-0.113,0.04-0.091c1.901,0.791,3.498,2.262,4.863,3.836
		c0.529,0.325,1.093,0.59,1.707,0.704c0.341,0.063,0.679,0.081,1.016,0.073c0.318-0.313,0.714-0.565,1.151-0.736
		c1.573-0.615,1.75-4.914,1.571-8.994c-0.098-0.253-0.196-0.505-0.295-0.758c-0.461-0.848-0.97-1.67-1.557-2.422
		c-1.245-1.594-2.908-3.203-4.971-3.595c-0.228-0.043-0.46-0.064-0.692-0.079c-0.556,0.077-1.121,0.132-1.685,0.193
		c-0.058,0.006-0.064-0.083-0.012-0.098c0.542-0.156,1.073-0.196,1.595-0.173c1.058-0.126,2.14-0.323,3.027-0.935
		c1.198-0.826,1.849-2.082,2.315-3.425c0.12-0.346,0.238-0.693,0.361-1.038c-0.005-0.049-0.025-0.092-0.015-0.147
		c0.055-0.316,0.113-0.629,0.167-0.943c0.033-0.265,0.057-0.53,0.063-0.8c0.003-0.026,0.018-0.043,0.024-0.067
		c-0.221-4.52-0.212-11.542,0.142-12.425l-0.246,0.031"/>
	
		<radialGradient id="SVGID_42_" cx="137.7985" cy="439.4808" r="46.6551" gradientTransform="matrix(0.7245 0.6892 -0.52 0.5467 266.4908 104.2592)" gradientUnits="userSpaceOnUse">
		<stop  offset="0" style="stop-color:#FFFFFF"/>
		<stop  offset="0.9018" style="stop-color:#FFFFFF;stop-opacity:0.0982"/>
		<stop  offset="1" style="stop-color:#FFFFFF;stop-opacity:0"/>
	</radialGradient>
	<path class="st49" d="M84.576,432.769c-0.051,0.215-0.1,0.429-0.152,0.644c0.852,0.387,1.68,1.027,2.445,1.975
		c2.738,3.394,4.313,7.182,6.613,10.827c2.201,3.486,5.625,5.831,8.555,8.66c0.941,0.908,1.829,1.865,2.694,2.842
		c1.065-0.253,2.158-0.686,2.764-1.639c0.795-1.25,0.57-2.609,0.028-3.91c-0.401-0.961-0.919-1.888-1.21-2.892
		c-0.312-1.076-0.198-2.053,0.119-3.121c0.122-0.409,0.317-1.225,0.847-1.3c0.405-0.057,0.747,0.47,0.932,0.751
		c0.473,0.717,0.839,1.501,1.237,2.261c0.224,0.428,0.451,0.857,0.706,1.268c0.159,0.258,0.396,0.461,0.552,0.725
		c0.156,0.265,0.291,0.539,0.414,0.822c0.527,1.22,1.141,2.37,2.517,2.724c0.933,0.24,1.923,0.341,2.566,1.142
		c0.022,0.028,0.016,0.075-0.023,0.083c-1.305,0.276-2.65,0.16-3.973,0.151c-1.296-0.008-2.781,0.018-3.874,0.817
		c-3.29,2.405,0.06,6.773,1.87,8.949c0.03,0.036-0.001,0.067-0.036,0.071c2.647,3.672,5.169,7.451,7.962,10.963
		c0.32,0.403,0.647,0.811,0.977,1.223c2.284,1.802,4.362,3.863,6.607,5.768c2.866,2.432,5.862,4.697,8.53,7.339
		c0.287,0.111,0.572,0.227,0.864,0.324c3.101,1.03,6.434,1.491,9.808,1.76c0.156-0.133,0.348-0.234,0.603-0.245
		c0.195-0.008,0.346-0.075,0.459-0.185c-0.092-0.878-0.288-1.741-0.4-2.616c-0.089-0.697-0.175-1.478,0.072-2.154
		c0.197-0.54,0.752-1.284,1.366-1.37c1.204-0.167,1.2,2.202,1.187,2.92c-0.017,0.895-0.194,1.826-0.03,2.716
		c0.09,0.491,0.317,0.869,0.621,1.182c2.313,0.117,4.613,0.209,6.836,0.388c1.131,0.091,2.288,0.174,3.441,0.257
		c0.571-0.099,1.145-0.18,1.722-0.241c0.171-0.187,0.364-0.352,0.611-0.452c0.652-0.264,1.26-0.656,1.873-1.042
		c1.06-0.76,1.813-1.701,2.226-2.906v-1.134c-0.173-0.458-0.337-0.919-0.45-1.395c-0.163-0.689-0.322-1.551,0.016-2.217
		c0.322-0.634,1.027-0.922,1.718-0.828c1.339,0.183,0.943,2.28,0.809,3.148c-0.14,0.903-0.24,1.718-0.018,2.63
		c0.157,0.643,0.417,1.24,0.758,1.785c0.239,0.098,0.477,0.218,0.716,0.361c0.796,0.479,1.191,0.412,2.119,0.527
		c0.167,0.021,0.326,0.063,0.484,0.106c1.271-0.751,2.726-1.22,4.136-1.629c0.987-0.286,1.996-0.553,2.988-0.866
		c0.93-0.775,1.909-1.485,2.941-2.066c0.114-0.291,0.289-0.576,0.545-0.845c0.279-0.565,0.558-1.131,0.838-1.696
		c-0.016-0.542-0.002-1.063,0.15-1.552c-0.578-0.915-1.229-1.782-1.885-2.642c-0.642-0.842-1.339-1.694-1.798-2.654
		c-0.267-0.558-0.505-1.253-0.11-1.809c0.022-0.031,0.066-0.032,0.086,0.002c1.128,1.827,1.891,4.017,4.286,4.428
		c1.998,0.343,3.655-0.68,5.392-1.463c0.204-0.455,0.462-0.874,0.764-1.263c0.593-1.164,1.151-2.346,1.675-3.544
		c0.109-0.397,0.218-0.793,0.325-1.2c1.381-5.24,1.8-10.151,0.343-15.435c-0.032-0.116-0.042-0.226-0.057-0.338
		c-0.251-0.354-0.502-0.708-0.766-1.05c-0.415-0.54-0.852-1.08-1.309-1.606c-0.019-0.012-0.038-0.019-0.056-0.03
		c-1.726-1.099-3.065-2.698-4.792-3.806c-0.046-0.029-0.014-0.113,0.04-0.091c1.901,0.791,3.498,2.262,4.863,3.836
		c0.529,0.325,1.093,0.59,1.707,0.704c0.341,0.063,0.679,0.081,1.016,0.073c0.318-0.313,0.714-0.565,1.151-0.736
		c1.573-0.615,1.75-4.914,1.571-8.994c-0.098-0.253-0.196-0.505-0.295-0.758c-0.461-0.848-0.97-1.67-1.557-2.422
		c-1.245-1.594-2.908-3.203-4.971-3.595c-0.228-0.043-0.46-0.064-0.692-0.079c-0.556,0.077-1.121,0.132-1.685,0.193
		c-0.058,0.006-0.064-0.083-0.012-0.098c0.542-0.156,1.073-0.196,1.595-0.173c1.058-0.126,2.14-0.323,3.027-0.935
		c1.198-0.826,1.849-2.082,2.315-3.425c0.12-0.346,0.238-0.693,0.361-1.038c-0.005-0.049-0.025-0.092-0.015-0.147
		c0.055-0.316,0.113-0.629,0.167-0.943c0.033-0.265,0.057-0.53,0.063-0.8c0.003-0.026,0.018-0.043,0.024-0.067
		c-0.221-4.52-0.212-11.542,0.142-12.425l-0.246,0.031"/>
	<path class="st34" d="M84.576,432.769c-0.051,0.215-0.1,0.429-0.152,0.644c0.852,0.387,1.68,1.027,2.445,1.975
		c2.738,3.394,4.313,7.182,6.613,10.827c2.201,3.486,5.625,5.831,8.555,8.66c0.941,0.908,1.829,1.865,2.694,2.842
		c1.065-0.253,2.158-0.686,2.764-1.639c0.795-1.25,0.57-2.609,0.028-3.91c-0.401-0.961-0.919-1.888-1.21-2.892
		c-0.312-1.076-0.198-2.053,0.119-3.121c0.122-0.409,0.317-1.225,0.847-1.3c0.405-0.057,0.747,0.47,0.932,0.751
		c0.473,0.717,0.839,1.501,1.237,2.261c0.224,0.428,0.451,0.857,0.706,1.268c0.159,0.258,0.396,0.461,0.552,0.725
		c0.156,0.265,0.291,0.539,0.414,0.822c0.527,1.22,1.141,2.37,2.517,2.724c0.933,0.24,1.923,0.341,2.566,1.142
		c0.022,0.028,0.016,0.075-0.023,0.083c-1.305,0.276-2.65,0.16-3.973,0.151c-1.296-0.008-2.781,0.018-3.874,0.817
		c-3.29,2.405,0.06,6.773,1.87,8.949c0.03,0.036-0.001,0.067-0.036,0.071c2.647,3.672,5.169,7.451,7.962,10.963
		c0.32,0.403,0.647,0.811,0.977,1.223c2.284,1.802,4.362,3.863,6.607,5.768c2.866,2.432,5.862,4.697,8.53,7.339
		c0.287,0.111,0.572,0.227,0.864,0.324c3.101,1.03,6.434,1.491,9.808,1.76c0.156-0.133,0.348-0.234,0.603-0.245
		c0.195-0.008,0.346-0.075,0.459-0.185c-0.092-0.878-0.288-1.741-0.4-2.616c-0.089-0.697-0.175-1.478,0.072-2.154
		c0.197-0.54,0.752-1.284,1.366-1.37c1.204-0.167,1.2,2.202,1.187,2.92c-0.017,0.895-0.194,1.826-0.03,2.716
		c0.09,0.491,0.317,0.869,0.621,1.182c2.313,0.117,4.613,0.209,6.836,0.388c1.131,0.091,2.288,0.174,3.441,0.257
		c0.571-0.099,1.145-0.18,1.722-0.241c0.171-0.187,0.364-0.352,0.611-0.452c0.652-0.264,1.26-0.656,1.873-1.042
		c1.06-0.76,1.813-1.701,2.226-2.906v-1.134c-0.173-0.458-0.337-0.919-0.45-1.395c-0.163-0.689-0.322-1.551,0.016-2.217
		c0.322-0.634,1.027-0.922,1.718-0.828c1.339,0.183,0.943,2.28,0.809,3.148c-0.14,0.903-0.24,1.718-0.018,2.63
		c0.157,0.643,0.417,1.24,0.758,1.785c0.239,0.098,0.477,0.218,0.716,0.361c0.796,0.479,1.191,0.412,2.119,0.527
		c0.167,0.021,0.326,0.063,0.484,0.106c1.271-0.751,2.726-1.22,4.136-1.629c0.987-0.286,1.996-0.553,2.988-0.866
		c0.93-0.775,1.909-1.485,2.941-2.066c0.114-0.291,0.289-0.576,0.545-0.845c0.279-0.565,0.558-1.131,0.838-1.696
		c-0.016-0.542-0.002-1.063,0.15-1.552c-0.578-0.915-1.229-1.782-1.885-2.642c-0.642-0.842-1.339-1.694-1.798-2.654
		c-0.267-0.558-0.505-1.253-0.11-1.809c0.022-0.031,0.066-0.032,0.086,0.002c1.128,1.827,1.891,4.017,4.286,4.428
		c1.998,0.343,3.655-0.68,5.392-1.463c0.204-0.455,0.462-0.874,0.764-1.263c0.593-1.164,1.151-2.346,1.675-3.544
		c0.109-0.397,0.218-0.793,0.325-1.2c1.381-5.24,1.8-10.151,0.343-15.435c-0.032-0.116-0.042-0.226-0.057-0.338
		c-0.251-0.354-0.502-0.708-0.766-1.05c-0.415-0.54-0.852-1.08-1.309-1.606c-0.019-0.012-0.038-0.019-0.056-0.03
		c-1.726-1.099-3.065-2.698-4.792-3.806c-0.046-0.029-0.014-0.113,0.04-0.091c1.901,0.791,3.498,2.262,4.863,3.836
		c0.529,0.325,1.093,0.59,1.707,0.704c0.341,0.063,0.679,0.081,1.016,0.073c0.318-0.313,0.714-0.565,1.151-0.736
		c1.573-0.615,1.75-4.914,1.571-8.994c-0.098-0.253-0.196-0.505-0.295-0.758c-0.461-0.848-0.97-1.67-1.557-2.422
		c-1.245-1.594-2.908-3.203-4.971-3.595c-0.228-0.043-0.46-0.064-0.692-0.079c-0.556,0.077-1.121,0.132-1.685,0.193
		c-0.058,0.006-0.064-0.083-0.012-0.098c0.542-0.156,1.073-0.196,1.595-0.173c1.058-0.126,2.14-0.323,3.027-0.935
		c1.198-0.826,1.849-2.082,2.315-3.425c0.12-0.346,0.238-0.693,0.361-1.038c-0.005-0.049-0.025-0.092-0.015-0.147
		c0.055-0.316,0.113-0.629,0.167-0.943c0.033-0.265,0.057-0.53,0.063-0.8c0.003-0.026,0.018-0.043,0.024-0.067
		c-0.221-4.52-0.212-11.542,0.142-12.425l-0.246,0.031"/>
</g>
<g>
	<path class="st40" d="M84.222,432.942c-0.054,0.192-0.101,0.384-0.147,0.576"/>
	<linearGradient id="SVGID_43_" gradientUnits="userSpaceOnUse" x1="84.0797" y1="432.9823" x2="84.2183" y2="433.4788">
		<stop  offset="0" style="stop-color:#FFFFFF"/>
		<stop  offset="0.1688" style="stop-color:#FCFCFC;stop-opacity:0.8312"/>
		<stop  offset="0.3" style="stop-color:#F2F2F2;stop-opacity:0.7"/>
		<stop  offset="0.4186" style="stop-color:#E2E2E2;stop-opacity:0.5814"/>
		<stop  offset="0.5298" style="stop-color:#CACACA;stop-opacity:0.4702"/>
		<stop  offset="0.6358" style="stop-color:#ACACAC;stop-opacity:0.3642"/>
		<stop  offset="0.7379" style="stop-color:#878787;stop-opacity:0.2621"/>
		<stop  offset="0.8368" style="stop-color:#5B5B5B;stop-opacity:0.1632"/>
		<stop  offset="0.9309" style="stop-color:#292929;stop-opacity:0.0691"/>
		<stop  offset="1" style="stop-color:#000000;stop-opacity:0"/>
	</linearGradient>
	<path class="st50" d="M84.222,432.942c-0.054,0.192-0.101,0.384-0.147,0.576"/>
	
		<radialGradient id="SVGID_44_" cx="84.146" cy="433.1063" r="0.2482" gradientTransform="matrix(0.7245 0.6892 -0.52 0.5467 248.3974 138.3479)" gradientUnits="userSpaceOnUse">
		<stop  offset="0" style="stop-color:#FFFFFF"/>
		<stop  offset="0.9018" style="stop-color:#FFFFFF;stop-opacity:0.0982"/>
		<stop  offset="1" style="stop-color:#FFFFFF;stop-opacity:0"/>
	</radialGradient>
	<path class="st51" d="M84.222,432.942c-0.054,0.192-0.101,0.384-0.147,0.576"/>
	<path class="st34" d="M84.222,432.942c-0.054,0.192-0.101,0.384-0.147,0.576"/>
</g>
<g>
	<linearGradient id="SVGID_45_" gradientUnits="userSpaceOnUse" x1="186.9003" y1="450.8257" x2="188.0293" y2="454.8693">
		<stop  offset="0" style="stop-color:#FFFFFF"/>
		<stop  offset="0.1688" style="stop-color:#FCFCFC;stop-opacity:0.8312"/>
		<stop  offset="0.3" style="stop-color:#F2F2F2;stop-opacity:0.7"/>
		<stop  offset="0.4186" style="stop-color:#E2E2E2;stop-opacity:0.5814"/>
		<stop  offset="0.5298" style="stop-color:#CACACA;stop-opacity:0.4702"/>
		<stop  offset="0.6358" style="stop-color:#ACACAC;stop-opacity:0.3642"/>
		<stop  offset="0.7379" style="stop-color:#878787;stop-opacity:0.2621"/>
		<stop  offset="0.8368" style="stop-color:#5B5B5B;stop-opacity:0.1632"/>
		<stop  offset="0.9309" style="stop-color:#292929;stop-opacity:0.0691"/>
		<stop  offset="1" style="stop-color:#000000;stop-opacity:0"/>
	</linearGradient>
	<path class="st52" d="M185.89,451.439c-0.134-0.078-0.273-0.145-0.41-0.217c0.39,0.281,0.77,0.576,1.137,0.886
		c0.79,0.668,1.533,1.396,2.356,2.023c0.155,0.118,0.316,0.231,0.478,0.341C188.4,453.3,187.231,452.221,185.89,451.439z"/>
	
		<radialGradient id="SVGID_46_" cx="187.3831" cy="452.1469" r="1.8419" gradientTransform="matrix(0.7245 0.6892 -0.52 0.5467 286.7353 75.8263)" gradientUnits="userSpaceOnUse">
		<stop  offset="0" style="stop-color:#FFFFFF"/>
		<stop  offset="0.9018" style="stop-color:#FFFFFF;stop-opacity:0.0982"/>
		<stop  offset="1" style="stop-color:#FFFFFF;stop-opacity:0"/>
	</radialGradient>
	<path class="st53" d="M185.89,451.439c-0.134-0.078-0.273-0.145-0.41-0.217c0.39,0.281,0.77,0.576,1.137,0.886
		c0.79,0.668,1.533,1.396,2.356,2.023c0.155,0.118,0.316,0.231,0.478,0.341C188.4,453.3,187.231,452.221,185.89,451.439z"/>
	<path class="st34" d="M185.89,451.439c-0.134-0.078-0.273-0.145-0.41-0.217c0.39,0.281,0.77,0.576,1.137,0.886
		c0.79,0.668,1.533,1.396,2.356,2.023c0.155,0.118,0.316,0.231,0.478,0.341C188.4,453.3,187.231,452.221,185.89,451.439z"/>
</g>
<g>
	<path class="st40" d="M197.762,417.25c0.354,0.882,0.363,7.905,0.142,12.425c0.006,0.024,0.021,0.04,0.024,0.067
		c0.006,0.269,0.03,0.535,0.063,0.8c0.054,0.314,0.111,0.627,0.167,0.943c0.01,0.055-0.01,0.098-0.015,0.147
		c0.123,0.345,0.242,0.692,0.361,1.038c0.466,1.343,1.117,2.599,2.315,3.425c0.887,0.612,1.969,0.809,3.027,0.935
		c0.521-0.023,1.053,0.018,1.595,0.173c0.052,0.015,0.046,0.105-0.012,0.098c-0.564-0.062-1.129-0.116-1.685-0.193
		c-0.232,0.014-0.464,0.036-0.692,0.079c-2.063,0.391-3.726,2.001-4.971,3.595c-0.587,0.752-1.096,1.573-1.557,2.422
		c-0.098,0.252-0.197,0.505-0.295,0.758c-0.179,4.079-0.003,8.379,1.571,8.994c0.438,0.171,0.833,0.424,1.151,0.736
		c0.337,0.008,0.676-0.009,1.016-0.073c0.615-0.114,1.179-0.379,1.707-0.704c1.366-1.574,2.962-3.045,4.863-3.836
		c0.054-0.023,0.086,0.061,0.04,0.091c-1.727,1.108-3.066,2.707-4.792,3.806c-0.019,0.012-0.038,0.019-0.056,0.03
		c-0.457,0.526-0.894,1.066-1.309,1.606c-0.263,0.343-0.514,0.697-0.766,1.05c-0.015,0.112-0.025,0.222-0.057,0.338
		c-1.457,5.284-1.038,10.195,0.343,15.435c0.107,0.407,0.216,0.803,0.325,1.2c0.524,1.198,1.081,2.38,1.675,3.544
		c0.302,0.39,0.56,0.809,0.764,1.263c1.738,0.783,3.394,1.806,5.392,1.463c2.394-0.411,3.157-2.601,4.286-4.428
		c0.021-0.033,0.064-0.033,0.086-0.002c0.395,0.556,0.156,1.252-0.11,1.809c-0.459,0.96-1.156,1.813-1.798,2.654
		c-0.656,0.86-1.306,1.727-1.885,2.642c0.151,0.489,0.166,1.009,0.15,1.552c0.279,0.565,0.558,1.131,0.838,1.696
		c0.257,0.268,0.431,0.554,0.545,0.845c1.032,0.58,2.011,1.29,2.941,2.066c0.992,0.313,2.001,0.58,2.988,0.866
		c1.411,0.408,2.866,0.878,4.136,1.629c0.158-0.043,0.317-0.085,0.484-0.106c0.928-0.115,1.323-0.048,2.119-0.527
		c0.239-0.144,0.477-0.263,0.716-0.361c0.341-0.545,0.602-1.142,0.758-1.785c0.222-0.912,0.122-1.727-0.018-2.63
		c-0.134-0.868-0.53-2.966,0.809-3.148c0.691-0.094,1.396,0.194,1.718,0.828c0.338,0.665,0.179,1.527,0.016,2.217
		c-0.113,0.477-0.278,0.938-0.45,1.395v1.134c0.413,1.205,1.166,2.146,2.226,2.906c0.612,0.385,1.221,0.778,1.873,1.042
		c0.247,0.1,0.441,0.265,0.611,0.452c0.577,0.062,1.15,0.142,1.722,0.241c1.153-0.083,2.31-0.166,3.441-0.257
		c2.223-0.179,4.523-0.271,6.836-0.388c0.303-0.313,0.53-0.691,0.621-1.182c0.163-0.889-0.014-1.821-0.03-2.716
		c-0.014-0.719-0.017-3.088,1.187-2.92c0.615,0.085,1.169,0.83,1.366,1.37c0.247,0.676,0.161,1.457,0.072,2.154
		c-0.112,0.875-0.308,1.738-0.4,2.616c0.113,0.11,0.264,0.177,0.459,0.185c0.255,0.011,0.447,0.112,0.603,0.245
		c3.374-0.269,6.707-0.73,9.808-1.76c0.292-0.097,0.577-0.212,0.864-0.324c2.668-2.642,5.663-4.906,8.53-7.339
		c2.245-1.905,4.323-3.966,6.607-5.768c0.33-0.411,0.657-0.82,0.977-1.223c0.849-1.067,1.668-2.164,2.477-3.27
		c1.039-4.049,3.072-7.857,3.504-12.067c0.562-5.476,0.754-11.012,2.588-16.259c0.015-0.044,0.066-0.045,0.092-0.01
		c0.536,0.737,0.695,1.716,0.802,2.599c0.146,1.21,0.179,2.43,0.23,3.646c0.054,1.283,0.101,2.581,0.338,3.846
		c0.178,0.953,0.453,2.076,1.227,2.733c0.457,0.388,1.227,0.687,1.822,0.473c0.562-0.202,0.901-0.738,1.19-1.229
		c0.393-0.666,0.925-1.813,1.892-1.384c0.033,0.015,0.066,0.04,0.1,0.057c2.893-2.758,6.227-5.082,8.387-8.503
		c2.3-3.644,3.875-7.432,6.613-10.827c0.764-0.948,1.593-1.588,2.445-1.975c-0.099-0.407-0.185-0.814-0.298-1.22l-0.719-0.092"/>
	<linearGradient id="SVGID_47_" gradientUnits="userSpaceOnUse" x1="234.1333" y1="491.0903" x2="255.7118" y2="413.8048">
		<stop  offset="0" style="stop-color:#000000;stop-opacity:0"/>
		<stop  offset="0.0691" style="stop-color:#292929;stop-opacity:0.0691"/>
		<stop  offset="0.1632" style="stop-color:#5B5B5B;stop-opacity:0.1632"/>
		<stop  offset="0.2621" style="stop-color:#878787;stop-opacity:0.2621"/>
		<stop  offset="0.3642" style="stop-color:#ACACAC;stop-opacity:0.3642"/>
		<stop  offset="0.4702" style="stop-color:#CACACA;stop-opacity:0.4702"/>
		<stop  offset="0.5814" style="stop-color:#E2E2E2;stop-opacity:0.5814"/>
		<stop  offset="0.7" style="stop-color:#F2F2F2;stop-opacity:0.7"/>
		<stop  offset="0.8312" style="stop-color:#FCFCFC;stop-opacity:0.8312"/>
		<stop  offset="1" style="stop-color:#FFFFFF"/>
	</linearGradient>
	<path class="st54" d="M197.762,417.25c0.354,0.882,0.363,7.905,0.142,12.425c0.006,0.024,0.021,0.04,0.024,0.067
		c0.006,0.269,0.03,0.535,0.063,0.8c0.054,0.314,0.111,0.627,0.167,0.943c0.01,0.055-0.01,0.098-0.015,0.147
		c0.123,0.345,0.242,0.692,0.361,1.038c0.466,1.343,1.117,2.599,2.315,3.425c0.887,0.612,1.969,0.809,3.027,0.935
		c0.521-0.023,1.053,0.018,1.595,0.173c0.052,0.015,0.046,0.105-0.012,0.098c-0.564-0.062-1.129-0.116-1.685-0.193
		c-0.232,0.014-0.464,0.036-0.692,0.079c-2.063,0.391-3.726,2.001-4.971,3.595c-0.587,0.752-1.096,1.573-1.557,2.422
		c-0.098,0.252-0.197,0.505-0.295,0.758c-0.179,4.079-0.003,8.379,1.571,8.994c0.438,0.171,0.833,0.424,1.151,0.736
		c0.337,0.008,0.676-0.009,1.016-0.073c0.615-0.114,1.179-0.379,1.707-0.704c1.366-1.574,2.962-3.045,4.863-3.836
		c0.054-0.023,0.086,0.061,0.04,0.091c-1.727,1.108-3.066,2.707-4.792,3.806c-0.019,0.012-0.038,0.019-0.056,0.03
		c-0.457,0.526-0.894,1.066-1.309,1.606c-0.263,0.343-0.514,0.697-0.766,1.05c-0.015,0.112-0.025,0.222-0.057,0.338
		c-1.457,5.284-1.038,10.195,0.343,15.435c0.107,0.407,0.216,0.803,0.325,1.2c0.524,1.198,1.081,2.38,1.675,3.544
		c0.302,0.39,0.56,0.809,0.764,1.263c1.738,0.783,3.394,1.806,5.392,1.463c2.394-0.411,3.157-2.601,4.286-4.428
		c0.021-0.033,0.064-0.033,0.086-0.002c0.395,0.556,0.156,1.252-0.11,1.809c-0.459,0.96-1.156,1.813-1.798,2.654
		c-0.656,0.86-1.306,1.727-1.885,2.642c0.151,0.489,0.166,1.009,0.15,1.552c0.279,0.565,0.558,1.131,0.838,1.696
		c0.257,0.268,0.431,0.554,0.545,0.845c1.032,0.58,2.011,1.29,2.941,2.066c0.992,0.313,2.001,0.58,2.988,0.866
		c1.411,0.408,2.866,0.878,4.136,1.629c0.158-0.043,0.317-0.085,0.484-0.106c0.928-0.115,1.323-0.048,2.119-0.527
		c0.239-0.144,0.477-0.263,0.716-0.361c0.341-0.545,0.602-1.142,0.758-1.785c0.222-0.912,0.122-1.727-0.018-2.63
		c-0.134-0.868-0.53-2.966,0.809-3.148c0.691-0.094,1.396,0.194,1.718,0.828c0.338,0.665,0.179,1.527,0.016,2.217
		c-0.113,0.477-0.278,0.938-0.45,1.395v1.134c0.413,1.205,1.166,2.146,2.226,2.906c0.612,0.385,1.221,0.778,1.873,1.042
		c0.247,0.1,0.441,0.265,0.611,0.452c0.577,0.062,1.15,0.142,1.722,0.241c1.153-0.083,2.31-0.166,3.441-0.257
		c2.223-0.179,4.523-0.271,6.836-0.388c0.303-0.313,0.53-0.691,0.621-1.182c0.163-0.889-0.014-1.821-0.03-2.716
		c-0.014-0.719-0.017-3.088,1.187-2.92c0.615,0.085,1.169,0.83,1.366,1.37c0.247,0.676,0.161,1.457,0.072,2.154
		c-0.112,0.875-0.308,1.738-0.4,2.616c0.113,0.11,0.264,0.177,0.459,0.185c0.255,0.011,0.447,0.112,0.603,0.245
		c3.374-0.269,6.707-0.73,9.808-1.76c0.292-0.097,0.577-0.212,0.864-0.324c2.668-2.642,5.663-4.906,8.53-7.339
		c2.245-1.905,4.323-3.966,6.607-5.768c0.33-0.411,0.657-0.82,0.977-1.223c0.849-1.067,1.668-2.164,2.477-3.27
		c1.039-4.049,3.072-7.857,3.504-12.067c0.562-5.476,0.754-11.012,2.588-16.259c0.015-0.044,0.066-0.045,0.092-0.01
		c0.536,0.737,0.695,1.716,0.802,2.599c0.146,1.21,0.179,2.43,0.23,3.646c0.054,1.283,0.101,2.581,0.338,3.846
		c0.178,0.953,0.453,2.076,1.227,2.733c0.457,0.388,1.227,0.687,1.822,0.473c0.562-0.202,0.901-0.738,1.19-1.229
		c0.393-0.666,0.925-1.813,1.892-1.384c0.033,0.015,0.066,0.04,0.1,0.057c2.893-2.758,6.227-5.082,8.387-8.503
		c2.3-3.644,3.875-7.432,6.613-10.827c0.764-0.948,1.593-1.588,2.445-1.975c-0.099-0.407-0.185-0.814-0.298-1.22l-0.719-0.092"/>
	
		<radialGradient id="SVGID_48_" cx="253.7985" cy="436.9808" r="46.6551" gradientTransform="matrix(-0.7187 0.6953 -0.5246 -0.5422 665.4486 497.4569)" gradientUnits="userSpaceOnUse">
		<stop  offset="0" style="stop-color:#FFFFFF"/>
		<stop  offset="0.9018" style="stop-color:#FFFFFF;stop-opacity:0.0982"/>
		<stop  offset="1" style="stop-color:#FFFFFF;stop-opacity:0"/>
	</radialGradient>
	<path class="st55" d="M197.762,417.25c0.354,0.882,0.363,7.905,0.142,12.425c0.006,0.024,0.021,0.04,0.024,0.067
		c0.006,0.269,0.03,0.535,0.063,0.8c0.054,0.314,0.111,0.627,0.167,0.943c0.01,0.055-0.01,0.098-0.015,0.147
		c0.123,0.345,0.242,0.692,0.361,1.038c0.466,1.343,1.117,2.599,2.315,3.425c0.887,0.612,1.969,0.809,3.027,0.935
		c0.521-0.023,1.053,0.018,1.595,0.173c0.052,0.015,0.046,0.105-0.012,0.098c-0.564-0.062-1.129-0.116-1.685-0.193
		c-0.232,0.014-0.464,0.036-0.692,0.079c-2.063,0.391-3.726,2.001-4.971,3.595c-0.587,0.752-1.096,1.573-1.557,2.422
		c-0.098,0.252-0.197,0.505-0.295,0.758c-0.179,4.079-0.003,8.379,1.571,8.994c0.438,0.171,0.833,0.424,1.151,0.736
		c0.337,0.008,0.676-0.009,1.016-0.073c0.615-0.114,1.179-0.379,1.707-0.704c1.366-1.574,2.962-3.045,4.863-3.836
		c0.054-0.023,0.086,0.061,0.04,0.091c-1.727,1.108-3.066,2.707-4.792,3.806c-0.019,0.012-0.038,0.019-0.056,0.03
		c-0.457,0.526-0.894,1.066-1.309,1.606c-0.263,0.343-0.514,0.697-0.766,1.05c-0.015,0.112-0.025,0.222-0.057,0.338
		c-1.457,5.284-1.038,10.195,0.343,15.435c0.107,0.407,0.216,0.803,0.325,1.2c0.524,1.198,1.081,2.38,1.675,3.544
		c0.302,0.39,0.56,0.809,0.764,1.263c1.738,0.783,3.394,1.806,5.392,1.463c2.394-0.411,3.157-2.601,4.286-4.428
		c0.021-0.033,0.064-0.033,0.086-0.002c0.395,0.556,0.156,1.252-0.11,1.809c-0.459,0.96-1.156,1.813-1.798,2.654
		c-0.656,0.86-1.306,1.727-1.885,2.642c0.151,0.489,0.166,1.009,0.15,1.552c0.279,0.565,0.558,1.131,0.838,1.696
		c0.257,0.268,0.431,0.554,0.545,0.845c1.032,0.58,2.011,1.29,2.941,2.066c0.992,0.313,2.001,0.58,2.988,0.866
		c1.411,0.408,2.866,0.878,4.136,1.629c0.158-0.043,0.317-0.085,0.484-0.106c0.928-0.115,1.323-0.048,2.119-0.527
		c0.239-0.144,0.477-0.263,0.716-0.361c0.341-0.545,0.602-1.142,0.758-1.785c0.222-0.912,0.122-1.727-0.018-2.63
		c-0.134-0.868-0.53-2.966,0.809-3.148c0.691-0.094,1.396,0.194,1.718,0.828c0.338,0.665,0.179,1.527,0.016,2.217
		c-0.113,0.477-0.278,0.938-0.45,1.395v1.134c0.413,1.205,1.166,2.146,2.226,2.906c0.612,0.385,1.221,0.778,1.873,1.042
		c0.247,0.1,0.441,0.265,0.611,0.452c0.577,0.062,1.15,0.142,1.722,0.241c1.153-0.083,2.31-0.166,3.441-0.257
		c2.223-0.179,4.523-0.271,6.836-0.388c0.303-0.313,0.53-0.691,0.621-1.182c0.163-0.889-0.014-1.821-0.03-2.716
		c-0.014-0.719-0.017-3.088,1.187-2.92c0.615,0.085,1.169,0.83,1.366,1.37c0.247,0.676,0.161,1.457,0.072,2.154
		c-0.112,0.875-0.308,1.738-0.4,2.616c0.113,0.11,0.264,0.177,0.459,0.185c0.255,0.011,0.447,0.112,0.603,0.245
		c3.374-0.269,6.707-0.73,9.808-1.76c0.292-0.097,0.577-0.212,0.864-0.324c2.668-2.642,5.663-4.906,8.53-7.339
		c2.245-1.905,4.323-3.966,6.607-5.768c0.33-0.411,0.657-0.82,0.977-1.223c0.849-1.067,1.668-2.164,2.477-3.27
		c1.039-4.049,3.072-7.857,3.504-12.067c0.562-5.476,0.754-11.012,2.588-16.259c0.015-0.044,0.066-0.045,0.092-0.01
		c0.536,0.737,0.695,1.716,0.802,2.599c0.146,1.21,0.179,2.43,0.23,3.646c0.054,1.283,0.101,2.581,0.338,3.846
		c0.178,0.953,0.453,2.076,1.227,2.733c0.457,0.388,1.227,0.687,1.822,0.473c0.562-0.202,0.901-0.738,1.19-1.229
		c0.393-0.666,0.925-1.813,1.892-1.384c0.033,0.015,0.066,0.04,0.1,0.057c2.893-2.758,6.227-5.082,8.387-8.503
		c2.3-3.644,3.875-7.432,6.613-10.827c0.764-0.948,1.593-1.588,2.445-1.975c-0.099-0.407-0.185-0.814-0.298-1.22l-0.719-0.092"/>
	<path class="st34" d="M197.762,417.25c0.354,0.882,0.363,7.905,0.142,12.425c0.006,0.024,0.021,0.04,0.024,0.067
		c0.006,0.269,0.03,0.535,0.063,0.8c0.054,0.314,0.111,0.627,0.167,0.943c0.01,0.055-0.01,0.098-0.015,0.147
		c0.123,0.345,0.242,0.692,0.361,1.038c0.466,1.343,1.117,2.599,2.315,3.425c0.887,0.612,1.969,0.809,3.027,0.935
		c0.521-0.023,1.053,0.018,1.595,0.173c0.052,0.015,0.046,0.105-0.012,0.098c-0.564-0.062-1.129-0.116-1.685-0.193
		c-0.232,0.014-0.464,0.036-0.692,0.079c-2.063,0.391-3.726,2.001-4.971,3.595c-0.587,0.752-1.096,1.573-1.557,2.422
		c-0.098,0.252-0.197,0.505-0.295,0.758c-0.179,4.079-0.003,8.379,1.571,8.994c0.438,0.171,0.833,0.424,1.151,0.736
		c0.337,0.008,0.676-0.009,1.016-0.073c0.615-0.114,1.179-0.379,1.707-0.704c1.366-1.574,2.962-3.045,4.863-3.836
		c0.054-0.023,0.086,0.061,0.04,0.091c-1.727,1.108-3.066,2.707-4.792,3.806c-0.019,0.012-0.038,0.019-0.056,0.03
		c-0.457,0.526-0.894,1.066-1.309,1.606c-0.263,0.343-0.514,0.697-0.766,1.05c-0.015,0.112-0.025,0.222-0.057,0.338
		c-1.457,5.284-1.038,10.195,0.343,15.435c0.107,0.407,0.216,0.803,0.325,1.2c0.524,1.198,1.081,2.38,1.675,3.544
		c0.302,0.39,0.56,0.809,0.764,1.263c1.738,0.783,3.394,1.806,5.392,1.463c2.394-0.411,3.157-2.601,4.286-4.428
		c0.021-0.033,0.064-0.033,0.086-0.002c0.395,0.556,0.156,1.252-0.11,1.809c-0.459,0.96-1.156,1.813-1.798,2.654
		c-0.656,0.86-1.306,1.727-1.885,2.642c0.151,0.489,0.166,1.009,0.15,1.552c0.279,0.565,0.558,1.131,0.838,1.696
		c0.257,0.268,0.431,0.554,0.545,0.845c1.032,0.58,2.011,1.29,2.941,2.066c0.992,0.313,2.001,0.58,2.988,0.866
		c1.411,0.408,2.866,0.878,4.136,1.629c0.158-0.043,0.317-0.085,0.484-0.106c0.928-0.115,1.323-0.048,2.119-0.527
		c0.239-0.144,0.477-0.263,0.716-0.361c0.341-0.545,0.602-1.142,0.758-1.785c0.222-0.912,0.122-1.727-0.018-2.63
		c-0.134-0.868-0.53-2.966,0.809-3.148c0.691-0.094,1.396,0.194,1.718,0.828c0.338,0.665,0.179,1.527,0.016,2.217
		c-0.113,0.477-0.278,0.938-0.45,1.395v1.134c0.413,1.205,1.166,2.146,2.226,2.906c0.612,0.385,1.221,0.778,1.873,1.042
		c0.247,0.1,0.441,0.265,0.611,0.452c0.577,0.062,1.15,0.142,1.722,0.241c1.153-0.083,2.31-0.166,3.441-0.257
		c2.223-0.179,4.523-0.271,6.836-0.388c0.303-0.313,0.53-0.691,0.621-1.182c0.163-0.889-0.014-1.821-0.03-2.716
		c-0.014-0.719-0.017-3.088,1.187-2.92c0.615,0.085,1.169,0.83,1.366,1.37c0.247,0.676,0.161,1.457,0.072,2.154
		c-0.112,0.875-0.308,1.738-0.4,2.616c0.113,0.11,0.264,0.177,0.459,0.185c0.255,0.011,0.447,0.112,0.603,0.245
		c3.374-0.269,6.707-0.73,9.808-1.76c0.292-0.097,0.577-0.212,0.864-0.324c2.668-2.642,5.663-4.906,8.53-7.339
		c2.245-1.905,4.323-3.966,6.607-5.768c0.33-0.411,0.657-0.82,0.977-1.223c0.849-1.067,1.668-2.164,2.477-3.27
		c1.039-4.049,3.072-7.857,3.504-12.067c0.562-5.476,0.754-11.012,2.588-16.259c0.015-0.044,0.066-0.045,0.092-0.01
		c0.536,0.737,0.695,1.716,0.802,2.599c0.146,1.21,0.179,2.43,0.23,3.646c0.054,1.283,0.101,2.581,0.338,3.846
		c0.178,0.953,0.453,2.076,1.227,2.733c0.457,0.388,1.227,0.687,1.822,0.473c0.562-0.202,0.901-0.738,1.19-1.229
		c0.393-0.666,0.925-1.813,1.892-1.384c0.033,0.015,0.066,0.04,0.1,0.057c2.893-2.758,6.227-5.082,8.387-8.503
		c2.3-3.644,3.875-7.432,6.613-10.827c0.764-0.948,1.593-1.588,2.445-1.975c-0.099-0.407-0.185-0.814-0.298-1.22l-0.719-0.092"/>
</g>
<path class="st43" d="M181.583,298c0,0-0.333,7.333,5.333,8.833c5.046,1.336,7.417-3.167,7.417-3.167"/>
<path class="st43" d="M206.83,298.25c0,0,0.333,7.333-5.333,8.833c-5.046,1.336-7.417-3.167-7.417-3.167"/>
<g>
	<path class="st56" d="M116.49,67.432c0,0-0.021,0.089-0.041,0.237c-0.02,0.148-0.056,0.365-0.075,0.68
		c-0.061,0.616-0.064,1.551,0.06,2.759c0.133,1.21,0.466,2.685,1.066,4.352c0.158,0.413,0.361,0.828,0.549,1.265
		c0.096,0.218,0.194,0.439,0.294,0.664c0.121,0.215,0.244,0.433,0.369,0.655c0.253,0.442,0.515,0.898,0.784,1.367
		c0.314,0.442,0.637,0.897,0.969,1.364c2.675,3.741,7.166,7.326,12.858,10.348c0.354,0.193,0.711,0.388,1.071,0.585
		c0.448,0.276,0.724,0.412,1.111,0.775c0.742,0.634,1.244,1.306,1.796,2.021c1.05,1.431,1.966,2.98,2.873,4.582
		c1.799,3.212,3.504,6.667,5.262,10.279c3.503,7.229,7.179,15.104,11.258,23.337c4.081,8.231,8.507,16.85,13.461,25.557
		c1.239,2.176,2.503,4.362,3.806,6.545c0.656,1.089,1.315,2.181,1.976,3.278c0.656,1.09,1.4,2.193,1.824,3.543
		c0.844,2.606,0.777,5.37,0.35,7.988c-0.424,2.634-1.194,5.192-2.123,7.683c-1.865,4.986-4.336,9.736-7.01,14.367
		c-2.688,4.626-5.61,9.13-8.659,13.54c-6.104,8.818-12.693,17.279-19.36,25.444c-1.667,2.036-3.327,4.065-4.979,6.083
		c-1.618,2.025-3.057,4.148-4.438,6.318c-2.74,4.34-5.122,8.838-7.093,13.414c-1.946,4.579-3.49,9.266-4.188,13.981
		c-0.668,4.678-0.508,9.514,1.487,13.536c1.973,4.019,5.666,6.811,9.608,8.284c3.967,1.582,8.11,2.159,12.028,1.718
		c3.925-0.386,7.548-1.683,10.826-3.197c3.282-1.535,6.252-3.31,9.043-4.988c2.791-1.678,5.414-3.275,7.992-4.512
		c1.285-0.626,2.575-1.126,3.836-1.533c1.279-0.358,2.534-0.621,3.758-0.657c2.449-0.082,4.62,0.596,6.239,1.665
		c0.807,0.538,1.456,1.201,1.921,1.898c0.459,0.705,0.721,1.43,0.866,2.087c0.272,1.334,0.002,2.345-0.158,2.981
		c-0.218,0.637-0.374,0.942-0.374,0.942s-0.045-0.354-0.048-0.995c-0.061-0.641-0.051-1.587-0.357-2.711
		c-0.162-0.556-0.374-1.165-0.759-1.757c-0.393-0.584-0.939-1.146-1.646-1.617c-1.402-0.934-3.415-1.571-5.648-1.491
		c-1.121,0.034-2.294,0.28-3.504,0.619c-1.199,0.389-2.438,0.868-3.69,1.48c-2.512,1.208-5.11,2.79-7.903,4.474
		c-2.793,1.682-5.789,3.479-9.134,5.048c-3.341,1.546-7.07,2.892-11.153,3.299c-4.058,0.469-8.443-0.147-12.507-1.768
		c-4.117-1.528-8.076-4.492-10.191-8.797c-1.073-2.126-1.633-4.502-1.853-6.897c-0.217-2.403-0.09-4.843,0.254-7.265
		c0.714-4.848,2.283-9.611,4.25-14.255c1.993-4.639,4.395-9.184,7.162-13.576c1.387-2.185,2.865-4.369,4.505-6.424
		c1.652-2.022,3.313-4.055,4.979-6.096c6.648-8.157,13.211-16.603,19.281-25.39c3.032-4.394,5.934-8.877,8.597-13.47
		c2.648-4.595,5.089-9.305,6.911-14.193c0.907-2.441,1.652-4.935,2.056-7.457c0.41-2.509,0.447-5.098-0.312-7.423
		c-0.193-0.592-0.399-1.076-0.735-1.664c-0.278-0.512-0.655-1.089-0.976-1.629c-0.664-1.099-1.327-2.195-1.987-3.287
		c-1.31-2.19-2.58-4.381-3.825-6.563c-4.968-8.734-9.446-17.355-13.496-25.619c-4.064-8.258-7.721-16.152-11.198-23.376
		c-1.744-3.608-3.435-7.058-5.203-10.234c-0.889-1.581-1.788-3.108-2.786-4.473c-0.497-0.658-1.044-1.351-1.583-1.812
		c-0.206-0.241-0.677-0.501-0.928-0.663c-0.367-0.201-0.73-0.401-1.091-0.599c-5.791-3.096-10.406-6.786-13.186-10.691
		c-0.344-0.488-0.68-0.963-1.005-1.424c-0.28-0.492-0.553-0.969-0.817-1.432c-0.13-0.233-0.258-0.462-0.384-0.687
		c-0.104-0.237-0.207-0.469-0.308-0.698c-0.197-0.46-0.407-0.895-0.572-1.331c-0.629-1.757-0.974-3.316-1.113-4.601
		c-0.129-1.285-0.122-2.282-0.055-2.956c0.021-0.332,0.064-0.601,0.09-0.778c0.03-0.167,0.045-0.252,0.045-0.252L116.49,67.432z"/>
</g>
<path class="st57" d="M132.75,286c5.693,9.565,8.568,18.657,7.472,29.661c-0.932,9.356-2.589,18.639-3.986,27.932
	c-3.523,23.441-6.552,47.609-3.143,71.248c3.381,23.443,14.65,44.88,36.909,55.152c2.174,1.003,4.402,1.891,6.665,2.673"/>
<path class="st57" d="M115.333,68C114,72,116,75,117,79c2,4,4,9,8,11c5,4,10,6,12,10c6,10,11,20,14,31c6,15,16,28,22,42
	c-3,27-24,46-40,68c-5,7-9,14-9,22c1,8,5.25,19.375,9.625,20.75"/>
<path class="st58" d="M246.415,273.288C242,288,240,304,241,320c2,15,4,29,6,44c1,20-2,41-8,60c-1,2-2,4-3,7c-5,9-14,18-25,20"/>
<path class="st58" d="M161.667,65C163,77,156,86,147,93c-5,4-3,8-2,13c5,20,12,37,25,52c31.097,33.041,78.097,63.464,77.75,107.625
	c-0.01,1.282-0.375,4.25,0.625,7.5"/>
<g>
	<path class="st56" d="M267.168,66.234c0,0,0.015,0.085,0.045,0.254c0.027,0.179,0.07,0.449,0.091,0.784
		c0.066,0.679,0.075,1.684-0.06,2.979c-0.134,1.296-0.5,2.863-1.13,4.635c-0.187,0.43-0.382,0.877-0.583,1.339
		c-0.187,0.47-0.43,0.93-0.705,1.392c-0.27,0.464-0.523,0.959-0.832,1.437c-0.328,0.465-0.666,0.944-1.013,1.435
		c-2.834,3.908-7.486,7.621-13.338,10.715l-0.548,0.301l-0.275,0.151l-0.138,0.076c0.085-0.049-0.012,0.012-0.012,0.012
		l-0.065,0.044c-0.17,0.117-0.355,0.231-0.514,0.352l-0.371,0.379c-0.255,0.243-0.501,0.613-0.756,0.915
		c-0.229,0.348-0.46,0.699-0.693,1.052c-0.893,1.453-1.669,3.065-2.446,4.722c-1.54,3.327-3.006,6.914-4.549,10.65
		c-3.073,7.48-6.411,15.6-10.349,24.011c-3.927,8.413-8.476,17.111-13.816,25.734c-1.335,2.155-2.714,4.309-4.163,6.438
		c-0.712,1.073-1.445,2.137-2.201,3.192c-0.7,1.063-1.647,2.125-1.981,3.154c-0.832,2.253-0.401,4.892,0.318,7.325
		c0.749,2.462,1.852,4.846,3.063,7.178c2.458,4.658,5.413,9.113,8.478,13.504c3.078,4.387,6.307,8.7,9.563,12.995
		c6.495,8.602,13.21,17.062,19.091,25.955c1.485,2.214,2.79,4.547,4.207,6.728c1.416,2.219,2.825,4.427,4.225,6.621
		c2.764,4.42,5.374,8.878,7.597,13.452c2.223,4.565,4.093,9.259,5.081,14.104c0.469,2.422,0.703,4.889,0.494,7.325
		c-0.202,2.429-0.896,4.832-2.166,6.885c-0.349,0.49-0.645,1.019-1.037,1.469c-0.402,0.442-0.794,0.891-1.202,1.32l-1.352,1.138
		c-0.452,0.373-0.97,0.647-1.449,0.972c-0.247,0.152-0.482,0.323-0.737,0.457l-0.773,0.377c-0.525,0.243-1.004,0.517-1.562,0.73
		c-1.033,0.395-2.055,0.791-3.157,1.071c-4.302,1.23-8.704,1.205-12.736,0.487c-4.045-0.734-7.745-2.104-11.133-3.6
		c-3.395-1.498-6.497-3.136-9.429-4.607c-2.927-1.477-5.689-2.806-8.345-3.681c-2.641-0.867-5.233-1.239-7.4-0.662
		c-0.549,0.085-1.048,0.369-1.518,0.521c-0.518,0.251-0.896,0.511-1.342,0.802c-0.843,0.58-1.603,1.181-2.27,1.78
		c-1.332,1.202-2.352,2.335-3.105,3.308c-0.746,0.98-1.219,1.803-1.512,2.382c-0.268,0.597-0.407,0.905-0.407,0.905
		s0.019-0.338,0.139-0.998c0.158-0.644,0.455-1.615,1.135-2.728c0.668-1.116,1.691-2.367,3.09-3.611
		c0.696-0.625,1.483-1.251,2.371-1.862c0.431-0.286,0.956-0.631,1.445-0.865c0.584-0.208,1.106-0.496,1.73-0.603
		c2.435-0.645,5.225-0.22,7.957,0.673c2.753,0.905,5.55,2.252,8.489,3.73c2.943,1.474,6.032,3.1,9.386,4.576
		c3.348,1.474,6.977,2.809,10.902,3.518c3.908,0.694,8.155,0.705,12.258-0.472c1.016-0.254,2.046-0.651,3.083-1.049
		c0.478-0.182,0.971-0.46,1.458-0.686l0.736-0.358c0.241-0.127,0.461-0.289,0.693-0.432c1.881-1.109,3.541-2.65,4.691-4.558
		c1.169-1.895,1.815-4.122,2.005-6.421c0.195-2.304-0.027-4.674-0.485-7.023c-0.962-4.702-2.802-9.326-5.005-13.836
		c-2.202-4.521-4.797-8.945-7.553-13.343c-1.401-2.19-2.81-4.394-4.226-6.609c-1.451-2.231-2.73-4.518-4.206-6.712
		c-5.845-8.821-12.563-17.272-19.071-25.873c-3.263-4.297-6.504-8.616-9.601-13.021c-3.085-4.411-6.065-8.89-8.57-13.624
		c-1.234-2.374-2.368-4.808-3.155-7.384c-0.388-1.288-0.685-2.614-0.789-3.98c-0.1-1.358-0.02-2.78,0.489-4.11
		c0.106-0.331,0.289-0.665,0.455-0.995c0.185-0.298,0.323-0.53,0.551-0.848l1.115-1.582c0.75-1.048,1.477-2.106,2.183-3.173
		c1.438-2.117,2.806-4.259,4.131-6.403c5.31-8.573,9.798-17.248,13.745-25.612c3.946-8.369,7.297-16.457,10.391-23.932
		c1.554-3.735,3.031-7.323,4.597-10.684c0.792-1.677,1.58-3.307,2.52-4.828c0.249-0.375,0.495-0.747,0.74-1.117
		c0.298-0.354,0.524-0.707,0.879-1.053l0.533-0.508c0.176-0.131,0.35-0.237,0.524-0.356l0.065-0.043
		c0.046-0.028-0.011,0.001,0.119-0.073l0.136-0.074l0.27-0.148l0.538-0.293c5.753-3.022,10.28-6.629,13.009-10.374
		c0.335-0.471,0.66-0.929,0.977-1.375c0.297-0.457,0.538-0.93,0.799-1.372c0.265-0.441,0.498-0.879,0.676-1.326
		c0.193-0.439,0.38-0.864,0.559-1.273c0.601-1.682,0.953-3.164,1.082-4.385c0.13-1.218,0.125-2.16,0.065-2.781
		c-0.019-0.317-0.055-0.536-0.075-0.686c-0.02-0.149-0.042-0.239-0.042-0.239L267.168,66.234z"/>
</g>
<path class="st57" d="M253.625,285.125C246.792,298.444,248,312,250,326c8,39,16,78,1,115c-6,15-19,26-35,31"/>
<path class="st57" d="M267.345,67C268,76,264,84,257,90c-5,4-11,6-14,12c-10,24-23,46-32,70c-3,6,1,12,4,18c11,19,26,35,40,52
	c10,13,7.75,31-2.375,41.75"/>
<path class="st58" d="M141,277.25c6.75,20.25,6.395,50.284,2.226,76.401c-3.139,19.657,0.744,38.131,4.642,57.35
	c2.732,13.47,7.153,27.274,19.746,34.612c5.594,3.259,12.552,5.082,19.053,4.387"/>
<path class="st58" d="M220,65.25C218,77,226,85,235,92c3,3,4,7,3,11c-4,17-9,31-19,46c-2,2-3,5-5,7c-16,17-32,32-47,51
	c-10,14-18,28-24,44c-3,8-6,19.875-0.625,24.25"/>
<path class="st59" d="M170.75,310.5c-2.052-9.374-1.004-26.364-3-35.75c-1.933-9.093-4.721-15.235-9-23.5
	c-4.603-8.892-4-17-0.5-23.5c2.289-4.251,10.949-18.336,16.125-24.375c5.25-6.125,11.767-12.207,18.75-15"/>
<path class="st59" d="M188,300.5c-0.875,6.75-14.125,1.625-22.375,9.875c-6.613,6.613-9.41,18.1-11.98,27.032
	c-3.041,10.569-3.512,21.91-2.446,32.808c1.071,10.956,2.255,22.83,6.676,32.91c3.976,9.066,4.827,10.797,10.5,18.875
	c0.657,0.936,8.5,8.375,15.375,12.375"/>
<path class="st59" d="M216.5,310.75c2.052-9.374,2.254-25.864,4.25-35.25c1.933-9.093,3.971-15.985,8.25-24.25
	c4.603-8.892,5.5-16.125,2-22.625c-2.289-4.251-9.362-13.803-14.5-19.875c-6.875-8.125-17.875-20.25-23.25-20.25"/>
<path class="st59" d="M202.681,301.25c0.875,6.75,14.125,1.625,22.375,9.875c6.613,6.613,9.41,18.1,11.98,27.032
	c3.041,10.569,3.512,21.91,2.446,32.808c-1.071,10.956-2.255,22.83-6.676,32.91c-3.976,9.066-4.827,10.797-10.5,18.875
	c-0.657,0.936-8.5,8.375-15.375,12.375"/>
<path class="st59" d="M190,303.333c-2.264,12.342-4.8,24.653-6.821,37.037c-1.853,11.357-2.512,22.629,3.154,28.629"/>
<path class="st59" d="M184.167,334.667c0,0,1.083,7.5,3.583,10.333"/>
<path class="st59" d="M181.5,353c0,0-1.417,38.75,3.5,43"/>
<path class="st59" d="M199.696,302.083c2.264,12.342,4.8,24.653,6.821,37.037c1.853,11.357,2.512,22.629-3.154,28.629"/>
<path class="st59" d="M205.833,333.333c0,0-0.583,6.333-3.083,9.167"/>
<path class="st59" d="M207.5,346c0,0,5,47.167-1.667,49.833"/>
<g>
	<path class="st56" d="M187.721,295.293c0,0-0.033,0.069-0.09,0.19c-0.064,0.124-0.124,0.287-0.253,0.508
		c-0.131,0.217-0.267,0.481-0.461,0.715c-0.172,0.251-0.401,0.483-0.623,0.712c-0.245,0.208-0.478,0.426-0.738,0.574
		c-0.243,0.17-0.494,0.283-0.706,0.38c-0.206,0.107-0.402,0.141-0.526,0.19c-0.127,0.041-0.2,0.064-0.2,0.064
		s0.067-0.038,0.183-0.104c0.112-0.073,0.29-0.143,0.466-0.287c0.182-0.134,0.393-0.287,0.585-0.491
		c0.208-0.182,0.379-0.428,0.557-0.654c0.155-0.248,0.312-0.488,0.416-0.739c0.128-0.24,0.187-0.475,0.259-0.666
		c0.068-0.191,0.103-0.4,0.138-0.523c0.032-0.13,0.05-0.204,0.05-0.204L187.721,295.293z"/>
</g>
<g>
	<path class="st56" d="M187.405,293.582c0,0,0.749,1.194,1.498,2.387c0.736,1.203,1.472,2.406,1.472,2.406s-0.939-1.057-1.878-2.113
		c-0.951-1.047-1.903-2.094-1.903-2.094L187.405,293.582z"/>
</g>
<g>
	<path class="st56" d="M200,294.232c0,0-0.017,0.387-0.041,0.968c-0.018,0.293-0.03,0.63,0.003,0.973
		c0.02,0.352,0.041,0.728,0.062,1.104c0.064,0.376,0.127,0.751,0.187,1.103c0.043,0.361,0.141,0.679,0.239,0.95
		c0.181,0.552,0.301,0.92,0.301,0.92s-0.179-0.345-0.447-0.862c-0.143-0.258-0.296-0.567-0.398-0.92
		c-0.119-0.35-0.246-0.723-0.374-1.096c-0.086-0.389-0.172-0.779-0.252-1.144c-0.094-0.372-0.135-0.711-0.165-0.998
		c-0.069-0.577-0.115-0.962-0.115-0.962L200,294.232z"/>
</g>
<g>
	<path class="st56" d="M199.25,295.646c0,0-0.176,1.217-0.352,2.433c-0.261,1.21-0.522,2.42-0.522,2.42s0.011-1.221,0.023-2.442
		c-0.074-1.227-0.147-2.455-0.147-2.455L199.25,295.646z"/>
</g>
<path class="st57" d="M222.25,469.625c-2.305,0.59-4.146,2.189-4.25,4.625"/>
<path class="st57" d="M220.5,469.75c-1.994,0.659-4.138,0.433-5.875-0.75"/>
<path class="st57" d="M174,471.375c1.471-0.332,2.915-0.939,4.125-1.75"/>
<path class="st57" d="M171.75,471.125c1.326,0.405,2.499,1.549,3.125,3"/>
<path class="st60" d="M218.625,448.75c-1.971,1.078-3.683,2.695-5,4.5"/>
<path class="st60" d="M218.125,448.5c-2.187,0.222-4.394,0.264-6.5-0.375"/>
<path class="st60" d="M182,449.75c1.192-0.556,2.331-1.044,3.5-1.5"/>
<path class="st60" d="M178.25,449.875c2.258-0.083,4.219,1.12,5.25,3.125"/>
<g>
	<path class="st40" d="M219.367,318.228c2.808-2.568,3.685-6.18,1.959-8.067c-1.726-1.888-5.402-1.336-8.21,1.232
		s-3.685,6.18-1.959,8.067C212.884,321.347,216.559,320.796,219.367,318.228z"/>
	
		<ellipse transform="matrix(0.6748 0.738 -0.738 0.6748 302.6295 -57.2154)" class="st34" cx="216.242" cy="314.81" rx="4.631" ry="6.89"/>
	
		<radialGradient id="SVGID_49_" cx="62.2512" cy="262.1141" r="7.131" gradientTransform="matrix(-0.5282 -0.5776 -0.6226 0.5693 412.3052 201.5452)" gradientUnits="userSpaceOnUse">
		<stop  offset="0" style="stop-color:#000000;stop-opacity:0"/>
		<stop  offset="0.9018" style="stop-color:#000000;stop-opacity:0.9018"/>
		<stop  offset="1" style="stop-color:#000000"/>
	</radialGradient>
	<path class="st61" d="M219.367,318.228c2.808-2.568,3.685-6.18,1.959-8.067c-1.726-1.888-5.402-1.336-8.21,1.232
		s-3.685,6.18-1.959,8.067C212.884,321.347,216.559,320.796,219.367,318.228z"/>
</g>
<g>
	<path class="st40" d="M168.783,318.228c-2.808-2.568-3.685-6.18-1.959-8.067c1.726-1.888,5.402-1.336,8.21,1.232
		s3.685,6.18,1.959,8.067C175.266,321.347,171.591,320.796,168.783,318.228z"/>
	
		<ellipse transform="matrix(-0.6748 0.738 -0.738 -0.6748 520.2373 400.3972)" class="st34" cx="171.908" cy="314.81" rx="4.631" ry="6.89"/>
	
		<radialGradient id="SVGID_50_" cx="140.1315" cy="341.134" r="7.131" gradientTransform="matrix(0.5282 -0.5776 0.6226 0.5693 -114.4885 201.5452)" gradientUnits="userSpaceOnUse">
		<stop  offset="0" style="stop-color:#000000;stop-opacity:0"/>
		<stop  offset="0.9018" style="stop-color:#000000;stop-opacity:0.9018"/>
		<stop  offset="1" style="stop-color:#000000"/>
	</radialGradient>
	<path class="st62" d="M168.783,318.228c-2.808-2.568-3.685-6.18-1.959-8.067c1.726-1.888,5.402-1.336,8.21,1.232
		s3.685,6.18,1.959,8.067C175.266,321.347,171.591,320.796,168.783,318.228z"/>
</g>
<g>
	<path class="st40" d="M187.338,344.924c-0.108-5.397,1.301-9.801,3.146-9.838c1.845-0.037,3.429,4.308,3.537,9.705
		c0.108,5.397-1.301,9.801-3.146,9.838S187.446,350.321,187.338,344.924z"/>
	
		<ellipse transform="matrix(-0.9998 0.02 -0.02 -0.9998 388.2134 685.8358)" class="st34" cx="190.68" cy="344.858" rx="3.342" ry="9.773"/>
	
		<radialGradient id="SVGID_51_" cx="141.8905" cy="341.8694" r="7.131" gradientTransform="matrix(0.5647 -0.0113 0.0239 1.1965 102.3716 -62.5928)" gradientUnits="userSpaceOnUse">
		<stop  offset="0" style="stop-color:#000000;stop-opacity:0"/>
		<stop  offset="0.9018" style="stop-color:#000000;stop-opacity:0.9018"/>
		<stop  offset="1" style="stop-color:#000000"/>
	</radialGradient>
	<path class="st63" d="M187.338,344.924c-0.108-5.397,1.301-9.801,3.146-9.838c1.845-0.037,3.429,4.308,3.537,9.705
		c0.108,5.397-1.301,9.801-3.146,9.838S187.446,350.321,187.338,344.924z"/>
</g>
<g>
	<path class="st40" d="M203.361,345.591c0.108-5.397-1.301-9.801-3.146-9.838c-1.845-0.037-3.429,4.308-3.537,9.705
		c-0.108,5.397,1.301,9.801,3.146,9.838C201.669,355.333,203.253,350.988,203.361,345.591z"/>
	
		<ellipse transform="matrix(0.9998 0.02 -0.02 0.9998 6.945 -3.9282)" class="st34" cx="200.019" cy="345.524" rx="3.342" ry="9.773"/>
	
		<radialGradient id="SVGID_52_" cx="-23.9228" cy="340.8622" r="7.131" gradientTransform="matrix(-0.5647 -0.0113 -0.0239 1.1965 194.6609 -62.5928)" gradientUnits="userSpaceOnUse">
		<stop  offset="0" style="stop-color:#000000;stop-opacity:0"/>
		<stop  offset="0.9018" style="stop-color:#000000;stop-opacity:0.9018"/>
		<stop  offset="1" style="stop-color:#000000"/>
	</radialGradient>
	<path class="st64" d="M203.361,345.591c0.108-5.397-1.301-9.801-3.146-9.838c-1.845-0.037-3.429,4.308-3.537,9.705
		c-0.108,5.397,1.301,9.801,3.146,9.838C201.669,355.333,203.253,350.988,203.361,345.591z"/>
</g>
<g>
	<path class="st40" d="M186.659,367.733c-0.068-3.397,1.373-6.181,3.218-6.218s3.396,2.687,3.464,6.084
		c0.068,3.397-1.373,6.181-3.218,6.218C188.278,373.854,186.726,371.13,186.659,367.733z"/>
	
		<ellipse transform="matrix(-0.9998 0.02 -0.02 -0.9998 387.3095 731.463)" class="st34" cx="190" cy="367.667" rx="3.342" ry="6.152"/>
	
		<radialGradient id="SVGID_53_" cx="139.8801" cy="366.7453" r="7.131" gradientTransform="matrix(0.5647 -0.0113 0.0151 0.7532 105.482 93.0243)" gradientUnits="userSpaceOnUse">
		<stop  offset="0" style="stop-color:#000000;stop-opacity:0"/>
		<stop  offset="0.9018" style="stop-color:#000000;stop-opacity:0.9018"/>
		<stop  offset="1" style="stop-color:#000000"/>
	</radialGradient>
	<path class="st65" d="M186.659,367.733c-0.068-3.397,1.373-6.181,3.218-6.218s3.396,2.687,3.464,6.084
		c0.068,3.397-1.373,6.181-3.218,6.218C188.278,373.854,186.726,371.13,186.659,367.733z"/>
</g>
<g>
	<path class="st40" d="M204.041,369.4c0.068-3.397-1.373-6.181-3.218-6.218c-1.845-0.037-3.396,2.687-3.464,6.084
		s1.373,6.181,3.218,6.218C202.422,375.521,203.973,372.797,204.041,369.4z"/>
	
		<ellipse transform="matrix(0.9998 0.02 -0.02 0.9998 7.4209 -3.937)" class="st34" cx="200.699" cy="369.333" rx="3.342" ry="6.152"/>
	
		<radialGradient id="SVGID_54_" cx="-25.9685" cy="366.4725" r="7.131" gradientTransform="matrix(-0.5647 -0.0113 -0.0151 0.7532 191.5505 93.0243)" gradientUnits="userSpaceOnUse">
		<stop  offset="0" style="stop-color:#000000;stop-opacity:0"/>
		<stop  offset="0.9018" style="stop-color:#000000;stop-opacity:0.9018"/>
		<stop  offset="1" style="stop-color:#000000"/>
	</radialGradient>
	<path class="st66" d="M204.041,369.4c0.068-3.397-1.373-6.181-3.218-6.218c-1.845-0.037-3.396,2.687-3.464,6.084
		s1.373,6.181,3.218,6.218C202.422,375.521,203.973,372.797,204.041,369.4z"/>
</g>
<g>
	<path class="st40" d="M185.008,395.758c-0.084-4.222,1.574-7.68,3.704-7.722s3.925,3.346,4.009,7.568s-1.574,7.68-3.704,7.722
		S185.093,399.98,185.008,395.758z"/>
	
		<ellipse transform="matrix(-0.9998 0.02 -0.02 -0.9998 385.5995 787.5088)" class="st34" cx="188.865" cy="395.681" rx="3.857" ry="7.647"/>
	
		<radialGradient id="SVGID_55_" cx="137.7921" cy="408.6993" r="7.131" gradientTransform="matrix(0.6518 -0.013 0.0187 0.9362 91.4044 14.8691)" gradientUnits="userSpaceOnUse">
		<stop  offset="0" style="stop-color:#000000;stop-opacity:0"/>
		<stop  offset="0.9018" style="stop-color:#000000;stop-opacity:0.9018"/>
		<stop  offset="1" style="stop-color:#000000"/>
	</radialGradient>
	<path class="st67" d="M185.008,395.758c-0.084-4.222,1.574-7.68,3.704-7.722s3.925,3.346,4.009,7.568s-1.574,7.68-3.704,7.722
		S185.093,399.98,185.008,395.758z"/>
</g>
<g>
	<path class="st40" d="M205.691,396.425c0.084-4.222-1.574-7.68-3.704-7.722c-2.13-0.043-3.925,3.346-4.009,7.568
		s1.574,7.68,3.704,7.722S205.606,400.647,205.691,396.425z"/>
	
		<ellipse transform="matrix(0.9998 0.02 -0.02 0.9998 7.961 -3.9543)" class="st34" cx="201.834" cy="396.348" rx="3.857" ry="7.647"/>
	
		<radialGradient id="SVGID_56_" cx="-5.8753" cy="407.412" r="7.131" gradientTransform="matrix(-0.6518 -0.013 -0.0187 0.9362 205.6281 14.8691)" gradientUnits="userSpaceOnUse">
		<stop  offset="0" style="stop-color:#000000;stop-opacity:0"/>
		<stop  offset="0.9018" style="stop-color:#000000;stop-opacity:0.9018"/>
		<stop  offset="1" style="stop-color:#000000"/>
	</radialGradient>
	<path class="st68" d="M205.691,396.425c0.084-4.222-1.574-7.68-3.704-7.722c-2.13-0.043-3.925,3.346-4.009,7.568
		s1.574,7.68,3.704,7.722S205.606,400.647,205.691,396.425z"/>
</g>
<g>
	<g>
		<line class="st34" x1="195.25" y1="514.75" x2="185.57" y2="485.269"/>
		<g>
			<polygon points="188.684,486.342 185.843,486.101 183.697,487.979 184.25,481.25 			"/>
		</g>
	</g>
</g>
<g>
	<g>
		<line class="st34" x1="195.25" y1="514" x2="205.319" y2="485.981"/>
		<g>
			<polygon points="207.116,488.742 205.023,486.805 202.176,486.967 206.75,482 			"/>
		</g>
	</g>
</g>
<g>
	<g>
		<line class="st59" x1="267" y1="143" x2="239.348" y2="142.122"/>
		<g>
			<polygon points="241.234,139.793 240.144,142.147 241.082,144.566 235.5,142 			"/>
		</g>
	</g>
</g>
<g>
	<g>
		<line class="st59" x1="265.5" y1="155.5" x2="217.575" y2="155.962"/>
		<g>
			<polygon points="219.391,153.52 218.384,155.954 219.438,158.369 213.667,156 			"/>
		</g>
	</g>
</g>
<g>
	<g>
		<line class="st59" x1="266" y1="170" x2="220.035" y2="162.646"/>
		<g>
			<polygon points="222.334,160.446 220.87,162.779 221.533,165.453 216,162 			"/>
		</g>
	</g>
</g>
<g>
	<g>
		<line class="st59" x1="265" y1="181" x2="219.466" y2="179.62"/>
		<g>
			<polygon points="221.407,177.216 220.287,179.645 221.258,182.137 215.5,179.5 			"/>
		</g>
	</g>
</g>
<g>
	<g>
		<line class="st59" x1="267" y1="143" x2="238.578" y2="142.098"/>
		<g>
			<polygon points="240.087,140.234 239.215,142.118 239.966,144.053 235.5,142 			"/>
		</g>
	</g>
</g>
<g>
	<g>
		<line class="st59" x1="266.5" y1="206" x2="234.081" y2="204.224"/>
		<g>
			<polygon points="236.139,201.798 234.925,204.27 235.862,206.86 230,204 			"/>
		</g>
	</g>
</g>
<g>
	<g>
		<line class="st59" x1="262" y1="217.5" x2="226.99" y2="217.055"/>
		<g>
			<polygon points="229.058,214.399 227.885,217.066 228.99,219.763 222.667,217 			"/>
		</g>
	</g>
</g>
<g>
	<g>
		<line class="st59" x1="300.5" y1="270.5" x2="262.849" y2="269.593"/>
		<g>
			<polygon points="264.717,267.249 263.645,269.612 264.602,272.024 259,269.5 			"/>
		</g>
	</g>
</g>
<g>
	<g>
		<line class="st59" x1="300.25" y1="286" x2="267.337" y2="286"/>
		<g>
			<polygon points="269.259,283.465 268.182,286 269.259,288.535 263.25,286 			"/>
		</g>
	</g>
</g>
<g>
	<g>
		<line class="st59" x1="300.75" y1="299.75" x2="207.791" y2="299.99"/>
		<g>
			<polygon points="209.568,297.634 208.575,299.988 209.58,302.337 204,300 			"/>
		</g>
	</g>
</g>
<g>
	<g>
		<line class="st59" x1="299.5" y1="315.5" x2="225.79" y2="316.927"/>
		<g>
			<polygon points="227.527,314.541 226.574,316.911 227.618,319.243 222,317 			"/>
		</g>
	</g>
</g>
<g>
	<g>
		<line class="st59" x1="299.5" y1="346.5" x2="208.705" y2="346.5"/>
		<g>
			<polygon points="210.684,343.891 209.575,346.5 210.684,349.109 204.5,346.5 			"/>
		</g>
	</g>
</g>
<g>
	<g>
		<line class="st59" x1="298.5" y1="368.5" x2="210.29" y2="369.938"/>
		<g>
			<polygon points="212.035,367.558 211.074,369.925 212.111,372.26 206.5,370 			"/>
		</g>
	</g>
</g>
<g>
	<g>
		<line class="st59" x1="302.5" y1="397" x2="210.409" y2="397.959"/>
		<g>
			<polygon points="212.223,395.515 211.218,397.951 212.273,400.365 206.5,398 			"/>
		</g>
	</g>
</g>
<rect x="270.667" y="138.667" class="st0" width="133.667" height="9.333"/>
<text transform="matrix(1 0 0 1 270.6673 145.1294)" class="st69 st70">Optic nerve</text>
<rect x="268.667" y="152" class="st0" width="188.667" height="9.333"/>
<text transform="matrix(1 0 0 1 268.6673 158.4627)" class="st69 st70">Crossed fibers</text>
<rect x="269.333" y="167" class="st0" width="160" height="9.333"/>
<text transform="matrix(1 0 0 1 269.333 173.4627)" class="st69 st70">Uncrossed fibers</text>
<rect x="270.333" y="177.667" class="st0" width="151.667" height="9.333"/>
<text transform="matrix(1 0 0 1 270.333 184.1294)" class="st69 st70">Optic chiasma</text>
<rect x="269.333" y="201.667" class="st0" width="108" height="9.333"/>
<text transform="matrix(1 0 0 1 269.333 208.1294)" class="st69 st70">Optic tract</text>
<rect x="269.667" y="213.333" class="st0" width="177" height="9.333"/>
<text transform="matrix(1 0 0 1 269.6673 219.7966)" class="st69 st70">Commissure of Gudden</text>
<rect x="303.667" y="265.333" class="st0" width="108" height="9.333"/>
<text transform="matrix(1 0 0 1 303.6664 271.7961)" class="st69 st70">Pulvinar</text>
<rect x="305.333" y="281" class="st0" width="175.333" height="9.333"/>
<text transform="matrix(1 0 0 1 305.333 287.4627)" class="st69 st70">Lateral geniculate body</text>
<rect x="304" y="296.667" class="st0" width="166.333" height="9.333"/>
<text transform="matrix(1 0 0 1 303.9997 303.1299)" class="st69 st70">Superior colliculus</text>
<rect x="305" y="312.667" class="st0" width="163" height="9.333"/>
<text transform="matrix(1 0 0 1 304.9997 319.1299)" class="st69 st70">Medial geniculate body</text>
<rect x="307" y="342" class="st0" width="171.667" height="9.333"/>
<text transform="matrix(1 0 0 1 306.9997 348.4627)" class="st69 st70">Nucleus of oculomotor nerve</text>
<rect x="304.667" y="365.333" class="st0" width="169.667" height="9.333"/>
<text transform="matrix(1 0 0 1 304.6673 371.7961)" class="st69 st70">Nucleus of trochlar nerve</text>
<rect x="305.333" y="393" class="st0" width="158" height="9.333"/>
<text transform="matrix(1 0 0 1 305.333 399.4627)" class="st69 st70">Nucleus of abducent nerve</text>
<rect x="128.667" y="516" class="st0" width="150" height="10"/>
<text transform="matrix(1 0 0 1 152.2904 522.4628)" class="st69 st70">Cortex of occipital lobes</text>
<g>
	<g>
		<line class="st59" x1="307.333" y1="54.333" x2="272.694" y2="54.632"/>
		<g>
			<polygon points="274.567,52.117 273.527,54.625 274.61,57.114 268.667,54.667 			"/>
		</g>
	</g>
</g>
<rect x="310.333" y="52" class="st0" width="133.667" height="9.333"/>
<text transform="matrix(1 0 0 1 310.334 58.4627)" class="st69 st70">Sphere of the eye</text>
<rect x="310.667" y="71.333" class="st0" width="133.667" height="9.333"/>
<text transform="matrix(1 0 0 1 310.6673 77.7961)" class="st69 st70">Retina</text>
<g>
	<g>
		<line class="st59" x1="305.667" y1="75" x2="276.146" y2="75.292"/>
		<g>
			<polygon points="278.071,72.701 277.004,75.284 278.122,77.845 272,75.333 			"/>
		</g>
	</g>
</g>
<g>
	<g>
		<line class="st59" x1="265.667" y1="170.667" x2="213.415" y2="168.193"/>
		<g>
			<polygon points="215.456,165.752 214.26,168.233 215.216,170.816 209.333,168 			"/>
		</g>
	</g>
</g>
<line class="st57" x1="255.25" y1="280.625" x2="255.625" y2="284.5"/>
<line class="st57" x1="130.75" y1="282.125" x2="130.625" y2="286.5"/>
<line class="st58" x1="140.25" y1="272.375" x2="139.125" y2="276.25"/>
<line class="st58" x1="247.5" y1="269" x2="244.625" y2="271.5"/>
<path class="st71" d="M216.38,176.651c2.782-8.922,22.823-41.04,22.814-41.344c-2.688,0.689-5.467,0.597-8.332-1.075
	c-2.109-1.231-5.052-5.315-5.157-5.566c-0.927,0.983-24.238,37.393-26.893,38.641c-5.877,2.763-11.13,0.067-15.266-4.381
	c-4.953-5.327-20.685-28.468-24.751-33.864c-1.646,2.46-2.522,4.694-4.962,5.938c-4.083,2.083-8.036,1.872-8,1.917
	c6.279,7.878,15.678,24.09,15.678,24.09s11.427,17.513,7.585,27.39c-3.358,8.632-24.53,31.469-22.976,34.149
	c0.945,1.629,1.001,3.909,2.518,4.704c7.945,4.167,12.023,0,12.023,0c1.203-6.541,26.295-32.492,26.607-32.888
	c2.57-3.745,7.695-4.537,11.017-1.225c3.645,3.635,25.965,29.446,31.131,36.279c0,0,3.596,0.99,8-1.833
	c6.5-4.167,3.725-4.48,4-4.667C240.967,222.412,213.593,185.59,216.38,176.651z"/>
</svg>
